<?xml version="1.0" encoding="UTF-8"?>
<svg viewBox="0 0 600 400" xmlns="http://www.w3.org/2000/svg">
 <path d="m171.1 122.22c-9.7284-1.7116-20.177-2.0476-30.043-0.082718-42.892 8.5441-81.328 46.077-102.73 79.62-7.4403 11.662-15.373 27.379-12.738 41.343 1.2158 6.4391 5.4238 12.127 7.327 18.374 4.3373 14.23 7.4994 25.566 21.913 34.504 33.466 20.752 79.722 20.653 118.26 24.259 38.16 3.5704 76.221 3.5405 114.56 4.4168 26.096 0.59595 60.902-0.93884 87.12-3.2655 33.116-2.9376 54.442-7.8878 86.569-14.638 33.508-7.0398 74.399-26.975 97.087-51.019 6.8859-7.2981 17.874-20.217 12.752-30.544-2.6644-5.3711-7.4542-11.586-11.688-17.109-26.717-34.859-65.925-69.058-110.47-83.238-15.998-5.092-29.845-4.8433-37.513-1.312-24.075-21.882-41.799-24.654-58.496-28.908-23.459-5.9763-68.479-0.39934-75.911 6.1846-26.837-6.5344-51.194-7.4532-79.171 0.042458-12.966 3.4739-26.455 7.0122-26.826 21.372v8e-6z"/>
 <g fill="#fee5b2">
  <path d="m39.944 240.28c1.8009-13.274 149.12-51.535 168.72-42.649-1.063-9.1286-10.985-26.098-15.513-34.443-11.388-15.631-17.007-26.743-30.275-31.942-11.672-4.5741-23.581 0.80504-34.139 5.0576-26.488 10.669-50.574 29.473-68.345 50.53-8.767 10.387-16.918 23.167-21.75 35.6-1.95 5.0185-4.2552 14.173 1.2979 17.847z"/>
  <path d="m295.04 101.85l18.503 17.209c2.6352 2.71 9.3774 10.691 11.444 15.328 4.1674 8.0128 106.97 45.533 113.46 81.155 21.473-1.5148 88.776-26.967 103.43-10.336 4.6982 5.3309 8.2431 16.059 9.4084 22.984l9.1188-3.379c-21.556-36.061-53.42-65.792-92.91-84.2-11.986-6.9037-34.731-13.548-46.672-9.8754 13.866 19.738 21.728 29.56 27.44 53.461 0.51382 3.8368 3.604 14.542-1.2471 20.272-1.6954-4.5512-3.7415-12.663-5.8052-17.638-9.8886-23.828-18.748-38.281-31.492-53.822-14.7-17.924-44.318-30.775-69.103-33.256-15.39-1.5423-30.333 1.4872-45.578 2.097m-113.33 16.078c9.9664 4.2363 13.622 8.2486 19.709 17.185l3.6245 6.8405c4.8153-8.8427 14.118-18.31 23.476-21.725 22.31-8.141 43.569-4.6051 59.951 13.046 10.811 11.647 18.633 28.18 25.218 42.074 3.4049 9.4104 7.3386 19.527 10.846 20.187 4.2661 0.54808 7.0338-8.333 9.0522-11.161-3.7976 0.2541-5.6749-6.3365-7.179-9.7048-5.3892-12.073-6-19.48-14.891-31.477-10.952-14.779-30.154-35.34-49.947-39.847-13.04-2.9686-31.048-0.42335-44.137 1.382-10.748 1.4837-29.355 3.9616-35.723 13.2z"/>
 </g>
 <path d="m327.55 184.73c-5.5316-0.80405-8.4439-11.306-11.758-17.212-12.529-28.364-24.861-51.899-63.863-51.886-7.4292 0.002281-13.911 0.96926-20.941 3.289-8.3802 2.7654-25.298 6.3154-27.092 14.461-0.13629 5.8695 0.34375 6.7486 3.0936 14.173 3.1493 10.926 6.0984 22.235 6.8634 32.388 0.31288 4.1641 1.7912 12.413-3.879 14.891-6.185 0.67871-13.21-7.3188-16.205-11.463-8.4664-11.716-16.398-25.116-30.532-31.704-37.378-17.424-84.156 27.55-104.71 51.347-7.2728 8.419-23.368 21.861-18.912 34.332 2.4575 6.8812 13.708 13.203 19.44 17.846 31.317 25.369 61.327 27.199 99.95 31.89 53.602 6.5092 70.887 11.984 124.62 11.614 7.4182-0.051697 50.603-4.9253 58.226-5.0102 44.521-0.49384 90.372 4.0358 132.58-8.2338 23.579-6.856 44.516-26.487 63.173-42.587 4.309-3.7174 22.894-10.938 22.894-16.541-0.001221-5.2287-14.267-17.224-17.619-21.116-12.78-14.838-35.234-33.815-53.205-42.741-7.3677-3.66-28.468-14.843-36.674-11.671-5.3198 3.7029-3.0586 10.69-2.7876 15.367 0.76004 12.742 9.4264 37.228-3.8631 43.561-8.19 1.5891-24.042-66.796-51.156-79.907-9.1747-6.1244-27.381-13.287-37.342-14.496-10.534-1.6484-13.946-2.834-25.616-2.7418-8.4336-0.007568-11.445 3.4751-13.433 6.0073-1.0209 4.4356 1.5477 5.4658 5.1149 12.798 8.546 22.548 11.569 41.09 8.4049 52.604m98.225-58.019l1.2318 1.1484-1.2318-1.1484z" fill="#f9cb98"/>
 <path d="m53.599 255.09c51.848 39.042 118.05 37.069 178.13 38.713 62.15 1.7011 125.55 11.261 186.79-2.4195 32.492-7.259 80.789-18.916 111.78-35.242 7.1158-11.462 5.8023-1.0502 9.8079-16.613 4.0479-7.4437-27.38-35.245-38.498-43.543-10.558-6.4312-17.023-9.1774-25.112-9.1083-7.4108 0.085693-7.1747 12.126-7.2539 18.465-0.18314 14.624-9.729 42.699-27.219 36.131-28.655-10.761-28.46-57.431-42.893-81.733-9.7437-16.406-24.537-27.148-42.459-20.647-10.268 3.7241-10.002 13.121-9.8922 23.41 0.21649 20.292 0.42871 16.071-0.26477 31.783-1.373 7.0918-4.045 23.584-12.111 25.002-8.7171 1.5325-17.656-22.348-20.721-29.148-12.265-27.205-32.928-52.812-49.787-52.622-11.823-4.4414-35.619 6.8431-39.047 20.839-2.8488 11.626 0.23998 25.547 0.65064 37.311 0.21901 6.264-0.96226 21.169-8.1777 22.796-3.821 0.86092-8.2867 1.6136-11.565-0.18835-19.369-10.652-22.64-38.878-40.821-48.172-13.036-6.6634-27.11 2.1709-38.347 9.1757-27.11 16.896-58.503 44.462-72.983 75.81h4e-6z" fill="#f1b180"/>
 <path d="m330.76 178.79l1.2319 1.1484-1.2319-1.1484m-126.88 13.781l1.2318 1.1484-1.2318-1.1484z" fill="#fee5b2"/>
 <path d="m36.519 234.59c2.7864 15.099 5.9866 37.326 17.307 48.65 20.069 20.073 59.962 22.45 87.234 25.492 56.268 6.2772 112.12 7.5221 168.76 7.862 42.753 0.25604 84.084-3.161 128.11-12.692 34.813-11.513 74.355-20.535 102.24-44.627 7.2247-6.2416 25.556-20.993 21.376-32.185-4.2719-11.442-17.015 7.2223-19.675 10.262-25.317 28.935-71.08 36.145-107.39 44.695-29.637 6.9777-57.776 9.7595-88.302 9.2943-6.3403-0.096527-43.89 0.79987-50.275 1.0226-56.428 1.9649-87.599-2.8781-143.76-9.0772-16.515-1.8225-36.777-3.4169-52.63-8.8626-15.107-5.1885-27.18-9.4872-39.407-19.242-8.3272-6.6435-13.61-16.168-23.591-20.593h-8e-6z" fill="#935149"/>
</svg>
