<?xml version="1.0" encoding="UTF-8"?>
<svg viewBox="0 0 640 480" xmlns="http://www.w3.org/2000/svg">
 <path d="m619.99 157.59c25.918 109.29-93.445 231.17-266.61 272.24-173.16 41.065-334.55-14.24-360.46-123.53-25.918-109.29 93.445-231.17 266.61-272.24 173.16-41.065 334.55 14.24 360.46 123.53z" fill="#a86c00" stroke-width=".707"/>
 <path d="m627.08 185.01c-0.37 7.5646-1.129 15.034-2.3135 22.432l7.853 33.113-2.0501 9.3338-8.3867-29.311c-0.6767 2.8917-1.4139 5.7694-2.2354 8.6426l8.2903 34.955-2.9065 7.2134-8.7958-31.475c-1.1309 3.1918-2.3531 6.3754-3.6841 9.5507l7.6463 32.241-4.2274 7.0805-7.5928-30.088c-1.4902 3.0759-3.0674 6.1497-4.7624 9.2157l7.2748 30.67-4.197 6.246-7.5215-29.259c-1.843 3.0142-3.788 6.0291-5.8432 9.0389l6.8448 28.86-4.4662 5.1153-7.0746-27.375c-1.9552 2.6566-3.9844 5.3182-6.1156 7.9748l6.5814 27.752-4.9361 5.1482-6.6368-26.846c-2.012 2.3582-4.0905 4.713-6.2472 7.0736l6.3822 27.537-4.8724 4.4505-6.5754-26.585c-2.4103 2.51-4.8886 5.0186-7.4693 7.5344l6.4259 27.093-5.1572 4.7413-6.5647-26.798c-1.7499 1.6363-3.5385 3.2816-5.363 4.9212-0.8894 0.79849-1.7816 1.5923-2.6812 2.3815l6.62 27.728-5.2023 3.9379-6.7392-27.096c-2.9134 2.449-5.8665 4.8583-8.8735 7.2241l6.52 27.492-5.2535 3.2805-6.6452-26.622c-2.7482 2.0789-5.5217 4.1287-8.3397 6.1392l6.4604 27.243-5.5259 3.1874-6.4822-26.542c-3.4333 2.3579-6.9146 4.6674-10.441 6.9262l6.2742 27.172-5.7092 2.8505-6.2314-26.46c-3.4706 2.1426-6.9806 4.2429-10.53 6.2911l6.3068 26.595-5.9633 2.8318-6.1951-26.122c-3.7633 2.0932-7.5597 4.14-11.4 6.1299l6.1825 26.072-6.0452 2.4839-6.0569-25.538c-4.5168 2.256-9.0835 4.4403-13.691 6.5547l6.2473 26.344-5.9778 2.2448-6.1918-25.924c-4.7425 2.0984-9.5218 4.1298-14.344 6.0796l6.1891 26.098-6.1462 2.0616-6.1071-25.75c-4.6365 1.804-9.2943 3.5405-13.99 5.2078l6.162 25.981-6.2821 2.0146-6.0681-25.846c-4.6777 1.594-9.3743 3.1314-14.095 4.5898l6.0634 25.571-6.3297 1.7242-5.9647-25.411c-4.5805 1.3526-9.177 2.6476-13.787 3.8736l6.1164 25.79-6.2812 1.4896-6.087-25.666c-78.158 19.76-159.3 21.279-223.2 3.404-70.17-19.63-106.09-47.3-135.64-90.032 2.7939 11.784 11.62 26.37 18.235 37.249 9.8142 14.928 40.121 55.887 107.16 77.605 71.663 23.218 159.55 20.99 241.02 1.3235 60.632-14.635 144.2-44.6 208.95-113.98 45.83-49.108 54.617-74.934 56.753-103.73-1.5186-17.745-3.983-39.511-8.0488-56.652l-0.0117 0.0027z" fill="#a46800"/>
 <path d="m616.02 158.29c25.498 107.52-92.33 227.53-263.18 268.04-170.85 40.517-330.02-13.8-355.52-121.32s92.329-227.53 263.18-268.04c170.85-40.517 330.02 13.8 355.52 121.32z" fill="#f0dc5c" stroke="#000" stroke-width="2.833"/>
</svg>
