<?xml version="1.0" encoding="UTF-8"?>
<!DOCTYPE svg  PUBLIC '-//W3C//DTD SVG 1.1//EN'  'http://www.w3.org/Graphics/SVG/1.1/DTD/svg11.dtd'>
<svg enable-background="new 0 0 52.25 54.35" version="1.1" viewBox="0 0 52.25 54.35" xml:space="preserve" xmlns="http://www.w3.org/2000/svg">
<g clip-rule="evenodd" fill-rule="evenodd">
	<path d="m31.45 10.2c0.133 0.033 0.267 0.066 0.399 0.1 0.5 0.2 1.017 0.45 1.551 0.75 0.466-0.2 0.899-0.283 1.3-0.25 0.747 0 1.48 0.25 2.2 0.75 0.049 0.029 0.099 0.063 0.149 0.1h-0.024l-1.825-0.55c-0.533-0.033-0.884-0.05-1.05-0.05l-0.5 0.2 0.699 0.6c0.034 0 0.084 0.05 0.15 0.15-0.134 0-0.283 0.05-0.45 0.15h-0.049c-0.066 0.033-0.134 0.083-0.2 0.15-0.467-0.367-0.916-0.7-1.35-1l-0.35-0.3c-0.433-0.3-0.75-0.433-0.949-0.4-0.301-0.033-0.7 0-1.2 0.1l-0.3 0.1c0.1 0.067 0.199 0.133 0.3 0.2l0.5 0.3 0.149 0.05c0.034 0.066 0.101 0.117 0.2 0.15 0.233 0.167 0.483 0.35 0.75 0.55v0.05c0.367 0.233 0.684 0.517 0.95 0.85-0.167 0.066-0.35 0.133-0.55 0.2l-0.4-0.3c-0.866-0.733-1.55-1.25-2.05-1.55-0.1-0.066-0.217-0.133-0.35-0.2-0.7-0.4-1.384-0.517-2.051-0.35l0.601-0.25c0.467-0.133 1.083-0.017 1.85 0.35l0.05-0.05c0.233-0.233 0.567-0.383 1-0.45 0.334-0.1 0.617-0.15 0.85-0.15zm6.65 0.65l1.5-0.35v0.2c-0.1 0.233-0.333 0.45-0.699 0.65-0.367 0.167-0.767 0.267-1.2 0.3-0.334 0.033-0.45-0.05-0.351-0.25 0.1-0.2 0.35-0.383 0.75-0.55zm-14.15 2.15c0.667-0.133 1.033-0.017 1.1 0.35 0.034 0.2-0.033 0.417-0.2 0.65-0.1 0.167-0.2 0.25-0.3 0.25-0.167-0.033-0.316-0.05-0.45-0.05-0.533 0.033-0.85-0.067-0.95-0.3-0.133-0.267 0.1-0.55 0.7-0.85l0.1-0.05zm1.15 3.45c0.233-0.2 0.367-0.184 0.4 0.05 0.033 0.2-0.05 0.333-0.25 0.4-0.167 0.033-0.25 0-0.25-0.1 0-0.133 0.033-0.25 0.1-0.35zm-0.3 3.75c0.5-0.434 0.75-0.45 0.75-0.05-0.167 0.033-0.433 0.233-0.8 0.6-0.2 0.133-0.267 0.117-0.2-0.05 0.033-0.2 0.117-0.367 0.25-0.5zm12-4.7c-0.6-0.767-1.217-1.45-1.85-2.05 0.066-0.167 0.116-0.284 0.149-0.35 0-0.133 0.034-0.25 0.101-0.35 0.066 0.133 0.149 0.25 0.25 0.35l1.399 2.3c0 0.033 0.017 0.083 0.051 0.15l-0.1-0.05zm-2.3 0.15l-0.15-0.1-0.05-0.05-0.4-0.45c0.033-0.1 0.066-0.183 0.1-0.25l0.35 0.5c0.034 0.133 0.084 0.25 0.15 0.35z" fill="#FBF9F4"/>
		<linearGradient id="i" x1="-34.389" x2="-24.301" y1="24.427" y2="24.427" gradientTransform="matrix(-.4263 -.9046 .8947 -.4473 .00016308 .00013745)" gradientUnits="userSpaceOnUse">
		<stop stop-color="#988F7D" offset="0"/>
		<stop stop-color="#C7C2B8" offset=".3569"/>
		<stop stop-color="#DAD9D6" offset=".9922"/>
	</linearGradient>
	<path d="m29.6 10.8c0.164-0.175 0.397-0.309 0.7-0.4 0.434-0.167 0.816-0.233 1.15-0.2-0.233 0-0.517 0.05-0.851 0.15-0.432 0.067-0.766 0.217-0.999 0.45zm1.95 1.25c0.268 0.119 0.51 0.269 0.726 0.45-0.192-0.15-0.434-0.283-0.726-0.4v-0.05zm-1.1-0.75l-0.5-0.3c-0.101-0.067-0.2-0.133-0.3-0.2l0.3-0.1c0.5-0.1 0.899-0.133 1.2-0.1 0.199-0.033 0.517 0.1 0.949 0.4-0.166-0.033-0.366 0-0.6 0.1-0.366 0.167-0.566 0.25-0.6 0.25l-0.449-0.05zm2.5 1.4c-0.2-0.167-0.434-0.35-0.7-0.55 0.233-0.167 0.35-0.316 0.35-0.45 0.067-0.067 0.017-0.2-0.149-0.4 0.434 0.3 0.883 0.633 1.35 1-0.268 0.133-0.551 0.267-0.851 0.4zm2 0.75c0.633 0.6 1.25 1.283 1.85 2.05 0.233 0.767 0.283 1.317 0.15 1.65-0.167 0.3-0.45 0.233-0.851-0.2l0.101-0.1c0.2-0.267 0.283-0.467 0.25-0.6 0.066-0.1 0.05-0.283-0.05-0.55-0.067-0.267-0.15-0.434-0.25-0.5-0.233-0.2-0.617-0.167-1.15 0.1-0.2-0.333-0.4-0.65-0.6-0.95 0.234-0.4 0.416-0.7 0.55-0.9z" fill="url(#i)"/>
	<path d="m32.95 12.7c-0.101 0.033-0.184 0.066-0.25 0.1l-0.425-0.3c-0.216-0.181-0.458-0.331-0.726-0.45-0.267-0.2-0.517-0.383-0.75-0.55-0.1-0.033-0.166-0.083-0.2-0.15l-0.149-0.05 0.45 0.05c0.033 0 0.233-0.083 0.6-0.25 0.233-0.1 0.434-0.133 0.6-0.1l0.351 0.3c0.166 0.2 0.217 0.333 0.149 0.4 0 0.133-0.116 0.283-0.35 0.45 0.267 0.2 0.5 0.383 0.7 0.55zm-1.65 5.45l0.55 1.25c-0.267 0.367-0.683 0.7-1.25 1-1.233 0.7-2.433 0-3.6-2.1-0.3-0.633-0.483-1.25-0.55-1.85-0.033-0.2-0.033-0.367 0-0.5 0 0.1 0.017 0.216 0.05 0.35-0.033-0.267-0.017-0.517 0.05-0.75 0.066 0.6 0.25 1.167 0.55 1.7 0.334 0.667 0.667 0.983 1 0.95 0.4 0.033 1.233-0.517 2.5-1.65 0.067-0.066 0.117-0.117 0.15-0.15s0.083-0.083 0.15-0.15c0.066-0.1 0.199-0.217 0.399-0.35 0.334-0.3 0.867-0.816 1.601-1.55 0-0.067 0.05-0.117 0.149-0.15 0.033-0.067 0.101-0.133 0.2-0.2 0.033-0.033 0.083-0.067 0.15-0.1 0.033-0.066 0.083-0.133 0.149-0.2 0.033-0.067 0.084-0.133 0.15-0.2 0.267-0.333 0.416-0.6 0.45-0.8 0.033-0.2 0-0.383-0.101-0.55 0.167-0.1 0.316-0.15 0.45-0.15-0.066-0.1-0.116-0.15-0.15-0.15l-0.699-0.6c0.366 0.233 0.683 0.467 0.949 0.7 0.101-0.034 0.184-0.017 0.25 0.05 0.05 0 0.1 0.017 0.15 0.05-0.033 0.067-0.05 0.167-0.05 0.3v0.1c-0.066 0.2-0.184 0.417-0.351 0.65-0.133 0.233-0.333 0.483-0.6 0.75-0.1 0.066-0.167 0.15-0.2 0.25-0.066 0.066-0.116 0.133-0.149 0.2-0.101 0.1-0.184 0.2-0.25 0.3-0.134 0.066-0.233 0.15-0.301 0.25-0.033 0.033-0.05 0.066-0.05 0.1-0.566 0.633-1.066 1.167-1.5 1.6-0.133 0.133-0.25 0.267-0.35 0.4-0.101 0.066-0.184 0.15-0.25 0.25l-0.05 0.1h-0.046c-0.733 0.833-1.383 1.383-1.949 1.65-0.301 0.133-0.617 0.117-0.95-0.05l-0.05-0.05-0.101-0.05c-0.566-0.533-0.95-1.1-1.149-1.7 0.199 0.9 0.6 1.6 1.199 2.1 0.767 0.8 1.517 1 2.25 0.6l0.301-0.15c0.1-0.033 0.3-0.1 0.6-0.2 0.3-0.2 0.384-0.567 0.25-1.1-0.033-0.033-0.05-0.067-0.05-0.1 0.032-0.033 0.066-0.067 0.099-0.1zm3.6-6.9c-0.134 0.133-0.317 0.217-0.551 0.25-0.133-0.133-0.05-0.267 0.25-0.4l0.301 0.15zm2 0.3c-0.106-0.091-0.206-0.175-0.301-0.25l-0.05-0.1c0.267 0.033 0.65 0.267 1.15 0.7 0.434 0.4 0.733 0.583 0.899 0.55 0.2-0.034 0.45-0.25 0.75-0.65 0.4-0.466 0.617-0.9 0.65-1.3 0.134 0.1 0.233 0.317 0.3 0.65l-0.1 0.3c-0.066 0.466-0.334 0.917-0.8 1.35-0.4 0.367-0.667 0.483-0.801 0.35-0.066-0.167-0.283-0.4-0.649-0.7-0.233-0.233-0.5-0.467-0.8-0.7-0.047-0.039-0.089-0.072-0.125-0.1h0.024c-0.048-0.037-0.098-0.071-0.147-0.1zm-5.4 0.05l0.1 0.3 0.1 0.1 0.05 0.1h0.15c0.133 0 0.233-0.05 0.3-0.15-0.101-0.3-0.184-0.45-0.25-0.45-0.033-0.033-0.183 0-0.45 0.1zm-8 0.35c-0.167 0-0.333-0.034-0.5-0.1-0.167-0.033-0.283-0.083-0.35-0.15-0.267-0.1-0.5-0.267-0.7-0.5-0.1-0.133-0.167-0.25-0.2-0.35-0.067-0.033-0.1-0.083-0.1-0.15-0.033-0.233 0.017-0.467 0.15-0.7 0.034-0.033 0.05-0.067 0.05-0.1l0.1-0.25c0 0.033 0.017 0.066 0.05 0.1 0 0.2 0.033 0.4 0.1 0.6 0.033 0.2 0.1 0.383 0.2 0.55 0 0.033 0.034 0.05 0.1 0.05 0.033 0.066 0.067 0.15 0.1 0.25 0.067 0 0.117 0.017 0.15 0.05 0.167 0.033 0.333 0.017 0.5-0.05 0.3-0.067 0.6-0.3 0.9-0.7 0.034-0.133 0.117-0.283 0.25-0.45 0.133-0.267 0.233-0.566 0.3-0.9 0.4-1.2 0.583-2.617 0.55-4.25 0-1.733-0.117-3.1-0.35-4.1 0.167-0.333 0.333-0.5 0.5-0.5 0.1 0.2 0.2 1.034 0.3 2.5 0.233 3.633 0.233 6 0 7.1-0.033 0.033-0.05 0.067-0.05 0.1-0.133 0.5-0.417 0.933-0.85 1.3-0.333 0.333-0.667 0.55-1 0.65h-0.2zm-14.5 21.55c0.333-0.333 0.683-0.684 1.05-1.05 2.034-1.934 3.667-3.967 4.9-6.1 0.667-1.167 1.316-2.65 1.95-4.45 0.233-0.6 0.633-1.85 1.2-3.75 0.533-1.767 1-3.066 1.4-3.9 0.367-0.933 0.833-1.883 1.4-2.85 0.233-0.3 0.434-0.483 0.6-0.55h0.25c0 0.066 0.033 0.15 0.1 0.25-0.1 0.233-0.117 0.45-0.05 0.65l0.1 0.35 0.4 0.05c-0.066 0.1-0.15 0.15-0.25 0.15-0.233-0.033-0.517 0.2-0.85 0.7-0.367 0.467-0.583 0.883-0.65 1.25-0.033 0.3 0.017 0.717 0.15 1.25 0.1 0.2 0.183 0.4 0.25 0.6-0.167-0.233-0.417-0.333-0.75-0.3-0.3-0.033-0.583 0.4-0.85 1.3-0.233 0.833-0.3 1.5-0.2 2 0.1 0.4 0 0.783-0.3 1.15l-1.1 1.25c-0.333 0.4-0.55 1.033-0.65 1.9-0.1 1-0.267 1.7-0.5 2.1-0.9 1.733-2.383 3.566-4.45 5.5-0.5 0.566-1.233 1.184-2.2 1.85-0.1 0.067-0.417 0.284-0.95 0.65zm17.1-23l0.051-0.1 0.399 0.5-0.1 0.35c-0.134 0.367-0.267 0.6-0.4 0.7-0.1 0.133-0.3 0.216-0.6 0.25 0.167-0.067 0.333-0.233 0.5-0.5 0.234-0.4 0.283-0.8 0.15-1.2zm1.4 1.45c-0.233-0.367-0.5-0.7-0.8-1l0.899 0.6c0.467-0.167 0.817-0.167 1.051 0 0.199 0.233 0.3 0.434 0.3 0.6 0 0.067-0.05 0.184-0.15 0.35l1.05 1.05 0.301-0.1c0.033 0 0.066-0.017 0.1-0.05 0.667-0.3 1.134-0.35 1.4-0.15h0.05c-0.334 0.133-0.7 0.283-1.101 0.45-0.267 0.167-0.533 0.3-0.8 0.4-0.066-0.1-0.149-0.217-0.25-0.35-0.333-0.4-0.649-0.733-0.95-1l-0.35-0.25c0.233-0.167 0.267-0.333 0.1-0.5-0.066-0.1-0.183-0.133-0.35-0.1-0.134 0.033-0.217 0.1-0.25 0.2l-0.25-0.15zm-7.1 5.9c-0.033 0.033-0.066 0.05-0.1 0.05-0.433 0.133-0.633 0.033-0.6-0.3 0.033-0.367 0.2-0.617 0.5-0.75 0.066-0.033 0.133-0.05 0.2-0.05-0.033 0.367-0.033 0.717 0 1.05zm2.55-1c0.033-0.434 0.133-0.767 0.3-1 0.467-0.434 0.767-0.317 0.9 0.35 0.067 0.233 0.017 0.483-0.15 0.75s-0.417 0.433-0.75 0.5c-0.267 0.067-0.367-0.133-0.3-0.6zm2.35 1.2c-0.066-0.1-0.267-0.066-0.6 0.1-0.233 0.1-0.383 0.267-0.45 0.5-0.033 0.267 0.05 0.4 0.25 0.4 0.2-0.033 0.317-0.1 0.35-0.2 0.066-0.2 0.15-0.333 0.25-0.4 0.2-0.2 0.267-0.333 0.2-0.4zm-1.7-1.6c-0.167 0.066-0.283 0.167-0.35 0.3-0.067 0.167 0 0.233 0.2 0.2 0.167-0.067 0.316-0.2 0.45-0.4 0.133-0.2 0.033-0.233-0.3-0.1zm-1.2 8.2c-0.5 0.1-0.717-0.117-0.65-0.65 0.1-0.5 0.333-0.867 0.7-1.1 1.367-0.767 2.017-0.583 1.95 0.55-0.1 0.533-0.767 0.933-2 1.2zm0.3-3.85c-0.2 0.267-0.483 0.483-0.85 0.65l-0.2 0.1c-0.167 0.034-0.25-0.167-0.25-0.6-0.066-0.534 0.017-0.85 0.25-0.95l0.35-0.25c0.467-0.233 0.783-0.15 0.95 0.25 0.067 0.267-0.017 0.533-0.25 0.8zm1.65-1.2c-0.434 0.1-0.617-0.117-0.55-0.65 0.1-0.534 0.417-0.983 0.95-1.35 0.633-0.5 1.033-0.184 1.2 0.95-0.3 0.567-0.833 0.917-1.6 1.05zm2.15 1.4c-0.467 0.1-0.633 0.3-0.5 0.6 0.033 0.133 0.116 0.283 0.25 0.45-0.1-0.233 0.066-0.45 0.5-0.65 0.2-0.066 0.417-0.133 0.65-0.2 0.067-0.3-0.233-0.367-0.9-0.2zm-4.1 2.7c-0.066 0.267 0.033 0.4 0.3 0.4 0.233 0 0.367-0.05 0.4-0.15 0.033-0.2 0.083-0.317 0.15-0.35 0.233-0.133 0.35-0.283 0.35-0.45-0.033-0.167-0.217-0.167-0.55 0-0.333 0.133-0.55 0.317-0.65 0.55zm9.6-3.95v-0.05c0.082 0.22 0.165 0.437 0.25 0.65 0.323 0.891 0.606 1.674 0.85 2.35 0.067 0.867-0.216 1.583-0.85 2.15-0.366 0.4-1.283 1.017-2.75 1.85-1.1 0.633-2.616 1.183-4.55 1.649-2.833 0.733-4.517 1.2-5.05 1.4-1.167 0.366-2.433 1.1-3.8 2.2-0.467 0.333-1.233 0.983-2.3 1.95-0.233 0.166-0.45 0.366-0.65 0.6-0.066 0.033-0.117 0.066-0.15 0.1h0.05c-0.4 0.334-0.783 0.667-1.15 1-2.033 1.934-3.217 3.034-3.55 3.301-0.434 0.399-0.733 0.649-0.9 0.75-0.367 0.166-0.733 0.15-1.1-0.05-0.6-0.267-1.317-0.366-2.15-0.3h-0.45l1 0.25c0.733 0.267 1.183 0.667 1.35 1.2 0.097 0.517 0.097 1.017 0 1.5v0.05h-0.05l-0.15 0.2h-0.05c-0.6 0.467-1.267 0.75-2 0.85 0.633-0.166 1.083-0.45 1.35-0.85 0.333-0.533 0.383-1.083 0.15-1.65-0.333-0.8-0.917-1.3-1.75-1.5l-0.1 0.05c-0.267-0.167-0.483-0.267-0.65-0.301h-0.25c0.367-0.199 0.8-0.399 1.3-0.599 0.333-0.066 0.767-0.05 1.3 0.05 0.533 0.134 0.95 0.15 1.25 0.05 0.333-0.166 0.933-0.699 1.8-1.6 1.567-1.467 2.433-2.3 2.6-2.5 0.967-0.866 2.066-1.8 3.3-2.8-0.367 0.066-0.433-0.134-0.2-0.601 0.133-0.433 0.35-0.733 0.65-0.899 0.867-0.334 1.217-0.25 1.05 0.25 2.033-1.767 3.55-2.8 4.55-3.1 0.267-0.033 0.6-0.117 1-0.25 0.066-0.067 0.183-0.167 0.35-0.3 0.434-0.3 0.9-0.433 1.4-0.4 0.767-0.4 1.417-0.816 1.95-1.25l0.95-0.85-0.1 1.1 0.3-0.1c-0.167-0.3-0.066-0.583 0.3-0.85 0.167-0.133 0.584-0.317 1.25-0.55 0.767-0.267 1.217-0.117 1.351 0.45 0.733-0.3 1.399-0.817 2-1.55 0.688-0.886 1.038-1.903 1.049-3.05zm-6.45 1.25c0.267-0.3 0.584-0.5 0.95-0.6 0.934-0.133 1.4 0.1 1.4 0.7 0.033 0.566-0.267 0.95-0.9 1.15-0.934 0.3-1.517 0.117-1.75-0.55-0.1-0.2 0-0.433 0.3-0.7zm3 3.55c-0.033-0.333-0.233-0.45-0.6-0.35-0.367 0.066-0.783 0.283-1.25 0.65-0.3 0.3-0.3 0.55 0 0.75 0.1 0.033 0.267 0.066 0.5 0.1-0.233-0.233-0.05-0.383 0.55-0.45 0.3-0.067 0.6-0.1 0.9-0.1l-0.1-0.6zm9.05-7.2c0.067 0.267 0.117 0.483 0.15 0.65l0.05 0.05c-0.015 0.022-0.031 0.047-0.05 0.075-0.033 0.065-0.05 0.123-0.05 0.175l-0.351 0.5h-0.049c-0.033 0.067-0.066 0.117-0.1 0.15-0.334 0.133-0.634 0.033-0.9-0.3-0.166-0.3-0.583-1.066-1.25-2.3-0.366-0.667-0.684-1.217-0.95-1.65 0.067-0.133 0.167-0.25 0.301-0.35 0.199 0.3 0.399 0.617 0.6 0.95 0.533-0.267 0.917-0.3 1.15-0.1 0.1 0.066 0.183 0.233 0.25 0.5 0.1 0.267 0.116 0.45 0.05 0.55 0.033 0.133-0.05 0.333-0.25 0.6l-0.101 0.1c0.4 0.433 0.684 0.5 0.851 0.2 0.133-0.333 0.083-0.883-0.15-1.65l0.101 0.05c0.133 0.3 0.25 0.567 0.35 0.8l0.1 0.25c0.098 0.3 0.181 0.55 0.248 0.75zm-1.35-1.45c0-0.066-0.017-0.1-0.05-0.1-0.033-0.033-0.101-0.083-0.2-0.15l-0.35 0.15c-0.167 0.067-0.267 0.167-0.301 0.3-0.033 0.2 0 0.367 0.101 0.5 0.467-0.167 0.733-0.283 0.8-0.35-0.1 0.033-0.184 0.017-0.25-0.05-0.1-0.067-0.05-0.133 0.15-0.2l0.1-0.1zm-1.75-0.25l1.25 3.35c0.2 1 0 1.817-0.6 2.45v0.05c-0.434 0.4-0.834 0.567-1.2 0.5-0.3-0.167-0.634-0.567-1-1.2l-1.35-3.05c0.101-0.133 0.233-0.267 0.4-0.4 0.033 0.066 0.083 0.133 0.15 0.2l0.25-0.25v-0.05c0.899-0.3 1.416-0.367 1.55-0.2l0.15 0.45c0.101 0.333 0.017 0.633-0.25 0.9-0.233 0.2-0.416 0.367-0.55 0.5-0.133 0.067-0.233 0.117-0.3 0.15 0.333 0.367 0.616 0.65 0.85 0.85 0.4 0.267 0.684 0.1 0.851-0.5 0.3-1.066 0.184-2.35-0.351-3.85l0.15 0.1zm-1.95 2h-0.05c-0.2 0.2-0.233 0.417-0.1 0.65 0.1 0.233 0.267 0.317 0.5 0.25-0.067-0.167-0.084-0.3-0.051-0.4 0.034-0.066 0.067-0.133 0.101-0.2 0.133-0.133 0.366-0.167 0.7-0.1 0.033-0.367-0.15-0.517-0.551-0.45-0.099 0-0.283 0.083-0.549 0.25zm-16.6-4.95l-0.05-0.2c-0.015-0.051-0.031-0.101-0.05-0.15 0.367 0 0.633-0.233 0.8-0.7 0.167-0.5 0.1-1.05-0.2-1.65-0.6-1.167-1.367-1.817-2.3-1.95 0.033-0.033 0.067-0.05 0.1-0.05 0.067-0.033 0.167-0.05 0.3-0.05 0.9 0.433 1.667 1.066 2.3 1.9 0.6 0.733 0.95 1.267 1.05 1.6 0.067 0.333-0.1 0.6-0.5 0.8-0.367 0.167-0.833 0.317-1.4 0.45h-0.05zm1.65 10.6c-0.333-0.033-0.4-0.267-0.2-0.7 0.167-0.4 0.4-0.65 0.7-0.75 0.433-0.1 0.55 0.133 0.35 0.7-0.233 0.533-0.517 0.783-0.85 0.75zm0.15-0.25c0.433-0.066 0.567-0.3 0.4-0.7l-0.4 0.3c-0.067 0.167-0.067 0.3 0 0.4zm0.7 2.95c-0.067-0.1-0.15-0.133-0.25-0.1-0.7 0.233-0.917 0.483-0.65 0.75 0.267 0.167 0.45 0.167 0.55 0-0.033-0.033-0.05-0.066-0.05-0.1 0.034-0.066 0.117-0.15 0.25-0.25 0.167-0.067 0.217-0.167 0.15-0.3zm0.45-0.95c0.067 0.067 0.117 0.3 0.15 0.7 0.267 0.667-0.267 1.133-1.6 1.4-0.7 0.167-0.9-0.066-0.6-0.7 0.233-0.567 0.55-0.967 0.95-1.2 0.6-0.333 0.967-0.4 1.1-0.2zm-3.9 5.75c0.067-0.133-0.05-0.149-0.35-0.05-0.167 0.066-0.3 0.233-0.4 0.5-0.067 0.267 0.033 0.3 0.3 0.1 0.067-0.066 0.133-0.1 0.2-0.1 0.033-0.066 0.067-0.1 0.1-0.1 0.067-0.1 0.117-0.216 0.15-0.35zm8.15-3.3v-0.1c0.033-0.533-0.283-0.683-0.95-0.45-0.333 0.167-0.583 0.383-0.75 0.65-0.167 0.333-0.067 0.534 0.3 0.6h0.15c0.3-0.033 0.483-0.084 0.55-0.15 0-0.033-0.017-0.083-0.05-0.15-0.033-0.1-0.017-0.183 0.05-0.25 0.2-0.1 0.383-0.15 0.55-0.15h0.15z" fill="#B4AC94"/>
	<path d="m31.55 12.1c0.292 0.117 0.533 0.25 0.726 0.4l0.425 0.3c-0.101 0.034-0.167 0.083-0.2 0.15-0.268-0.333-0.584-0.617-0.951-0.85zm3.35-0.85l-0.3-0.15c-0.3 0.133-0.383 0.267-0.25 0.4 0.233-0.033 0.417-0.117 0.55-0.25zm-3.6 6.9c-0.033 0.033-0.066 0.067-0.1 0.1 0 0.033 0.017 0.067 0.05 0.1 0.134 0.533 0.05 0.9-0.25 1.1-0.3 0.1-0.5 0.167-0.6 0.2l-0.3 0.15c-0.733 0.4-1.483 0.2-2.25-0.6-0.6-0.5-1-1.2-1.199-2.1 0.199 0.6 0.583 1.167 1.149 1.7l0.101 0.05 0.05 0.05c0.333 0.167 0.649 0.184 0.95 0.05 0.566-0.267 1.216-0.817 1.949-1.65h0.05l0.05-0.1c0.066-0.1 0.149-0.184 0.25-0.25 0.1-0.133 0.217-0.267 0.35-0.4 0.434-0.433 0.934-0.966 1.5-1.6 0-0.034 0.017-0.067 0.05-0.1 0.067-0.1 0.167-0.184 0.301-0.25 0.066-0.1 0.149-0.2 0.25-0.3 0.033-0.066 0.083-0.133 0.149-0.2 0.033-0.1 0.101-0.184 0.2-0.25 0.267-0.267 0.467-0.517 0.6-0.75 0.167-0.233 0.284-0.45 0.351-0.65v-0.1c0-0.133 0.017-0.233 0.05-0.3-0.052-0.033-0.102-0.05-0.151-0.05-0.066-0.067-0.149-0.083-0.25-0.05-0.267-0.233-0.583-0.467-0.949-0.7l0.5-0.2c0.166 0 0.517 0.017 1.05 0.05l1.825 0.55c0.036 0.028 0.078 0.062 0.125 0.1 0.3 0.233 0.566 0.467 0.8 0.7 0.366 0.3 0.583 0.533 0.649 0.7 0.134 0.133 0.4 0.017 0.801-0.35 0.466-0.433 0.733-0.883 0.8-1.35-0.033 0.533-0.351 1.316-0.95 2.35-0.023 0.047-0.048 0.097-0.075 0.15-0.026 0.021-0.052 0.046-0.075 0.075v0.025c-0.077 0.133-0.16 0.266-0.25 0.4l-0.149 0.3c-0.033-0.2-0.066-0.383-0.101-0.55l0.051 0.95c-0.134 0.533-0.367 0.867-0.7 1-0.334 0.133-0.584 0.05-0.75-0.25-0.101-0.2-0.217-0.367-0.351-0.5l-1.399-2.3c-0.101-0.1-0.184-0.217-0.25-0.35-0.066 0.1-0.101 0.217-0.101 0.35-0.033 0.066-0.083 0.183-0.149 0.35-0.134 0.2-0.316 0.5-0.55 0.9-0.134 0.1-0.233 0.217-0.301 0.35 0.267 0.433 0.584 0.983 0.95 1.65 0.667 1.233 1.084 2 1.25 2.3 0.267 0.333 0.566 0.434 0.9 0.3 0.033-0.034 0.066-0.083 0.1-0.15h0.05l0.351-0.5c0-0.052 0.017-0.11 0.05-0.175 0.033 0.284 0.05 0.56 0.05 0.825 0 0.033-0.017 0.083-0.05 0.15 0 0.167-0.05 0.35-0.15 0.55v0.1c-0.033 0.1-0.083 0.167-0.149 0.2v0.1c-0.032 0.022-0.066 0.039-0.101 0.05-0.454 0.237-0.838-0.096-1.149-1-0.167-0.4-0.5-1-1-1.8-0.033-0.1-0.066-0.183-0.101-0.25-0.166-0.5-0.366-0.966-0.6-1.4-0.066-0.1-0.116-0.217-0.15-0.35l-0.352-0.5c-0.033 0.067-0.066 0.15-0.1 0.25-0.334 0.367-0.684 0.767-1.051 1.2-0.1 0.1-0.183 0.217-0.25 0.35-0.233 0.267-0.433 0.517-0.6 0.75-0.167 0.133-0.3 0.267-0.4 0.4l1.351 3.05c0.366 0.633 0.7 1.034 1 1.2 0.366 0.067 0.767-0.1 1.2-0.5v-0.05c0.6-0.633 0.8-1.45 0.6-2.45 0.167 0.567 0.283 1.05 0.35 1.45v0.5c0 0.066 0.017 0.15 0.051 0.25-0.101 0.833-0.784 1.433-2.051 1.8-0.3 0.067-0.55-0.133-0.75-0.6-0.366-0.933-0.699-1.783-1-2.55-0.233-0.5-0.55-1.117-0.949-1.85-0.034 0.033-0.067 0.067-0.101 0.1v0.05zm0.2-6.55c0.267-0.1 0.417-0.133 0.45-0.1 0.066 0 0.149 0.15 0.25 0.45-0.066 0.1-0.167 0.15-0.3 0.15h-0.15l-0.05-0.1-0.1-0.1-0.1-0.3zm-5.4-1.25c0.032 0.033 0.032 0.083 0 0.15 0.134 0.4 0.084 0.8-0.149 1.2-0.167 0.267-0.333 0.433-0.5 0.5-0.367 0.133-0.883 0.183-1.55 0.15l-0.55-0.05-0.2-0.05-0.85-0.1-0.4-0.05-0.1-0.35c-0.066-0.2-0.05-0.417 0.05-0.65 0.1 0.133 0.233 0.267 0.4 0.4 0.1 0.1 0.217 0.183 0.35 0.25 0.1 0.067 0.233 0.117 0.4 0.15 0.167 0.067 0.367 0.1 0.6 0.1h0.05c-0.064-0.032-0.114-0.049-0.15-0.05h0.2c0.333-0.1 0.667-0.317 1-0.65 0.433-0.367 0.716-0.8 0.85-1.3 0-0.033 0.017-0.067 0.05-0.1 0.233-1.1 0.233-3.467 0-7.1-0.1-1.466-0.2-2.3-0.3-2.5h0.1c0.133 0.067 0.267 0.267 0.4 0.6v0.05c0.199 0.533 0.349 1.983 0.449 4.35 0.134 2.333 0.15 3.684 0.05 4.05v0.3c-0.033 0.3-0.1 0.533-0.2 0.7zm3.15 3.95v-0.05c-0.6-0.867-1.184-1.633-1.75-2.3l0.25 0.15c0.033-0.1 0.116-0.167 0.25-0.2 0.167-0.033 0.283 0 0.35 0.1 0.167 0.167 0.134 0.333-0.1 0.5l0.35 0.25c0.301 0.267 0.617 0.6 0.95 1 0.101 0.133 0.184 0.25 0.25 0.35-0.2 0.067-0.383 0.133-0.55 0.2zm-5.65 2.15c0.333-0.133 0.433-0.1 0.3 0.1s-0.283 0.333-0.45 0.4c-0.2 0.033-0.267-0.034-0.2-0.2 0.067-0.133 0.183-0.233 0.35-0.3zm1.7 1.6c0.067 0.067 0 0.2-0.2 0.4-0.1 0.066-0.184 0.2-0.25 0.4-0.033 0.1-0.15 0.167-0.35 0.2-0.2 0-0.283-0.133-0.25-0.4 0.067-0.233 0.217-0.4 0.45-0.5 0.333-0.167 0.533-0.2 0.6-0.1zm-2.9 5.65c0.1-0.233 0.317-0.417 0.65-0.55 0.333-0.167 0.517-0.167 0.55 0 0 0.167-0.117 0.317-0.35 0.45-0.067 0.033-0.117 0.15-0.15 0.35-0.033 0.1-0.167 0.15-0.4 0.15-0.267 0-0.367-0.133-0.3-0.4zm4.1-2.7c0.667-0.167 0.967-0.1 0.9 0.2-0.233 0.066-0.45 0.133-0.65 0.2-0.434 0.2-0.6 0.417-0.5 0.65-0.134-0.167-0.217-0.316-0.25-0.45-0.133-0.3 0.033-0.5 0.5-0.6zm7.1 3.7c-0.166 0.667-0.5 1.233-1 1.7-0.466 0.434-1.199 0.9-2.199 1.4-0.834 0.434-2.601 0.95-5.3 1.55-3.033 0.801-4.95 1.334-5.75 1.601-1.167 0.434-3.017 1.633-5.55 3.6-0.133 0.066-0.25 0.15-0.35 0.25-0.167 0.134-0.333 0.25-0.5 0.351-0.1 0.1-0.2 0.183-0.3 0.25v0.05c-2.133 1.934-3.867 3.399-5.2 4.399-0.4 0.267-0.667 0.45-0.8 0.551-0.2 0.199-0.267 0.449-0.2 0.75 0.066 0.333 0.033 0.649-0.1 0.949h-0.051l-0.2 0.15c0.097-0.483 0.097-0.983 0-1.5-0.167-0.533-0.617-0.934-1.35-1.2l-1-0.25h0.45c0.833-0.066 1.55 0.033 2.15 0.3 0.367 0.2 0.733 0.217 1.1 0.051 0.167-0.101 0.466-0.351 0.9-0.75 0.333-0.267 1.517-1.367 3.55-3.301 0.367-0.333 0.75-0.666 1.15-1h-0.05c0.033-0.033 0.083-0.066 0.15-0.1 0.2-0.233 0.417-0.434 0.65-0.6 1.067-0.967 1.833-1.617 2.3-1.95 1.367-1.101 2.633-1.834 3.8-2.2 0.533-0.2 2.217-0.667 5.05-1.4 1.934-0.466 3.45-1.016 4.55-1.649 1.467-0.833 2.384-1.45 2.75-1.85 0.634-0.567 0.917-1.283 0.85-2.15l0.2 0.6c0.101 0.434 0.184 0.8 0.25 1.1l0.05 0.25v0.048zm-5.05-0.15l0.101 0.6c-0.301 0-0.601 0.033-0.9 0.1-0.6 0.067-0.783 0.217-0.55 0.45-0.233-0.034-0.4-0.067-0.5-0.1-0.3-0.2-0.3-0.45 0-0.75 0.467-0.367 0.883-0.583 1.25-0.65 0.365-0.1 0.566 0.017 0.599 0.35zm7.7-8.65l-0.1 0.1c-0.2 0.067-0.25 0.133-0.15 0.2 0.066 0.066 0.15 0.083 0.25 0.05-0.066 0.067-0.333 0.183-0.8 0.35-0.101-0.133-0.134-0.3-0.101-0.5 0.034-0.133 0.134-0.233 0.301-0.3l0.35-0.15c0.1 0.067 0.167 0.117 0.2 0.15 0.033 0 0.05 0.033 0.05 0.1zm-3.7 1.75c0.267-0.167 0.45-0.25 0.55-0.25 0.4-0.066 0.584 0.083 0.551 0.45-0.334-0.067-0.567-0.033-0.7 0.1-0.033 0.066-0.066 0.133-0.101 0.2-0.033 0.1-0.017 0.233 0.051 0.4-0.233 0.067-0.4-0.017-0.5-0.25-0.134-0.233-0.101-0.45 0.1-0.65h0.049zm-12.95-5.7c-1.167 0.566-2.35 0.867-3.55 0.9-0.033-0.033-0.066-0.083-0.1-0.15h0.05c0.567-0.133 1.033-0.284 1.4-0.45 0.4-0.2 0.567-0.467 0.5-0.8-0.1-0.333-0.45-0.867-1.05-1.6-0.633-0.833-1.4-1.467-2.3-1.9h0.25c0.034 0.033 0.1 0.066 0.2 0.1 0.4 0.2 1.25 0.867 2.55 2 1.033 0.933 1.717 1.567 2.05 1.9zm-1.85 11.1c-0.067-0.1-0.067-0.233 0-0.4l0.4-0.3c0.167 0.4 0.033 0.633-0.4 0.7zm0.7 2.95c0.066 0.133 0.017 0.233-0.15 0.3-0.133 0.1-0.216 0.184-0.25 0.25 0 0.034 0.017 0.067 0.05 0.1-0.1 0.167-0.283 0.167-0.55 0-0.267-0.267-0.05-0.517 0.65-0.75 0.1-0.033 0.183 0 0.25 0.1zm-3.45 4.8c-0.033 0.134-0.083 0.25-0.15 0.351-0.033 0-0.067 0.033-0.1 0.1-0.067 0-0.133 0.033-0.2 0.1-0.267 0.2-0.367 0.167-0.3-0.1 0.1-0.267 0.233-0.434 0.4-0.5 0.3-0.101 0.417-0.084 0.35 0.049zm-13.35 11.35l0.5 0.35c-0.167-0.9 0.317-1.384 1.45-1.45 0.233 0 0.433 0.017 0.6 0.05l-0.3-0.3c0.167 0.101 0.3 0.233 0.4 0.4v0.8l-0.1 0.1c-0.067 0.1-0.133 0.216-0.2 0.35-0.292 0.194-0.742 0.277-1.35 0.25-0.024-8e-3 -0.05-0.016-0.075-0.025l0.025 0.025c-0.433-0.1-0.75-0.283-0.95-0.55zm21.5-14.65h-0.15c-0.167 0-0.35 0.05-0.55 0.15-0.067 0.067-0.083 0.15-0.05 0.25 0.033 0.067 0.05 0.117 0.05 0.15-0.067 0.066-0.25 0.117-0.55 0.15h-0.15c-0.367-0.066-0.467-0.267-0.3-0.6 0.167-0.267 0.417-0.483 0.75-0.65 0.667-0.233 0.983-0.083 0.95 0.45v0.1z" fill="#8E8772"/>
		<linearGradient id="j" x1="-36.411" x2="-30.935" y1="25.749" y2="25.749" gradientTransform="matrix(-.2511 -.968 .8727 -.6182 .00023419 -.00061643)" gradientUnits="userSpaceOnUse">
		<stop stop-color="#988F7D" offset="0"/>
		<stop stop-color="#C7C2B8" offset=".3569"/>
		<stop stop-color="#DAD9D6" offset=".9922"/>
	</linearGradient>
	<path d="m32.95 12.7c0.3-0.133 0.583-0.267 0.85-0.4 0.066-0.066 0.134-0.117 0.2-0.15h0.05c0.101 0.167 0.134 0.35 0.101 0.55-0.034 0.2-0.184 0.466-0.45 0.8-0.066 0.067-0.117 0.133-0.15 0.2-0.066 0.066-0.116 0.133-0.149 0.2-0.067 0.033-0.117 0.067-0.15 0.1-0.1 0.067-0.167 0.133-0.2 0.2-0.1 0.033-0.149 0.083-0.149 0.15-0.733 0.733-1.267 1.25-1.601 1.55-0.2 0.133-0.333 0.25-0.399 0.35l-0.15 0.15s-0.083 0.083-0.15 0.15c-1.267 1.133-2.1 1.684-2.5 1.65-0.333 0.033-0.666-0.284-1-0.95-0.3-0.533-0.483-1.1-0.55-1.7-0.066 0.233-0.083 0.483-0.05 0.75-0.033-0.133-0.05-0.25-0.05-0.35 0-0.6 0.2-0.917 0.6-0.95 0.334-0.033 1.066-0.267 2.2-0.7 0.167-0.066 0.35-0.133 0.55-0.2 0.267-0.1 0.533-0.233 0.8-0.4 0.4-0.167 0.767-0.317 1.101-0.45 0.066-0.033 0.149-0.067 0.25-0.1 0.2-0.066 0.383-0.133 0.55-0.2 0.033-0.067 0.1-0.117 0.2-0.15 0.063-0.033 0.146-0.067 0.246-0.1zm-2.6 2.4c0.034-0.033 0.067-0.067 0.101-0.1 0.666-0.367 1.217-0.733 1.649-1.1 0.134-0.066 0.25-0.133 0.351-0.2 0-0.034 0.017-0.067 0.05-0.1 0.1-0.1 0.233-0.2 0.4-0.3 0.033-0.066 0.1-0.133 0.199-0.2 0.034-0.033 0.067-0.083 0.101-0.15l0.25-0.45c-0.2 0.1-0.367 0.167-0.5 0.2-0.066 0.033-0.117 0.083-0.15 0.15-0.1 0.033-0.2 0.066-0.3 0.1-0.167 0.1-0.35 0.183-0.55 0.25-0.101 0.033-0.184 0.066-0.25 0.1-0.634 0.3-1.25 0.567-1.851 0.8-0.199 0.066-0.383 0.15-0.55 0.25-0.566 0.2-1.083 0.367-1.55 0.5-0.2 0.267-0.333 0.5-0.4 0.7-0.066 0.3 0.067 0.467 0.4 0.5 0.333 0.133 1.066-0.117 2.2-0.75 0.133-0.067 0.267-0.133 0.4-0.2z" fill="url(#j)"/>
		<linearGradient id="k" x1="-28.115" x2="-23.996" y1="32.756" y2="32.756" gradientTransform="matrix(-.3217 -.9468 .9357 -.3545 .00012475 .00054181)" gradientUnits="userSpaceOnUse">
		<stop stop-color="#988F7D" offset="0"/>
		<stop stop-color="#C7C2B8" offset=".3569"/>
		<stop stop-color="#DAD9D6" offset=".9922"/>
	</linearGradient>
	<path d="m36.5 11.25l0.05-0.05 0.05 0.1c-0.067 0-0.1-0.017-0.1-0.05zm3.1-0.7c0.067-0.033 0.134-0.066 0.2-0.1 0.101 0 0.167 0.017 0.2 0.05-0.033 0.4-0.25 0.833-0.65 1.3-0.3 0.4-0.55 0.617-0.75 0.65-0.166 0.033-0.466-0.15-0.899-0.55-0.5-0.433-0.884-0.667-1.15-0.7 0.434-0.1 0.95-0.217 1.55-0.35-0.399 0.167-0.649 0.35-0.75 0.55-0.1 0.2 0.017 0.283 0.351 0.25 0.434-0.033 0.833-0.133 1.2-0.3 0.366-0.2 0.6-0.417 0.699-0.65v-0.15zm0.7 0.6c0.033 0.467-0.267 1.283-0.899 2.45-0.07 0.111-0.146 0.228-0.226 0.35l0.075-0.15c0.6-1.033 0.917-1.816 0.95-2.35l0.1-0.3z" fill="url(#k)"/>
		<linearGradient id="l" x1="-31.792" x2="-25.597" y1="27.781" y2="27.781" gradientTransform="matrix(-.4277 -.9039 .8961 -.4442 -2.4736e-5 -.00029564)" gradientUnits="userSpaceOnUse">
		<stop stop-color="#988F7D" offset="0"/>
		<stop stop-color="#C7C2B8" offset=".3569"/>
		<stop stop-color="#DAD9D6" offset=".9922"/>
	</linearGradient>
	<path d="m34.7 10.8c0.6-0.033 1.2 0.117 1.8 0.45 0 0.033 0.033 0.05 0.1 0.05 0.095 0.075 0.194 0.159 0.301 0.25-0.72-0.5-1.454-0.75-2.201-0.75zm3.75 5.45c0.1-0.3 0.166-0.667 0.2-1.1l-0.05-0.95c0.034 0.167 0.067 0.35 0.101 0.55-1e-3 0.567-0.085 1.067-0.251 1.5z" fill="url(#l)"/>
		<linearGradient id="m" x1="-28.747" x2="-23.668" y1=".9307" y2=".9307" gradientTransform="matrix(-.9598 -.2806 .2624 -.9652 .00015771 -.00079572)" gradientUnits="userSpaceOnUse">
		<stop stop-color="#988F7D" offset="0"/>
		<stop stop-color="#C7C2B8" offset=".3569"/>
		<stop stop-color="#DAD9D6" offset=".9922"/>
	</linearGradient>
	<path d="m25.3 0.3c-0.167 0-0.333 0.167-0.5 0.5 0.233 1 0.35 2.367 0.35 4.1 0.033 1.633-0.15 3.05-0.55 4.25-0.067 0.333-0.167 0.633-0.3 0.9-0.133 0.167-0.216 0.317-0.25 0.45-0.3 0.4-0.6 0.633-0.9 0.7-0.167 0.066-0.333 0.083-0.5 0.05-0.033-0.033-0.083-0.05-0.15-0.05-0.033-0.1-0.067-0.184-0.1-0.25-0.066 0-0.1-0.017-0.1-0.05-0.1-0.167-0.167-0.35-0.2-0.55-0.067-0.2-0.1-0.4-0.1-0.6-0.032-0.035-0.016-0.102 0.05-0.2 0.3-0.7 0.733-2 1.3-3.9 0.633-2.1 1.05-3.533 1.25-4.3 0.133-0.633 0.3-0.983 0.5-1.05 0.1-0.033 0.2-0.033 0.3 0h-0.1zm-3.45 10.8c-0.067-0.1-0.1-0.184-0.1-0.25 0.033 0.1 0.1 0.217 0.2 0.35 0.2 0.233 0.433 0.4 0.7 0.5 0.067 0.066 0.184 0.117 0.35 0.15 0.167 0.066 0.333 0.1 0.5 0.1 0.036 1e-3 0.085 0.018 0.15 0.05h-0.05c-0.233 0-0.434-0.033-0.6-0.1-0.167-0.033-0.3-0.083-0.4-0.15-0.133-0.067-0.25-0.15-0.35-0.25-0.167-0.133-0.3-0.267-0.4-0.4zm1.3-1.55c1.633-4.867 2.017-6.95 1.15-6.25l-1.75 6.1c0.034 0.2 0.117 0.317 0.25 0.35 0.133 0.067 0.25 0 0.35-0.2z" fill="url(#m)"/>
	<path d="m3.6 39.35c0.267 0.134 0.566 0.334 0.9 0.601l-1.6-0.051c-0.633-0.034-1.133 0.083-1.5 0.35-0.4 0.333-0.55 0.767-0.45 1.3 0.1 0.467 0.45 0.967 1.05 1.5-0.2-0.066-0.367-0.133-0.5-0.2-0.167-0.1-0.3-0.183-0.4-0.25-0.567-0.466-0.684-1.1-0.35-1.899 0-0.066 0.367-0.717 1.1-1.95 0.167-0.333 0.967-1.033 2.4-2.1l0.3-0.2c0.1-0.066 0.2-0.15 0.3-0.25 0.4-0.233 0.767-0.467 1.1-0.7 0.633-0.6 1.316-1.2 2.05-1.8 2.5-2.233 4.25-4.384 5.25-6.45 0.833-1.733 1.817-4.1 2.95-7.1 1.033-2.967 1.833-4.983 2.4-6.05 0.267-0.5 0.55-1 0.85-1.5l0.6-0.9c0.633-0.867 1.267-1.55 1.9-2.05 0-0.033 0.033-0.066 0.1-0.1-0.065 0.099-0.082 0.166-0.05 0.2-0.033-0.034-0.05-0.067-0.05-0.1l-0.1 0.25c-0.267 0.4-0.517 0.8-0.75 1.2-0.1 0.1-0.167 0.2-0.2 0.3-0.566 0.967-1.033 1.917-1.4 2.85-0.4 0.833-0.867 2.133-1.4 3.9-0.567 1.9-0.967 3.15-1.2 3.75-0.633 1.8-1.283 3.283-1.95 4.45-1.233 2.133-2.867 4.167-4.9 6.1-0.367 0.365-0.717 0.716-1.05 1.049-0.2 0.134-0.367 0.267-0.5 0.4 0.033 0.133-0.083 0.416-0.35 0.85-0.4 0.5-0.933 1.017-1.6 1.55-1.033 0.733-2.45 1.667-4.25 2.8h0.55c0.167 0.034 0.383 0.134 0.65 0.301l0.1-0.051zm19.55-29.8c-0.1 0.2-0.217 0.267-0.35 0.2-0.133-0.033-0.216-0.15-0.25-0.35l1.75-6.1c0.867-0.7 0.483 1.383-1.15 6.25zm7.2 5.55c-0.133 0.066-0.267 0.133-0.399 0.2-1.134 0.633-1.867 0.883-2.2 0.75-0.333-0.033-0.467-0.2-0.4-0.5 0.067-0.2 0.2-0.433 0.4-0.7 0.467-0.133 0.983-0.3 1.55-0.5 0.167-0.1 0.351-0.184 0.55-0.25 0.601-0.233 1.217-0.5 1.851-0.8 0.066-0.033 0.149-0.066 0.25-0.1 0.2-0.067 0.383-0.15 0.55-0.25 0.1-0.034 0.2-0.067 0.3-0.1 0.033-0.067 0.084-0.117 0.15-0.15 0.133-0.034 0.3-0.1 0.5-0.2l-0.25 0.45c-0.033 0.066-0.066 0.117-0.101 0.15-0.1 0.066-0.166 0.133-0.199 0.2-0.167 0.1-0.301 0.2-0.4 0.3-0.033 0.033-0.05 0.066-0.05 0.1-0.101 0.066-0.217 0.133-0.351 0.2-0.433 0.367-0.983 0.733-1.649 1.1-0.035 0.033-0.068 0.067-0.102 0.1zm-15.45-5.15c-0.4-0.934-0.5-1.333-0.3-1.2 0.6 0.4 1.066 1.083 1.4 2.05 0.067 0.133 0.083 0.284 0.05 0.45-0.033 0.2-0.117 0.267-0.25 0.2s-0.433-0.567-0.9-1.5zm-10.6 31.25c0.534 0.3 0.567 0.7 0.1 1.2-0.407 0.469-0.99 0.568-1.75 0.3 0.608 0.027 1.058-0.056 1.35-0.25 0.067-0.134 0.133-0.25 0.2-0.351l0.1-0.1v-0.799z" fill="#E6E6E1"/>
	<path d="m21.1 11.1c0.2-0.133 0.383-0.267 0.55-0.4 0 0.066 0.033 0.117 0.1 0.15h-0.25c-0.167 0.066-0.367 0.25-0.6 0.55 0.033-0.1 0.1-0.2 0.2-0.3zm-15.15 24.4c-0.333 0.233-0.7 0.467-1.1 0.7 0-1.9-0.217-3.75-0.65-5.55-1.2-3.034-1.983-5.267-2.35-6.7-0.6-2.5-0.05-5.017 1.65-7.55 1.633-2.4 3.733-3.683 6.3-3.85 1.434-0.066 3.517 0.034 6.25 0.3 1.2-0.033 2.383-0.333 3.55-0.9 0.167-0.067 0.316-0.15 0.45-0.25l-0.6 0.9c-0.934 0.4-1.883 0.633-2.85 0.7-2.6-0.333-4.583-0.45-5.95-0.35-2.467 0.167-4.483 1.433-6.05 3.8-1.6 2.4-2.117 4.8-1.55 7.2 0.367 1.433 1.117 3.617 2.25 6.55 0.4 1.6 0.617 3.267 0.65 5z" fill="#DADAD6"/>
	<path d="m25.55 21c-0.3 0.267-0.4 0.5-0.3 0.7 0.233 0.667 0.816 0.85 1.75 0.55 0.634-0.2 0.934-0.583 0.9-1.15 0-0.6-0.467-0.833-1.4-0.7-0.366 0.1-0.683 0.3-0.95 0.6zm6.45-1.25c-0.011 1.147-0.361 2.164-1.05 3.05-0.601 0.733-1.267 1.25-2 1.55-0.134-0.567-0.584-0.717-1.351-0.45-0.666 0.233-1.083 0.417-1.25 0.55-0.366 0.267-0.466 0.55-0.3 0.85l-0.3 0.1 0.1-1.1-0.95 0.85c-0.533 0.434-1.183 0.85-1.95 1.25-0.5-0.033-0.967 0.1-1.4 0.4-0.167 0.133-0.283 0.233-0.35 0.3-0.4 0.133-0.733 0.217-1 0.25-1 0.3-2.517 1.333-4.55 3.1 0.167-0.5-0.183-0.584-1.05-0.25-0.3 0.166-0.517 0.467-0.65 0.899-0.233 0.467-0.167 0.667 0.2 0.601-1.233 1-2.333 1.934-3.3 2.8-0.167 0.2-1.033 1.033-2.6 2.5-0.867 0.9-1.467 1.434-1.8 1.6-0.3 0.101-0.717 0.084-1.25-0.05-0.534-0.1-0.967-0.116-1.3-0.05-0.5 0.2-0.933 0.4-1.3 0.6h-0.299c1.8-1.133 3.217-2.066 4.25-2.8 0.667-0.533 1.2-1.05 1.6-1.55 0.267-0.434 0.383-0.717 0.35-0.85 0.133-0.134 0.3-0.267 0.5-0.4 0.533-0.366 0.85-0.583 0.95-0.65 0.966-0.666 1.7-1.283 2.2-1.85 2.067-1.934 3.55-3.767 4.45-5.5 0.233-0.4 0.4-1.1 0.5-2.1 0.1-0.867 0.316-1.5 0.65-1.9l1.1-1.25c0.3-0.367 0.4-0.75 0.3-1.15-0.1-0.5-0.033-1.167 0.2-2 0.267-0.9 0.55-1.333 0.85-1.3 0.333-0.033 0.583 0.067 0.75 0.3-0.067-0.2-0.15-0.4-0.25-0.6-0.133-0.533-0.184-0.95-0.15-1.25 0.067-0.367 0.284-0.783 0.65-1.25 0.333-0.5 0.617-0.733 0.85-0.7 0.1 0 0.184-0.05 0.25-0.15l0.85 0.1c-0.033 0.1-0.033 0.183 0 0.25l0.2-0.2 0.55 0.05c0.667 0.033 1.184-0.017 1.55-0.15 0.3-0.034 0.5-0.117 0.6-0.25 0.134-0.1 0.267-0.333 0.4-0.7l0.1-0.35-0.399-0.5-0.051 0.1c0.032-0.066 0.032-0.117 0-0.15 0.018 0.017 0.034 0.034 0.051 0.05 0.152 0.153 0.319 0.32 0.5 0.5l0.05 0.05c0.3 0.3 0.566 0.633 0.8 1 0.566 0.667 1.15 1.433 1.75 2.3v0.05c-1.134 0.434-1.866 0.667-2.2 0.7-0.399 0.033-0.6 0.35-0.6 0.95-0.033 0.133-0.033 0.3 0 0.5 0.066 0.6 0.25 1.216 0.55 1.85 1.167 2.1 2.366 2.8 3.6 2.1 0.567-0.3 0.983-0.633 1.25-1l-0.55-1.25v-0.05c0.134 0.233 0.233 0.467 0.3 0.7 0.088 0.203 0.171 0.402 0.25 0.6 0.049 0.119 0.099 0.236 0.149 0.35zm-5.25-7.8c-0.533 0.633-0.967 0.933-1.3 0.9-0.633-0.333-1.233-0.383-1.8-0.15-0.566 0.267-0.95 0.483-1.15 0.65-0.267 0.2-0.4 0.517-0.4 0.95 0.066 0.867 0.167 1.467 0.3 1.8l0.4-0.65c0.3-0.434 0.633-0.617 1-0.55 0.233 0.067 0.467 0.217 0.7 0.45 0.167 0.133 0.317 0.15 0.45 0.05 0.2-0.1 0.4-0.25 0.6-0.45 0.167-0.2 0.4-0.417 0.7-0.65 0.566-0.433 1.05-0.633 1.45-0.6h0.3c-0.3-0.967-0.566-1.483-0.8-1.55l-0.45-0.2zm-0.5 6l0.45 0.3c-0.134-0.133-0.25-0.333-0.351-0.6-0.233-0.433-0.349-0.817-0.349-1.15l0.15-1.25-0.8 0.75-0.65 0.4c-0.034 0.2-0.083 0.367-0.15 0.5-0.133 0.233-0.35 0.4-0.65 0.5-0.767 0.267-1.167 0.617-1.2 1.05 0.033 0.2 0.15 0.583 0.35 1.15l0.2-0.6c0.133-0.467 0.283-0.767 0.45-0.9 0.167-0.1 0.5-0.333 1-0.7 0.466-0.3 0.767-0.417 0.9-0.35 0.167 0.1 0.283 0.267 0.35 0.5 0.1 0.2 0.2 0.333 0.3 0.4zm-5.85-0.1c-0.033-0.333-0.033-0.684 0-1.05-0.066 0-0.133 0.017-0.2 0.05-0.3 0.133-0.467 0.383-0.5 0.75-0.034 0.333 0.167 0.433 0.6 0.3 0.033 0 0.067-0.017 0.1-0.05zm2.55-1c-0.067 0.467 0.033 0.667 0.3 0.6 0.333-0.067 0.583-0.233 0.75-0.5s0.217-0.517 0.15-0.75c-0.133-0.667-0.433-0.784-0.9-0.35-0.167 0.233-0.267 0.567-0.3 1zm0.05 4.6c-0.3 0.033-0.45 0.083-0.45 0.15l-0.4 0.65 0.6-0.2c0.533-0.1 0.917-0.117 1.15-0.05l0.6 0.1 0.15-0.75c0.2-0.567 0.533-0.934 1-1.1 0.7-0.233 1.35-0.317 1.95-0.25-0.133-0.2-0.383-0.35-0.75-0.45-0.733-0.2-1.5-0.017-2.3 0.55-0.167 0.133-0.3 0.333-0.4 0.6-0.066 0.2-0.2 0.35-0.4 0.45-0.233 0.1-0.483 0.2-0.75 0.3zm1.35-1.85c0.767-0.133 1.3-0.483 1.6-1.05-0.167-1.133-0.567-1.45-1.2-0.95-0.533 0.367-0.85 0.816-0.95 1.35-0.067 0.533 0.117 0.75 0.55 0.65zm-1.65 1.2c0.233-0.267 0.316-0.533 0.25-0.8-0.167-0.4-0.483-0.483-0.95-0.25l-0.35 0.25c-0.233 0.1-0.316 0.417-0.25 0.95 0 0.433 0.083 0.633 0.25 0.6l0.2-0.1c0.367-0.167 0.65-0.383 0.85-0.65zm-0.3 3.85c1.233-0.267 1.9-0.667 2-1.2 0.067-1.133-0.583-1.317-1.95-0.55-0.367 0.233-0.6 0.6-0.7 1.1-0.067 0.533 0.15 0.75 0.65 0.65zm-16.55 17.85c-0.7 0.634-1.483 0.934-2.35 0.9-0.733 0-1.4-0.184-2-0.551 0.133 0.067 0.3 0.134 0.5 0.2-0.6-0.533-0.95-1.033-1.05-1.5-0.1-0.533 0.05-0.967 0.45-1.3 0.367-0.267 0.867-0.384 1.5-0.35l1.6 0.05c-0.333-0.267-0.633-0.467-0.9-0.601 0.833 0.2 1.417 0.7 1.75 1.5 0.233 0.567 0.183 1.117-0.15 1.65-0.267 0.4-0.717 0.684-1.35 0.85 0.733-0.098 1.4-0.381 2-0.848zm26.4-22.15c0.426 1.075 0.775 2.058 1.05 2.95l-0.2-0.6c-0.244-0.676-0.527-1.459-0.85-2.35zm-6.45 3.25c-0.267 0.267-0.383 0.467-0.35 0.6 0.033 0.1 0.033 0.216 0 0.35l0.05-0.05c0.167-0.167 0.417-0.35 0.75-0.55 0.467-0.333 0.884-0.534 1.25-0.6l0.95-0.25c-0.634-0.333-1.217-0.383-1.75-0.15-0.367 0.133-0.667 0.35-0.9 0.65zm-8.2-0.3c0.333 0.034 0.617-0.216 0.85-0.75 0.2-0.566 0.083-0.8-0.35-0.7-0.3 0.1-0.533 0.35-0.7 0.75-0.2 0.433-0.133 0.667 0.2 0.7zm1.3 1.75c-0.133-0.2-0.5-0.133-1.1 0.2-0.4 0.233-0.716 0.633-0.95 1.2-0.3 0.633-0.1 0.867 0.6 0.7 1.333-0.267 1.867-0.733 1.6-1.4-0.033-0.4-0.083-0.633-0.15-0.7zm-6 5.7c-0.1 0.333-0.1 0.6 0 0.8 0.2 0.3 0.35 0.5 0.45 0.601-0.067-0.267-0.083-0.534-0.05-0.801 0.067-0.5 0.317-0.866 0.75-1.1l1.2-0.55c-0.367-0.233-0.933-0.134-1.7 0.3-0.267 0.134-0.483 0.384-0.65 0.75zm-9 10.05c-0.333-0.333-0.85-0.416-1.55-0.25l-0.3 0.101c-0.267 0.099-0.45 0.316-0.55 0.649-0.133 0.367-0.083 0.65 0.15 0.851 0.2 0.267 0.517 0.449 0.95 0.55l-0.025-0.025c0.025 0.01 0.05 0.018 0.075 0.025 0.76 0.269 1.343 0.169 1.75-0.3 0.467-0.5 0.434-0.9-0.1-1.2-0.1-0.168-0.233-0.301-0.4-0.401zm20.2-15.15c0.1-0.167 0.083-0.35-0.05-0.55-0.233-0.167-0.5-0.2-0.8-0.1-0.367 0.133-0.567 0.2-0.6 0.2-0.233 0.1-0.4 0.25-0.5 0.45-0.133 0.167-0.283 0.333-0.45 0.5-0.067 0.067-0.05 0.083 0.05 0.05l2.1-0.4c0.133 0 0.217-0.05 0.25-0.15z" fill="#D3CFC6"/>
		<radialGradient id="n" cx="-32.624" cy="-10.265" r="18.622" gradientTransform="matrix(-.778 -.6283 -.5806 .7706 -12.14 16.113)" gradientUnits="userSpaceOnUse">
		<stop stop-color="#DCCCBD" offset="0"/>
		<stop stop-color="#D8C3B4" offset=".1804"/>
		<stop stop-color="#CDAA9D" offset=".4784"/>
		<stop stop-color="#BD8377" offset=".8549"/>
		<stop stop-color="#B67367" offset="1"/>
	</radialGradient>
	<path d="m23.35 12.3l-0.2 0.2c-0.033-0.067-0.033-0.15 0-0.25l0.2 0.05zm-3.9 0.3c-0.3 0.5-0.583 1-0.85 1.5-0.567 1.066-1.367 3.083-2.4 6.05-1.133 3-2.117 5.367-2.95 7.1-1 2.066-2.75 4.217-5.25 6.45-0.733 0.6-1.417 1.2-2.05 1.8-0.034-1.733-0.25-3.4-0.65-5-1.133-2.933-1.883-5.117-2.25-6.55-0.566-2.4-0.05-4.8 1.55-7.2 1.566-2.367 3.583-3.633 6.05-3.8 1.367-0.1 3.35 0.017 5.95 0.35 0.967-0.067 1.917-0.3 2.85-0.7z" fill="url(#n)"/>
		<linearGradient id="o" x1="-37.234" x2="-24.728" y1="20.034" y2="20.034" gradientTransform="matrix(-.4938 -.8696 .861 -.5089 -.00019258 .00023949)" gradientUnits="userSpaceOnUse">
		<stop stop-color="#988F7D" offset="0"/>
		<stop stop-color="#C7C2B8" offset=".3569"/>
		<stop stop-color="#DAD9D6" offset=".9922"/>
	</linearGradient>
	<path d="m31.95 13.15c-0.101 0.033-0.184 0.067-0.25 0.1h-0.05c-0.267-0.2-0.733-0.15-1.4 0.15-0.033 0.033-0.066 0.05-0.1 0.05l-0.301 0.1-1.049-1.05c0.101-0.167 0.15-0.283 0.15-0.35 0-0.167-0.101-0.367-0.3-0.6-0.233-0.167-0.584-0.167-1.051 0l-0.899-0.6-0.05-0.05c0.3-0.133 0.649-0.267 1.05-0.4l-0.6 0.25 0.2 0.15 0.65-0.1c0.399 0 0.717 0.117 0.95 0.35 0.066 0.033 0.116 0.083 0.149 0.15 0.066 0.167 0.134 0.317 0.2 0.45-0.033 0.067-0.033 0.1 0 0.1 0.033 0.133 0.05 0.283 0.05 0.45l0.3 0.65c0.067 0.167 0.2 0.216 0.4 0.15h0.05c0.066-0.033 0.233-0.167 0.5-0.4 0.367-0.1 0.7-0.05 1 0.15l0.401 0.3zm3.25 4.15c0.233 0.6 0.416 1.167 0.55 1.7l-1.25-3.35c0.233 0.434 0.434 0.9 0.6 1.4 0.034 0.067 0.067 0.15 0.1 0.25zm-0.9-1.8l0.05 0.05c0.534 1.5 0.65 2.784 0.351 3.85-0.167 0.6-0.45 0.767-0.851 0.5-0.233-0.2-0.517-0.483-0.85-0.85 0.066-0.033 0.167-0.083 0.3-0.15 0.134-0.133 0.316-0.3 0.55-0.5 0.267-0.267 0.351-0.566 0.25-0.9l-0.149-0.45c-0.134-0.167-0.65-0.1-1.55 0.2v0.05l-0.25 0.25c-0.067-0.066-0.117-0.133-0.15-0.2 0.167-0.233 0.366-0.483 0.6-0.75l0.551-0.3c0.466-0.233 0.767-0.283 0.899-0.15 0.167 0.1 0.3 0.2 0.4 0.3 0.066 0.033 0.05-0.2-0.05-0.7l-0.101-0.25z" fill="url(#o)"/>
	<path d="m31.55 12.85c-0.3-0.2-0.633-0.25-1-0.15-0.267 0.233-0.434 0.367-0.5 0.4h-0.05c-0.2 0.066-0.333 0.017-0.4-0.15l-0.3-0.65c0-0.167-0.017-0.316-0.05-0.45-0.033 0-0.033-0.033 0-0.1-0.066-0.133-0.134-0.283-0.2-0.45-0.033-0.066-0.083-0.117-0.149-0.15-0.233-0.233-0.551-0.35-0.95-0.35l-0.65 0.1-0.2-0.15c0.667-0.167 1.351-0.05 2.051 0.35 0.133 0.066 0.25 0.133 0.35 0.2 0.498 0.3 1.182 0.817 2.048 1.55zm-4.8-0.9l0.45 0.2c0.233 0.067 0.5 0.583 0.8 1.55h-0.3c-0.4-0.034-0.884 0.167-1.45 0.6-0.3 0.233-0.533 0.45-0.7 0.65-0.2 0.2-0.4 0.35-0.6 0.45-0.133 0.1-0.284 0.083-0.45-0.05-0.233-0.233-0.467-0.383-0.7-0.45-0.367-0.066-0.7 0.117-1 0.55l-0.4 0.65c-0.133-0.333-0.233-0.934-0.3-1.8 0-0.433 0.133-0.75 0.4-0.95 0.2-0.167 0.583-0.383 1.15-0.65 0.567-0.233 1.167-0.184 1.8 0.15 0.333 0.033 0.767-0.267 1.3-0.9zm-0.5 6c-0.1-0.067-0.2-0.2-0.3-0.4-0.067-0.233-0.184-0.4-0.35-0.5-0.133-0.066-0.434 0.05-0.9 0.35-0.5 0.367-0.833 0.6-1 0.7-0.167 0.133-0.317 0.433-0.45 0.9l-0.2 0.6c-0.2-0.567-0.316-0.95-0.35-1.15 0.033-0.434 0.433-0.784 1.2-1.05 0.3-0.1 0.517-0.267 0.65-0.5 0.067-0.133 0.117-0.3 0.15-0.5l0.65-0.4 0.8-0.75-0.15 1.25c0 0.333 0.116 0.717 0.35 1.15 0.101 0.267 0.217 0.467 0.351 0.6l-0.451-0.3zm-2.3-4.95l-0.1 0.05c-0.6 0.3-0.833 0.583-0.7 0.85 0.1 0.233 0.417 0.333 0.95 0.3 0.133 0 0.283 0.017 0.45 0.05 0.1 0 0.2-0.083 0.3-0.25 0.167-0.233 0.233-0.45 0.2-0.65-0.067-0.367-0.433-0.483-1.1-0.35zm1.15 3.45c-0.067 0.1-0.1 0.216-0.1 0.35 0 0.1 0.083 0.133 0.25 0.1 0.2-0.066 0.283-0.2 0.25-0.4-0.033-0.233-0.167-0.25-0.4-0.05zm-2.1 5c0.267-0.1 0.517-0.2 0.75-0.3 0.2-0.1 0.333-0.25 0.4-0.45 0.1-0.267 0.233-0.467 0.4-0.6 0.8-0.567 1.566-0.75 2.3-0.55 0.367 0.1 0.617 0.25 0.75 0.45-0.6-0.067-1.25 0.017-1.95 0.25-0.467 0.167-0.8 0.533-1 1.1l-0.15 0.75-0.6-0.1c-0.233-0.067-0.617-0.05-1.15 0.05l-0.6 0.2 0.4-0.65c0-0.067 0.15-0.117 0.45-0.15zm1.8-1.25c-0.133 0.133-0.216 0.3-0.25 0.5-0.066 0.167 0 0.183 0.2 0.05 0.367-0.367 0.633-0.567 0.8-0.6 0-0.4-0.25-0.383-0.75 0.05zm1 3.4c0.233-0.3 0.533-0.517 0.9-0.65 0.533-0.233 1.116-0.184 1.75 0.15l-0.95 0.25c-0.366 0.066-0.783 0.267-1.25 0.6-0.333 0.2-0.583 0.383-0.75 0.55l-0.05 0.05c0.033-0.133 0.033-0.25 0-0.35-0.033-0.133 0.083-0.333 0.35-0.6zm8.1-8.55l0.4 0.45 0.101 0.25c0.1 0.5 0.116 0.733 0.05 0.7-0.101-0.1-0.233-0.2-0.4-0.3-0.133-0.133-0.434-0.083-0.899 0.15l-0.552 0.3c0.067-0.133 0.15-0.25 0.25-0.35 0.367-0.433 0.716-0.833 1.05-1.2zm-21 15.7c0.167-0.366 0.383-0.616 0.65-0.75 0.767-0.434 1.333-0.533 1.7-0.3l-1.2 0.55c-0.433 0.233-0.683 0.6-0.75 1.1-0.033 0.267-0.017 0.534 0.05 0.801-0.1-0.101-0.25-0.301-0.45-0.601-0.1-0.2-0.1-0.467 0-0.8zm11.2-5.1c-0.033 0.1-0.117 0.15-0.25 0.15l-2.1 0.4c-0.1 0.033-0.117 0.017-0.05-0.05 0.167-0.167 0.316-0.333 0.45-0.5 0.1-0.2 0.267-0.35 0.5-0.45 0.033 0 0.233-0.067 0.6-0.2 0.3-0.1 0.567-0.067 0.8 0.1 0.133 0.2 0.15 0.383 0.05 0.55z" fill="#E7E5E0"/>
	<path d="m35.75 19c-0.134-0.533-0.316-1.1-0.55-1.7 0.5 0.8 0.833 1.4 1 1.8 0.312 0.904 0.695 1.237 1.149 1-0.153 0.236-0.354 0.436-0.6 0.6-0.167 0.167-0.333 0.3-0.5 0.4v0.4c0 0.3-0.05 0.567-0.15 0.8-0.133 0.2-0.333 0.45-0.6 0.75l-0.15 0.2c-0.1 0.067-0.166 0.133-0.199 0.2-0.5 0.433-1.034 0.75-1.601 0.95-0.066-0.3-0.149-0.667-0.25-1.1-0.274-0.892-0.624-1.875-1.05-2.95-0.085-0.213-0.168-0.43-0.25-0.65v0.05c-0.05-0.114-0.1-0.231-0.15-0.35-0.079-0.198-0.162-0.397-0.25-0.6-0.066-0.233-0.166-0.466-0.3-0.7 0.033-0.033 0.066-0.067 0.101-0.1 0.399 0.733 0.716 1.35 0.949 1.85 0.301 0.767 0.634 1.617 1 2.55 0.2 0.467 0.45 0.667 0.75 0.6 1.267-0.367 1.95-0.967 2.051-1.8-0.034-0.1-0.051-0.184-0.051-0.25v-0.5c-0.066-0.4-0.182-0.883-0.349-1.45zm1.15-3.45c-0.034-0.066-0.051-0.117-0.051-0.15 0.134 0.133 0.25 0.3 0.351 0.5 0.166 0.3 0.416 0.383 0.75 0.25 0.333-0.133 0.566-0.467 0.7-1-0.034 0.434-0.101 0.8-0.2 1.1-0.167 0.467-0.45 0.833-0.851 1.1-0.066-0.2-0.149-0.45-0.25-0.75l-0.1-0.25c-0.099-0.233-0.216-0.5-0.349-0.8zm-30.55 26.55c0.133-0.3 0.167-0.616 0.1-0.949-0.067-0.301 0-0.551 0.2-0.75 0.133-0.101 0.4-0.284 0.8-0.551 1.333-1 3.066-2.466 5.2-4.399v-0.051c0.1-0.067 0.2-0.15 0.3-0.25 0.167-0.101 0.333-0.217 0.5-0.351 0.1-0.1 0.216-0.184 0.35-0.25 2.534-1.967 4.383-3.166 5.55-3.6 0.8-0.267 2.717-0.8 5.75-1.601 2.7-0.6 4.466-1.116 5.3-1.55 1-0.5 1.733-0.966 2.199-1.4 0.5-0.467 0.834-1.033 1-1.7 0.065 0.511 0.065 0.944 0 1.3l-0.05 0.2c-0.033 0.033-0.066 0.083-0.1 0.15-0.033 0.2-0.117 0.383-0.25 0.55-0.2 0.333-0.566 0.633-1.101 0.9l-1.85 0.7c-2.866 0.667-4.983 1.167-6.35 1.5-2.367 0.6-4.117 1.283-5.25 2.05-2.833 1.934-4.483 3.101-4.95 3.5-0.662 0.441-1.146 0.809-1.45 1.101-0.018 0.016-0.034 0.032-0.05 0.05-1.439 1.303-2.389 2.086-2.85 2.35l-0.448 0.351c-0.533 0.366-0.983 0.783-1.35 1.25-0.667 0.8-1.067 1.284-1.2 1.45zm-2.45-1.3l0.3 0.3c-0.167-0.033-0.367-0.05-0.6-0.05-1.133 0.066-1.617 0.55-1.45 1.45l-0.5-0.35c-0.233-0.2-0.283-0.483-0.15-0.851 0.1-0.333 0.283-0.55 0.55-0.649l0.3-0.101c0.7-0.165 1.217-0.082 1.55 0.251z" fill="#6C6756"/>
		<linearGradient id="p" x1="-10.765" x2="-6.4926" y1="-13.993" y2="-13.993" gradientTransform="matrix(-.9597 .2809 -.5538 -.8799 -.00034642 -.00015849)" gradientUnits="userSpaceOnUse">
		<stop stop-color="#988F7D" offset="0"/>
		<stop stop-color="#C7C2B8" offset=".3569"/>
		<stop stop-color="#DAD9D6" offset=".9922"/>
	</linearGradient>
	<path d="m14.55 7.95c-0.133 0-0.233 0.017-0.3 0.05 0.1-0.1 0.283-0.117 0.55-0.05h-0.25zm0.35 2c0.467 0.933 0.767 1.433 0.9 1.5 0.133 0.066 0.217 0 0.25-0.2 0.034-0.167 0.017-0.317-0.05-0.45-0.333-0.966-0.8-1.65-1.4-2.05-0.2-0.133-0.1 0.267 0.3 1.2zm0.95 2.4c-0.063-0.177-0.146-0.344-0.25-0.5-0.533-1.333-0.967-2.333-1.3-3-0.2-0.333-0.25-0.6-0.15-0.8 0.934 0.133 1.7 0.784 2.3 1.95 0.3 0.6 0.367 1.15 0.2 1.65-0.167 0.467-0.433 0.7-0.8 0.7z" fill="url(#p)"/>
</g>
</svg>
