<?xml version="1.0" encoding="UTF-8"?>
<svg viewBox="0 0 291.58804 279.50681" xmlns="http://www.w3.org/2000/svg" xmlns:xlink="http://www.w3.org/1999/xlink">
 <defs>
  <linearGradient id="b">
   <stop stop-color="#fff" stop-opacity=".50196" offset="0"/>
   <stop stop-color="#fff" stop-opacity="0" offset="1"/>
  </linearGradient>
  <linearGradient id="a">
   <stop stop-color="#fff" stop-opacity=".64314" offset="0"/>
   <stop stop-color="#fff" stop-opacity="0" offset="1"/>
  </linearGradient>
  <linearGradient id="p" x1="446" x2="259.24" y1="646.13" y2="459.71" gradientUnits="userSpaceOnUse">
   <stop stop-opacity=".25098" offset="0"/>
   <stop stop-color="#808080" stop-opacity="0" offset="1"/>
  </linearGradient>
  <linearGradient id="o" x1="259.28" x2="262.86" y1="457.22" y2="461.33" gradientUnits="userSpaceOnUse">
   <stop stop-opacity=".50196" offset="0"/>
   <stop stop-opacity="0" offset="1"/>
  </linearGradient>
  <linearGradient id="n" x1="556.59" x2="265.57" y1="718.98" y2="451.04" gradientUnits="userSpaceOnUse">
   <stop stop-color="#fff" stop-opacity=".37647" offset="0"/>
   <stop stop-color="#fff" stop-opacity="0" offset="1"/>
  </linearGradient>
  <linearGradient id="l" x1="244.7" x2="274.28" y1="460.93" y2="473.15" gradientUnits="userSpaceOnUse">
   <stop stop-color="#fff" offset="0"/>
   <stop stop-color="#fff" stop-opacity="0" offset="1"/>
  </linearGradient>
  <linearGradient id="h" x1="434.88" x2="423.63" y1="634.76" y2="618.1" gradientUnits="userSpaceOnUse">
   <stop stop-opacity=".25098" offset="0"/>
   <stop stop-color="#fff" stop-opacity=".12549" offset="1"/>
  </linearGradient>
  <linearGradient id="e" x1="381.29" x2="375.18" y1="572.72" y2="581.29" gradientUnits="userSpaceOnUse">
   <stop stop-color="#fff" stop-opacity=".25098" offset="0"/>
   <stop stop-color="#fff" stop-opacity="0" offset="1"/>
  </linearGradient>
  <linearGradient id="q" x1="177.69" x2="249.93" y1="372.38" y2="454.65" gradientUnits="userSpaceOnUse" xlink:href="#b"/>
  <linearGradient id="m" x1="199.61" x2="248" y1="416.34" y2="477.59" gradientUnits="userSpaceOnUse" xlink:href="#a"/>
  <linearGradient id="k" x1="211.39" x2="250.36" y1="409.07" y2="466.92" gradientUnits="userSpaceOnUse" xlink:href="#a"/>
  <linearGradient id="j" x1="214.46" x2="255.34" y1="400.67" y2="455.14" gradientUnits="userSpaceOnUse" xlink:href="#a"/>
  <linearGradient id="i" x1="227.85" x2="265.06" y1="395.46" y2="450.11" gradientUnits="userSpaceOnUse" xlink:href="#a"/>
  <linearGradient id="g" x1="438.92" x2="441.19" y1="614.4" y2="617.68" gradientUnits="userSpaceOnUse" xlink:href="#b"/>
  <linearGradient id="f" x1="366.3" x2="369.83" y1="559.42" y2="555.67" gradientUnits="userSpaceOnUse" xlink:href="#b"/>
  <radialGradient id="d" cx="258.04" cy="463.56" r="23.234" gradientTransform="matrix(1.4524 -1.0735 .38233 .5173 -291.47 500.7)" gradientUnits="userSpaceOnUse">
   <stop stop-opacity=".22745" offset="0"/>
   <stop stop-opacity="0" offset="1"/>
  </radialGradient>
  <radialGradient id="c" cx="269.02" cy="475.34" r="5.6935" gradientTransform="matrix(2.6309 6.9701e-6 -2.6949e-6 1.0172 -438.76 -8.1772)" gradientUnits="userSpaceOnUse">
   <stop stop-opacity=".37647" offset="0"/>
   <stop stop-opacity="0" offset="1"/>
  </radialGradient>
 </defs>
 <g transform="translate(-173.43 -371.86)" fill-rule="evenodd">
  <path d="m173.93 388.08c21.262 27.077 41.491 54.31 64.643 75.714 1.7993-0.46258 2.8434-1.6804 3.2143-3.5714-20.238-24.051-40.833-47.101-61.071-77.5 31.305 34.989 44.315 50.21 67.679 73.214 1.3416-0.41642 2.5586-0.9812 3.3929-3.75-21.353-23.302-42.739-42.907-63.214-74.107 22.72 23.187 43.318 47.788 68.571 69.286 1.1866-0.25557 2.42-0.42287 4.1071-3.3929-23.133-20.757-59.322-62.462-64.464-71.607l72.5 71.429c5.653 5.5694 10.726 12.884 12.143 26.429 59.428 61.383 177.08 149.44 181.59 152.65 4.0845 2.9071-1.1513 16.337-4.4516 20.209-6.988 8.1994-23.772 9.509-27.395 5.8802-16.906-16.933-95.988-120.28-157.94-168.99 0 0-21.223 0.74009-28.5-3.051-16.706-8.7039-55.266-56.959-70.804-88.839z" fill="#ccc" stroke="#000"/>
  <path d="m196.78 372.38c5.1422 9.1451 41.335 50.837 64.469 71.594-0.54221 0.95447-1.038 1.591-1.5 2.0625l6.25-5.4688-69.219-68.188zm-8.2188 5.6875c20.475 31.2 41.866 50.823 63.219 74.125-0.14773 0.49031-0.29845 0.88651-0.46875 1.25l7.6875-6.75c-0.66756 0.44502-1.2504 0.55971-1.8438 0.6875-25.254-21.498-45.874-46.126-68.594-69.312zm-7.8438 4.6562c20.238 30.399 40.824 53.449 61.062 77.5-0.37086 1.891-1.4194 3.0999-3.2188 3.5625-23.152-21.404-43.363-48.641-64.625-75.719 12.751 26.162 40.979 63.346 59.938 80.656l14.625-12.812-0.09375 0.03125c-23.364-23.004-36.382-38.23-67.688-73.219z" fill="url(#q)"/>
  <path d="m463.59 632.56c-3.7875 3.244-9.1518 4.5573-9.7863 6.4062-1.7301 5.0414-5.6794 8.7952-9.2449 11.281 5.2449-1.0069 10.705-3.3209 14-7.1875 1.6587-1.9463 3.8237-6.2746 5.0312-10.5z" fill="#1a1a1a" fill-opacity=".50196"/>
  <path d="m278.41 475.94c-2.3632-2.8358-3.4629 2.9375-4.7188 4.4062 61.886 48.858 140.64 151.73 157.5 168.62 1.2303 1.2323 3.977 1.8581 7.3438 1.875 4.2556-0.6357 8.1808-2.4458 9.6875-4.7188 1.722-2.5979 5.907-7.6365 3.5625-9.4688-14.499-11.331-172.48-159.65-173.38-160.72z" fill="url(#p)"/>
  <path d="m265.97 440.53-31.156 29.031c3.7666 3.3624 7.1365 5.9007 9.9062 7.3438 7.2766 3.7911 28.5 3.0625 28.5 3.0625l0.0625 0.0625 8-11.156c-1.6056-12.68-6.5391-19.714-12-25.094l-3.3125-3.25z" fill="url(#d)"/>
  <path d="m268.93 449.33c-5.1334 6.9607-17.778 18.488-17.5 20.357 0.17338 1.166 11.468-11.627 20-17.321-0.83333-2.6632-1.6667-2.5788-2.5-3.0357z" fill="url(#o)"/>
  <path d="m283.12 471.97-5.3336 2.8361c54.48 51.968 116.16 108.26 174.24 162.38-1e-5 -2e-5 8.0504-2.1568 10.104-4.81 1.2136-1.568 1.3505-4.7965 2.1774-7.4088-0.00253-0.01022 0.00258-0.02108 0-0.03125-0.22605-0.89144-0.64305-1.6083-1.2812-2.0625-4.4684-3.1804-119.97-89.612-179.91-150.91z" fill="url(#n)"/>
  <path d="m274.31 477.38c-6.1582-0.38618-8.0677-0.24035-10.681-0.26433-0.96878-0.00889 0.39744-4.013 4.5952-3.8106 7.1559 0.34492 6.9143 4.1269 6.0863 4.075z" fill="url(#c)"/>
  <path d="m175.5 390.06c16.953 24.238 32.823 48.522 55.946 73.378 2.0306 0.45227 3.8838 0.50546 4.5849-2.0338-21.536-20.485-40.618-45.923-60.531-71.344z" fill="url(#m)"/>
  <path d="m254.11 472.54c-5.219-0.67592 8.1564-11.188 12.5-11.607 1.7178-0.16566 17.161 11.997 9.4643 12.143-9.092 0.17594-17.528 0.03884-21.964-0.53571z" fill="url(#l)"/>
  <path d="m181.75 383.84c5.7982 7.3475 43.137 54.564 59.156 70.5 1.0957 1.09 4.185 0.59379 6.0625 0.15625-22.151-21.911-35.411-37.325-65.219-70.656z" fill="url(#k)"/>
  <path d="m188.56 378.06 0.25 0.375s38.764 47.083 58.281 64.812c1.9162 1.7408 8.25 2.5312 8.25 2.5312-24.425-21.121-44.612-45.094-66.781-67.719z" fill="url(#j)"/>
  <path d="m196.78 372.38c0.02048 0.03642 0.04104 0.08755 0.0625 0.125 21.262 23.785 58.501 67.375 68.219 67.125l-68.281-67.25z" fill="url(#i)"/>
  <path d="m232.41 449.16c3.13 3.6857 6.2593 7.3598 9.375 11.062-0.27482 1.4014-0.92114 2.4339-1.9688 3.0625 0.30858 0.03689 0.65137 0.04985 1.0938-0.03125 1.3951-0.25575 3.0225-2.7346 2.75-3.5312-0.72254-2.1121-9.6213-10.855-11.25-10.562z" fill-opacity=".37647"/>
  <path d="m242.28125,441.5625c-.10258.02668-.18618.10671-.21875.21875-.00259.00889.00211.02179 0,.03125 3.23554,3.41615 6.48147,6.8422 9.71875,10.375-.64549,2.14237-1.51576,2.95068-2.5,3.40625 .37698.12329.89398.18505 1.5625.0625 1.39514-.25575 3.02252-2.76588 2.75-3.5625-.72687-2.12471-9.88872-9.86113-11.3125-10.53125z" fill-opacity=".37647"/>
  <path d="m251.25 433.5c-0.32456-0.03697-0.45354 0.17205-0.375 0.625 3.6343 3.5855 7.1323 6.9341 10.375 9.8438-1.4986 2.638-2.6197 3.0709-3.6875 3.3125 0.39148 0.30324 1.0362 0.50064 2.0625 0.3125 1.3951-0.25575 2.9913-2.7346 2.7188-3.5312-0.70091-2.0488-9.167-9.3888-11.094-10.562z" fill-opacity=".37647"/>
  <path d="m202.41 432.78c15.629 20.73 32.629 39.08 42.312 44.125 6.9262 3.6086 25.976 3.1187 27.844 3.0625l0.1875-0.625s-14.407-1.6101-20.469-3.1562c-4.9904-1.2728-11.938-4.9372-16.031-8.0625-10.06-7.6808-23.89-23.309-33.844-35.344z" fill-opacity=".37647"/>
  <path d="m249.89 457.07c1.6944-0.97001 2.8041-2.0004 3.6618-3.4724 0 0 0.46019 2.2232-0.1894 2.9673-0.84842 0.97197-3.4724 0.50507-3.4724 0.50507z" fill="#fff" fill-opacity=".50196"/>
  <path d="m239.71 464.81c1.6944-0.97001 2.8041-2.0004 3.6618-3.4724 0 0 0.46019 2.2232-0.1894 2.9673-0.84842 0.97197-3.4724 0.50507-3.4724 0.50507z" fill="#fff" fill-opacity=".50196"/>
  <path d="m259.34 448.33c1.6944-0.97001 2.8041-2.0004 3.6618-3.4724 0 0 0.46019 2.2232-0.1894 2.9673-0.84842 0.97197-3.4724 0.50507-3.4724 0.50507z" fill="#fff" fill-opacity=".50196"/>
  <path d="m426.03 640.73c3.6764 4.2204 14.395-11.869 14.395-11.869l-13.385-11.869c-6.531 1.522-12.442 6.1459-20.203 1.5152 0 0 15.466 17.945 19.193 22.223z" fill="url(#h)"/>
  <path d="m413.42 598.39 1.6415 1.4196c4.1557 0.01882 5.6745-1.9576 8.8209-5.3033l-1.7678-1.5152c-2.8588 2.8-4.1814 5.2459-8.6946 5.3989z" fill-opacity=".25098"/>
  <path d="m412.53 600.85c2.9346-0.27847 6.5859-1.6644 11.398-6.1671l23.571 17.857-9.8214 10.714-25.148-22.404z" fill="url(#g)"/>
  <path d="m279.43 474.55c43.267 43.353 87.933 85.308 133.21 126.65l2.3648-1.1364-134.82-127.78c-0.75762 0.75761-1.0102 1.5152-0.75761 2.2728z" fill="url(#f)"/>
  <path d="m322.5 516.65 105.36 99.286-20.357 2.8572-72.5-82.143c-6.7745-7.3186-9.389-13.597-12.5-20z" fill="url(#e)"/>
  <path d="m452.32 637.18c0.28819 1.6071-0.47492 3.3929-1.0714 5 2.6634-0.23025-0.44291-2.8612 7.1428-6.7857-1.3482-0.10383-4.4187 1.3178-6.0714 1.7857z" fill="#fff" fill-opacity=".64314"/>
 </g>
</svg>
