<?xml version="1.0" encoding="UTF-8" standalone="no"?>
<!-- Created with Inkscape (http://www.inkscape.org/) -->

<svg
   width="210mm"
   height="297mm"
   viewBox="0 0 210 297"
   version="1.1"
   id="svg5"
   inkscape:version="1.1 (c68e22c387, 2021-05-23)"
   sodipodi:docname="gold_piece.svg"
   xmlns:inkscape="http://www.inkscape.org/namespaces/inkscape"
   xmlns:sodipodi="http://sodipodi.sourceforge.net/DTD/sodipodi-0.dtd"
   xmlns="http://www.w3.org/2000/svg"
   xmlns:svg="http://www.w3.org/2000/svg">
  <sodipodi:namedview
     id="namedview7"
     pagecolor="#ffffff"
     bordercolor="#666666"
     borderopacity="1.0"
     inkscape:pageshadow="2"
     inkscape:pageopacity="0.0"
     inkscape:pagecheckerboard="0"
     inkscape:document-units="mm"
     showgrid="false"
     inkscape:zoom="0.69977474"
     inkscape:cx="315.1014"
     inkscape:cy="561.60929"
     inkscape:window-width="1920"
     inkscape:window-height="986"
     inkscape:window-x="-11"
     inkscape:window-y="-11"
     inkscape:window-maximized="1"
     inkscape:current-layer="layer1" />
  <defs
     id="defs2" />
  <g
     inkscape:label="Layer 1"
     inkscape:groupmode="layer"
     id="layer1">
    <g
       id="g28"
       transform="matrix(0.0269767,0,0,0.0269767,51.203978,137.26186)">
      <path
         d="M 619.99,157.59 C 645.908,266.88 526.545,388.76 353.38,429.83 180.22,470.895 18.83,415.59 -7.08,306.3 -32.998,197.01 86.365,75.13 259.53,34.06 432.69,-7.005 594.08,48.3 619.99,157.59 Z"
         fill="#a86c00"
         stroke-width="0.707"
         id="path13" />
      <path
         d="m 627.08,185.01 c -0.37,7.5646 -1.129,15.034 -2.3135,22.432 l 7.853,33.113 -2.0501,9.3338 -8.3867,-29.311 c -0.6767,2.8917 -1.4139,5.7694 -2.2354,8.6426 l 8.2903,34.955 -2.9065,7.2134 -8.7958,-31.475 c -1.1309,3.1918 -2.3531,6.3754 -3.6841,9.5507 l 7.6463,32.241 -4.2274,7.0805 -7.5928,-30.088 c -1.4902,3.0759 -3.0674,6.1497 -4.7624,9.2157 l 7.2748,30.67 -4.197,6.246 -7.5215,-29.259 c -1.843,3.0142 -3.788,6.0291 -5.8432,9.0389 l 6.8448,28.86 -4.4662,5.1153 -7.0746,-27.375 c -1.9552,2.6566 -3.9844,5.3182 -6.1156,7.9748 l 6.5814,27.752 -4.9361,5.1482 -6.6368,-26.846 c -2.012,2.3582 -4.0905,4.713 -6.2472,7.0736 l 6.3822,27.537 -4.8724,4.4505 -6.5754,-26.585 c -2.4103,2.51 -4.8886,5.0186 -7.4693,7.5344 l 6.4259,27.093 -5.1572,4.7413 -6.5647,-26.798 c -1.7499,1.6363 -3.5385,3.2816 -5.363,4.9212 -0.8894,0.79849 -1.7816,1.5923 -2.6812,2.3815 l 6.62,27.728 -5.2023,3.9379 -6.7392,-27.096 c -2.9134,2.449 -5.8665,4.8583 -8.8735,7.2241 l 6.52,27.492 -5.2535,3.2805 -6.6452,-26.622 c -2.7482,2.0789 -5.5217,4.1287 -8.3397,6.1392 l 6.4604,27.243 -5.5259,3.1874 -6.4822,-26.542 c -3.4333,2.3579 -6.9146,4.6674 -10.441,6.9262 l 6.2742,27.172 -5.7092,2.8505 -6.2314,-26.46 c -3.4706,2.1426 -6.9806,4.2429 -10.53,6.2911 l 6.3068,26.595 -5.9633,2.8318 -6.1951,-26.122 c -3.7633,2.0932 -7.5597,4.14 -11.4,6.1299 l 6.1825,26.072 -6.0452,2.4839 -6.0569,-25.538 c -4.5168,2.256 -9.0835,4.4403 -13.691,6.5547 l 6.2473,26.344 -5.9778,2.2448 -6.1918,-25.924 c -4.7425,2.0984 -9.5218,4.1298 -14.344,6.0796 l 6.1891,26.098 -6.1462,2.0616 -6.1071,-25.75 c -4.6365,1.804 -9.2943,3.5405 -13.99,5.2078 l 6.162,25.981 -6.2821,2.0146 -6.0681,-25.846 c -4.6777,1.594 -9.3743,3.1314 -14.095,4.5898 l 6.0634,25.571 -6.3297,1.7242 -5.9647,-25.411 c -4.5805,1.3526 -9.177,2.6476 -13.787,3.8736 l 6.1164,25.79 -6.2812,1.4896 -6.087,-25.666 c -78.158,19.76 -159.3,21.279 -223.2,3.404 -70.17,-19.63 -106.09,-47.3 -135.64,-90.032 2.7939,11.784 11.62,26.37 18.235,37.249 9.8142,14.928 40.121,55.887 107.16,77.605 71.663,23.218 159.55,20.99 241.02,1.3235 60.632,-14.635 144.2,-44.6 208.95,-113.98 45.83,-49.108 54.617,-74.934 56.753,-103.73 -1.5186,-17.745 -3.983,-39.511 -8.0488,-56.652 l -0.0117,0.003 z"
         fill="#a46800"
         id="path15" />
      <path
         d="M 616.02,158.29 C 641.518,265.81 523.69,385.82 352.84,426.33 181.99,466.847 22.82,412.53 -2.68,305.01 -28.18,197.49 89.649,77.48 260.5,36.97 431.35,-3.547 590.52,50.77 616.02,158.29 Z"
         fill="#f0dc5c"
         stroke="#000000"
         stroke-width="2.833"
         id="path17" />
    </g>
  </g>
</svg>
