<?xml version="1.0" encoding="UTF-8" standalone="no"?>
<!-- Created with Inkscape (http://www.inkscape.org/) -->

<svg
   width="210mm"
   height="297mm"
   viewBox="0 0 210 297"
   version="1.1"
   id="svg5"
   inkscape:version="1.1 (c68e22c387, 2021-05-23)"
   sodipodi:docname="Magic Lamp.svg"
   xmlns:inkscape="http://www.inkscape.org/namespaces/inkscape"
   xmlns:sodipodi="http://sodipodi.sourceforge.net/DTD/sodipodi-0.dtd"
   xmlns="http://www.w3.org/2000/svg"
   xmlns:svg="http://www.w3.org/2000/svg">
  <sodipodi:namedview
     id="namedview7"
     pagecolor="#ffffff"
     bordercolor="#666666"
     borderopacity="1.0"
     inkscape:pageshadow="2"
     inkscape:pageopacity="0.0"
     inkscape:pagecheckerboard="0"
     inkscape:document-units="mm"
     showgrid="false"
     inkscape:zoom="0.69664703"
     inkscape:cx="396.90114"
     inkscape:cy="658.87025"
     inkscape:window-width="1920"
     inkscape:window-height="986"
     inkscape:window-x="-11"
     inkscape:window-y="-11"
     inkscape:window-maximized="1"
     inkscape:current-layer="layer1" />
  <defs
     id="defs2">
    <filter
       id="r"
       x="-0.4296531"
       y="-0.2072347"
       width="1.8593062"
       height="1.4144694"
       color-interpolation-filters="sRGB">
      <feGaussianBlur
         stdDeviation="49.915923"
         id="feGaussianBlur9" />
    </filter>
    <filter
       id="r-5"
       x="-0.4296531"
       y="-0.2072347"
       width="1.8593062"
       height="1.4144694"
       color-interpolation-filters="sRGB">
      <feGaussianBlur
         stdDeviation="49.915923"
         id="feGaussianBlur149" />
    </filter>
  </defs>
  <g
     inkscape:label="Layer 1"
     inkscape:groupmode="layer"
     id="layer1">
    <g
       id="g425"
       transform="matrix(0.9801937,0,0,0.9801937,8.2903208,44.387179)">
      <ellipse
         cx="52.670006"
         cy="172.88797"
         fill="url(#k)"
         stroke="#aa882f"
         stroke-width="0.796768"
         id="circle19"
         rx="3.039273"
         ry="2.3783176" />
      <path
         d="m 52.745066,174.72874 c -0.884341,0 -1.676209,-0.82383 -1.676209,-1.8403 0,-1.01648 0.979515,-1.8403 1.676209,-1.8403 -1.298814,0 -2.351736,0.82394 -2.351736,1.8403 0,1.01636 1.053822,1.84077 2.352336,1.84077 z"
         fill="#ce9132"
         id="path21"
         style="stroke-width:0.132795" />
      <path
         d="m 62.550722,181.14148 c -2.199818,-3.22423 -5.838809,-5.0818 -9.955023,-5.0818 -4.116364,0 -7.754905,1.85745 -9.954873,5.0818 h 19.910046 z"
         fill="url(#l)"
         stroke="#aa882f"
         stroke-linecap="round"
         stroke-linejoin="round"
         stroke-width="0.796768"
         id="path28" />
      <path
         d="m 29.501067,195.75369 c -1.670354,0.55282 -2.951905,1.88083 -2.951905,3.38928 0,2.01122 2.083627,3.6416 4.653634,3.6416 2.570006,0 4.653633,-1.63038 4.653633,-3.6416 0,-1.34047 -1.176318,-2.25838 -2.303849,-3.144 -3.325096,-2.61255 -12.857539,-9.01472 -12.857539,-13.36115 0,-4.15224 2.833313,-7.22446 7.393273,-7.22446 3.032668,0 4.907031,1.40624 6.342452,3.62515 -2.477985,0 -4.487003,1.572 -4.487003,3.51121 0,1.93921 2.009018,3.51109 4.487003,3.51109 2.477985,0 4.204183,-1.58445 4.487004,-3.51109 1.02575,-6.99011 -4.937355,-10.36693 -11.317337,-10.36693 -6.25028,0 -11.317336,4.64139 -11.317336,10.36693 0,6.25533 10.116398,10.21058 13.21782,13.20374 z"
         fill="url(#m)"
         stroke="#aa882f"
         stroke-linecap="round"
         stroke-linejoin="round"
         stroke-width="0.796768"
         id="path35" />
      <path
         d="m 29.127275,188.90278 c 6.705286,-0.46988 14.161007,-5.52113 14.161007,-6.65661 h 18.764651 c 0,1.13548 7.455722,6.18673 14.160857,6.65661 H 29.128026 Z"
         fill="url(#n)"
         stroke="#aa882f"
         stroke-linecap="round"
         stroke-linejoin="round"
         stroke-width="0.796768"
         id="path42" />
      <path
         d="m 75.448793,189.99527 c -3.436634,6.45103 -12.338284,11.04697 -22.778786,11.04697 -10.439901,0 -19.341101,-4.59594 -22.778785,-11.04697 z"
         fill="url(#o)"
         stroke="#aa882f"
         stroke-linecap="round"
         stroke-linejoin="round"
         stroke-width="0.796768"
         id="path49" />
      <path
         d="m 39.354611,191.24398 c 2.659326,4.9917 4.936304,8.54813 13.014711,8.54813 -8.078407,0 -16.942228,-3.55632 -19.602305,-8.54813 h 6.587143 z"
         fill="#ce9132"
         id="path51"
         style="stroke-width:0.132795" />
      <path
         d="m 60.02575,204.7226 c 0.953545,0 1.726348,-0.60474 1.726348,-1.35091 0,-0.74618 -0.772803,-1.35092 -1.726348,-1.35092 H 45.314264 c -0.953395,0 -1.726348,0.60474 -1.726348,1.35092 0,0.74617 0.772953,1.35091 1.726348,1.35091 z"
         fill="url(#p)"
         stroke="#aa882f"
         stroke-linecap="round"
         stroke-linejoin="round"
         stroke-width="0.796768"
         id="path58" />
      <path
         d="m 47.37087,202.53999 c -0.139309,0 -0.728669,0.37262 -0.728669,0.8324 0,0.45966 0.613529,0.8324 0.728669,0.8324 h -1.57488 c -0.734073,0 -1.329138,-0.37274 -1.329138,-0.8324 0,-0.45978 0.595215,-0.8324 1.329138,-0.8324 h 1.57473 z"
         fill="#ce9132"
         id="path60"
         style="stroke-width:0.132795" />
      <path
         d="m 80.141457,185.33989 c -1.801407,3.46551 -6.042218,10.92492 -12.797493,13.27422 12.197024,0 16.512894,-6.69585 19.665355,-9.45641 3.152461,-2.76057 4.128223,-3.23069 5.179044,-3.81793 H 80.141457 Z"
         fill="url(#q)"
         stroke="#ab892c"
         stroke-linecap="round"
         stroke-linejoin="round"
         stroke-width="0.796768"
         id="path67" />
      <path
         d="m 52.369773,176.66466 c -3.185337,0 -6.526196,1.46662 -8.228525,3.96159 h 2.777168 c 1.200938,-2.32945 3.015855,-3.96112 5.450756,-3.96112 z"
         fill="#cd912a"
         id="path69"
         style="stroke-width:0.132795" />
      <path
         d="m 41.406713,188.15332 c 2.109297,0 4.915588,-4.09586 4.915588,-4.97466 h -2.329819 c 0,0.87868 -4.959873,4.97466 -8.105579,4.97466 z"
         fill="#ce9132"
         id="path71"
         style="stroke-width:0.132795" />
      <path
         d="m 23.413664,173.7549 c -3.469809,1.66668 -4.84113,4.89795 -4.84113,8.79482 0,3.53811 2.260765,6.34038 5.633599,8.6488 -3.373134,-2.30713 -7.022483,-5.10999 -7.022483,-8.64821 0,-3.89652 2.759905,-7.12814 6.229714,-8.79506 z"
         fill="#ce9132"
         id="path73"
         style="stroke-width:0.132795" />
      <path
         d="m 30.859478,201.91387 c -1.303468,0 -2.470779,-1.2143 -2.470779,-2.71252 0,-1.49823 1.443977,-2.71264 2.470779,-2.71264 -1.914595,0 -3.466507,1.21441 -3.466507,2.71264 0,1.49822 1.552212,2.7124 3.466206,2.7124 z"
         fill="#ce9132"
         id="path75"
         style="stroke-width:0.132795" />
      <path
         d="m 34.313675,185.16486 c -1.303468,0 -2.470779,-1.2143 -2.470779,-2.71252 0,-1.49823 1.443977,-2.71264 2.470779,-2.71264 -1.914595,0 -3.466507,1.21441 -3.466507,2.71264 0,1.49822 1.550711,2.7124 3.466206,2.7124 z"
         fill="#ce9132"
         id="path77"
         style="stroke-width:0.132795" />
      <path
         d="M 76.212889,212.07863 H 29.127125 v -2.20258 c 6.705286,-0.49925 14.161007,-3.50016 14.161007,-4.17468 h 18.764651 c 0,0.67452 7.455721,3.67543 14.160857,4.17468 v 2.20258 z"
         fill="url(#j)"
         stroke="#aa882f"
         stroke-linecap="round"
         stroke-linejoin="round"
         stroke-width="0.796768"
         id="path84" />
      <path
         d="m 38.995831,211.33739 v -0.90311 c 3.57339,-1.11492 5.912516,-3.39985 5.912516,-3.91919 h -0.975762 c 0,0.51934 -7.242104,3.53494 -12.405086,3.91919 v 0.90311 z"
         fill="#ce9132"
         id="path86"
         style="stroke-width:0.132795" />
      <path
         d="m 52.670007,174.72874 c 0.884341,0 1.676359,-0.82383 1.676359,-1.8403 0,-1.01648 -0.979665,-1.8403 -1.676359,-1.8403 1.298814,0 2.351886,0.82394 2.351886,1.8403 0,1.01636 -1.053822,1.84077 -2.352336,1.84077 z"
         fill="#f2dd9b"
         id="path88"
         style="stroke-width:0.132795" />
      <path
         d="m 34.780539,199.20147 c 0,1.47743 -1.530445,2.67516 -3.418469,2.67516 1.409601,0 3.401806,-1.6675 3.401806,-2.67516 h 0.01651 z"
         fill="#f2dd9b"
         id="path90"
         style="stroke-width:0.132795" />
      <path
         d="m 65.384935,191.24398 c -2.659327,4.9917 -4.936304,8.54813 -13.014862,8.54813 8.078558,0 16.943729,-3.55632 19.602305,-8.54813 h -6.587143 z"
         fill="#f2dd9b"
         id="path96"
         style="stroke-width:0.132795" />
      <path
         d="m 57.368676,202.53999 c 0.139309,0 0.728819,0.37262 0.728819,0.8324 0,0.45966 -0.613679,0.8324 -0.728819,0.8324 h 1.57503 c 0.733923,0 1.329137,-0.37274 1.329137,-0.8324 0,-0.45978 -0.595214,-0.8324 -1.329137,-0.8324 h -1.57473 z"
         fill="#f2dd9b"
         id="path98"
         style="stroke-width:0.132795" />
      <path
         d="m 52.369773,176.66466 c 3.185337,0 6.526045,1.46662 8.228675,3.96159 h -2.777169 c -1.202439,-2.32945 -3.017356,-3.96112 -5.452257,-3.96112 z"
         fill="#f2dd9b"
         id="path100"
         style="stroke-width:0.132795" />
      <path
         d="m 63.332833,188.15332 c -2.109297,0 -4.915739,-4.09586 -4.915739,-4.97466 h 2.32982 c 0,0.87868 4.960022,4.97466 8.105728,4.97466 z"
         fill="#f2dd9b"
         id="path102"
         style="stroke-width:0.132795" />
      <path
         d="m 65.743715,211.33739 v -0.90311 c -3.57354,-1.11492 -5.912667,-3.39985 -5.912667,-3.91919 h 0.975762 c 0,0.51934 7.242255,3.53494 12.405236,3.91919 v 0.90311 z"
         fill="#f2dd9b"
         id="path104"
         style="stroke-width:0.132795" />
      <path
         d="m 28.91561,173.14053 c 4.115163,0 9.664096,3.53987 8.977159,8.21745 0.789617,-5.38252 -4.065174,-8.2171 -8.977009,-8.2171 z"
         fill="#f2dd9b"
         id="path106"
         style="stroke-width:0.132795" />
      <path
         d="m 81.027148,187.65994 c -1.871511,3.27944 -5.452557,8.83441 -10.529671,10.22139 3.735366,-1.29923 8.319195,-8.06286 9.441321,-10.22139 z"
         fill="#ce9132"
         id="path108"
         style="stroke-width:0.132795" />
      <path
         d="m 86.272243,186.23502 h 2.592525 c -2.364346,1.42469 -3.527755,3.34792 -3.527755,3.34792 0.307741,-1.56236 1.606254,-2.02755 0.93523,-3.34792 z"
         fill="#f2dd9b"
         id="path110"
         style="stroke-width:0.132795" />
    </g>
  </g>
</svg>
