<?xml version="1.0" encoding="UTF-8" standalone="no"?>
<!-- Created with Inkscape (http://www.inkscape.org/) -->

<svg
   width="210mm"
   height="297mm"
   viewBox="0 0 210 297"
   version="1.1"
   id="svg5"
   inkscape:version="1.1 (c68e22c387, 2021-05-23)"
   sodipodi:docname="shell.svg"
   xmlns:inkscape="http://www.inkscape.org/namespaces/inkscape"
   xmlns:sodipodi="http://sodipodi.sourceforge.net/DTD/sodipodi-0.dtd"
   xmlns="http://www.w3.org/2000/svg"
   xmlns:svg="http://www.w3.org/2000/svg">
  <sodipodi:namedview
     id="namedview7"
     pagecolor="#ffffff"
     bordercolor="#666666"
     borderopacity="1.0"
     inkscape:pageshadow="2"
     inkscape:pageopacity="0.0"
     inkscape:pagecheckerboard="0"
     inkscape:document-units="mm"
     showgrid="false"
     inkscape:zoom="0.69664703"
     inkscape:cx="396.90114"
     inkscape:cy="561.25984"
     inkscape:window-width="1920"
     inkscape:window-height="986"
     inkscape:window-x="-11"
     inkscape:window-y="-11"
     inkscape:window-maximized="1"
     inkscape:current-layer="layer1" />
  <defs
     id="defs2" />
  <g
     inkscape:label="Layer 1"
     inkscape:groupmode="layer"
     id="layer1">
    <g
       clip-rule="evenodd"
       fill-rule="evenodd"
       id="g101"
       transform="matrix(0.26458333,0,0,0.26458333,-114.78742,146.13994)">
	<path
   d="m 31.45,10.2 c 0.133,0.033 0.267,0.066 0.399,0.1 0.5,0.2 1.017,0.45 1.551,0.75 0.466,-0.2 0.899,-0.283 1.3,-0.25 0.747,0 1.48,0.25 2.2,0.75 0.049,0.029 0.099,0.063 0.149,0.1 H 37.025 L 35.2,11.1 c -0.533,-0.033 -0.884,-0.05 -1.05,-0.05 l -0.5,0.2 0.699,0.6 c 0.034,0 0.084,0.05 0.15,0.15 -0.134,0 -0.283,0.05 -0.45,0.15 H 34 c -0.066,0.033 -0.134,0.083 -0.2,0.15 -0.467,-0.367 -0.916,-0.7 -1.35,-1 L 32.1,11 c -0.433,-0.3 -0.75,-0.433 -0.949,-0.4 -0.301,-0.033 -0.7,0 -1.2,0.1 l -0.3,0.1 c 0.1,0.067 0.199,0.133 0.3,0.2 l 0.5,0.3 0.149,0.05 c 0.034,0.066 0.101,0.117 0.2,0.15 0.233,0.167 0.483,0.35 0.75,0.55 v 0.05 c 0.367,0.233 0.684,0.517 0.95,0.85 -0.167,0.066 -0.35,0.133 -0.55,0.2 l -0.4,-0.3 C 30.684,12.117 30,11.6 29.5,11.3 29.4,11.234 29.283,11.167 29.15,11.1 28.45,10.7 27.766,10.583 27.099,10.75 L 27.7,10.5 c 0.467,-0.133 1.083,-0.017 1.85,0.35 L 29.6,10.8 c 0.233,-0.233 0.567,-0.383 1,-0.45 0.334,-0.1 0.617,-0.15 0.85,-0.15 z m 6.65,0.65 1.5,-0.35 v 0.2 c -0.1,0.233 -0.333,0.45 -0.699,0.65 -0.367,0.167 -0.767,0.267 -1.2,0.3 -0.334,0.033 -0.45,-0.05 -0.351,-0.25 0.1,-0.2 0.35,-0.383 0.75,-0.55 z M 23.95,13 c 0.667,-0.133 1.033,-0.017 1.1,0.35 0.034,0.2 -0.033,0.417 -0.2,0.65 -0.1,0.167 -0.2,0.25 -0.3,0.25 -0.167,-0.033 -0.316,-0.05 -0.45,-0.05 -0.533,0.033 -0.85,-0.067 -0.95,-0.3 -0.133,-0.267 0.1,-0.55 0.7,-0.85 z m 1.15,3.45 c 0.233,-0.2 0.367,-0.184 0.4,0.05 0.033,0.2 -0.05,0.333 -0.25,0.4 -0.167,0.033 -0.25,0 -0.25,-0.1 0,-0.133 0.033,-0.25 0.1,-0.35 z m -0.3,3.75 c 0.5,-0.434 0.75,-0.45 0.75,-0.05 -0.167,0.033 -0.433,0.233 -0.8,0.6 -0.2,0.133 -0.267,0.117 -0.2,-0.05 0.033,-0.2 0.117,-0.367 0.25,-0.5 z m 12,-4.7 c -0.6,-0.767 -1.217,-1.45 -1.85,-2.05 0.066,-0.167 0.116,-0.284 0.149,-0.35 0,-0.133 0.034,-0.25 0.101,-0.35 0.066,0.133 0.149,0.25 0.25,0.35 l 1.399,2.3 c 0,0.033 0.017,0.083 0.051,0.15 z m -2.3,0.15 -0.15,-0.1 -0.05,-0.05 -0.4,-0.45 c 0.033,-0.1 0.066,-0.183 0.1,-0.25 l 0.35,0.5 c 0.034,0.133 0.084,0.25 0.15,0.35 z"
   fill="#fbf9f4"
   id="path9" />

		<linearGradient
   id="i"
   x1="-34.389"
   x2="-24.301001"
   y1="24.427"
   y2="24.427"
   gradientTransform="matrix(-0.4263,-0.9046,0.8947,-0.4473,1.6308e-4,1.3745e-4)"
   gradientUnits="userSpaceOnUse">
		<stop
   stop-color="#988F7D"
   offset="0"
   id="stop11" />

		<stop
   stop-color="#C7C2B8"
   offset=".3569"
   id="stop13" />

		<stop
   stop-color="#DAD9D6"
   offset=".9922"
   id="stop15" />

	</linearGradient>

	<path
   d="m 29.6,10.8 c 0.164,-0.175 0.397,-0.309 0.7,-0.4 0.434,-0.167 0.816,-0.233 1.15,-0.2 -0.233,0 -0.517,0.05 -0.851,0.15 -0.432,0.067 -0.766,0.217 -0.999,0.45 z m 1.95,1.25 c 0.268,0.119 0.51,0.269 0.726,0.45 -0.192,-0.15 -0.434,-0.283 -0.726,-0.4 z M 30.45,11.3 29.95,11 c -0.101,-0.067 -0.2,-0.133 -0.3,-0.2 l 0.3,-0.1 c 0.5,-0.1 0.899,-0.133 1.2,-0.1 0.199,-0.033 0.517,0.1 0.949,0.4 -0.166,-0.033 -0.366,0 -0.6,0.1 -0.366,0.167 -0.566,0.25 -0.6,0.25 z m 2.5,1.4 c -0.2,-0.167 -0.434,-0.35 -0.7,-0.55 0.233,-0.167 0.35,-0.316 0.35,-0.45 0.067,-0.067 0.017,-0.2 -0.149,-0.4 0.434,0.3 0.883,0.633 1.35,1 -0.268,0.133 -0.551,0.267 -0.851,0.4 z m 2,0.75 c 0.633,0.6 1.25,1.283 1.85,2.05 0.233,0.767 0.283,1.317 0.15,1.65 -0.167,0.3 -0.45,0.233 -0.851,-0.2 l 0.101,-0.1 c 0.2,-0.267 0.283,-0.467 0.25,-0.6 0.066,-0.1 0.05,-0.283 -0.05,-0.55 -0.067,-0.267 -0.15,-0.434 -0.25,-0.5 -0.233,-0.2 -0.617,-0.167 -1.15,0.1 -0.2,-0.333 -0.4,-0.65 -0.6,-0.95 0.234,-0.4 0.416,-0.7 0.55,-0.9 z"
   fill="url(#i)"
   id="path18" />

	<path
   d="m 32.95,12.7 c -0.101,0.033 -0.184,0.066 -0.25,0.1 l -0.425,-0.3 c -0.216,-0.181 -0.458,-0.331 -0.726,-0.45 -0.267,-0.2 -0.517,-0.383 -0.75,-0.55 -0.1,-0.033 -0.166,-0.083 -0.2,-0.15 L 30.45,11.3 30.9,11.35 c 0.033,0 0.233,-0.083 0.6,-0.25 0.233,-0.1 0.434,-0.133 0.6,-0.1 l 0.351,0.3 c 0.166,0.2 0.217,0.333 0.149,0.4 0,0.133 -0.116,0.283 -0.35,0.45 0.267,0.2 0.5,0.383 0.7,0.55 z m -1.65,5.45 0.55,1.25 c -0.267,0.367 -0.683,0.7 -1.25,1 -1.233,0.7 -2.433,0 -3.6,-2.1 -0.3,-0.633 -0.483,-1.25 -0.55,-1.85 -0.033,-0.2 -0.033,-0.367 0,-0.5 0,0.1 0.017,0.216 0.05,0.35 -0.033,-0.267 -0.017,-0.517 0.05,-0.75 0.066,0.6 0.25,1.167 0.55,1.7 0.334,0.667 0.667,0.983 1,0.95 0.4,0.033 1.233,-0.517 2.5,-1.65 0.067,-0.066 0.117,-0.117 0.15,-0.15 0.033,-0.033 0.083,-0.083 0.15,-0.15 0.066,-0.1 0.199,-0.217 0.399,-0.35 0.334,-0.3 0.867,-0.816 1.601,-1.55 0,-0.067 0.05,-0.117 0.149,-0.15 0.033,-0.067 0.101,-0.133 0.2,-0.2 0.033,-0.033 0.083,-0.067 0.15,-0.1 0.033,-0.066 0.083,-0.133 0.149,-0.2 0.033,-0.067 0.084,-0.133 0.15,-0.2 0.267,-0.333 0.416,-0.6 0.45,-0.8 0.033,-0.2 0,-0.383 -0.101,-0.55 0.167,-0.1 0.316,-0.15 0.45,-0.15 -0.066,-0.1 -0.116,-0.15 -0.15,-0.15 l -0.699,-0.6 c 0.366,0.233 0.683,0.467 0.949,0.7 0.101,-0.034 0.184,-0.017 0.25,0.05 0.05,0 0.1,0.017 0.15,0.05 -0.033,0.067 -0.05,0.167 -0.05,0.3 v 0.1 c -0.066,0.2 -0.184,0.417 -0.351,0.65 -0.133,0.233 -0.333,0.483 -0.6,0.75 -0.1,0.066 -0.167,0.15 -0.2,0.25 -0.066,0.066 -0.116,0.133 -0.149,0.2 -0.101,0.1 -0.184,0.2 -0.25,0.3 -0.134,0.066 -0.233,0.15 -0.301,0.25 -0.033,0.033 -0.05,0.066 -0.05,0.1 -0.566,0.633 -1.066,1.167 -1.5,1.6 -0.133,0.133 -0.25,0.267 -0.35,0.4 -0.101,0.066 -0.184,0.15 -0.25,0.25 l -0.05,0.1 H 30.85 c -0.733,0.833 -1.383,1.383 -1.949,1.65 -0.301,0.133 -0.617,0.117 -0.95,-0.05 L 27.901,18.85 27.8,18.8 c -0.566,-0.533 -0.95,-1.1 -1.149,-1.7 0.199,0.9 0.6,1.6 1.199,2.1 0.767,0.8 1.517,1 2.25,0.6 l 0.301,-0.15 c 0.1,-0.033 0.3,-0.1 0.6,-0.2 0.3,-0.2 0.384,-0.567 0.25,-1.1 -0.033,-0.033 -0.05,-0.067 -0.05,-0.1 0.032,-0.033 0.066,-0.067 0.099,-0.1 z m 3.6,-6.9 c -0.134,0.133 -0.317,0.217 -0.551,0.25 -0.133,-0.133 -0.05,-0.267 0.25,-0.4 z m 2,0.3 C 36.794,11.459 36.694,11.375 36.599,11.3 l -0.05,-0.1 c 0.267,0.033 0.65,0.267 1.15,0.7 0.434,0.4 0.733,0.583 0.899,0.55 0.2,-0.034 0.45,-0.25 0.75,-0.65 0.4,-0.466 0.617,-0.9 0.65,-1.3 0.134,0.1 0.233,0.317 0.3,0.65 l -0.1,0.3 c -0.066,0.466 -0.334,0.917 -0.8,1.35 -0.4,0.367 -0.667,0.483 -0.801,0.35 -0.066,-0.167 -0.283,-0.4 -0.649,-0.7 -0.233,-0.233 -0.5,-0.467 -0.8,-0.7 -0.047,-0.039 -0.089,-0.072 -0.125,-0.1 h 0.024 C 36.999,11.613 36.949,11.579 36.9,11.55 Z m -5.4,0.05 0.1,0.3 0.1,0.1 0.05,0.1 h 0.15 c 0.133,0 0.233,-0.05 0.3,-0.15 -0.101,-0.3 -0.184,-0.45 -0.25,-0.45 -0.033,-0.033 -0.183,0 -0.45,0.1 z m -8,0.35 c -0.167,0 -0.333,-0.034 -0.5,-0.1 -0.167,-0.033 -0.283,-0.083 -0.35,-0.15 -0.267,-0.1 -0.5,-0.267 -0.7,-0.5 -0.1,-0.133 -0.167,-0.25 -0.2,-0.35 -0.067,-0.033 -0.1,-0.083 -0.1,-0.15 -0.033,-0.233 0.017,-0.467 0.15,-0.7 0.034,-0.033 0.05,-0.067 0.05,-0.1 l 0.1,-0.25 c 0,0.033 0.017,0.066 0.05,0.1 0,0.2 0.033,0.4 0.1,0.6 0.033,0.2 0.1,0.383 0.2,0.55 0,0.033 0.034,0.05 0.1,0.05 0.033,0.066 0.067,0.15 0.1,0.25 0.067,0 0.117,0.017 0.15,0.05 0.167,0.033 0.333,0.017 0.5,-0.05 0.3,-0.067 0.6,-0.3 0.9,-0.7 0.034,-0.133 0.117,-0.283 0.25,-0.45 0.133,-0.267 0.233,-0.566 0.3,-0.9 0.4,-1.2 0.583,-2.617 0.55,-4.25 0,-1.733 -0.117,-3.1 -0.35,-4.1 0.167,-0.333 0.333,-0.5 0.5,-0.5 0.1,0.2 0.2,1.034 0.3,2.5 0.233,3.633 0.233,6 0,7.1 -0.033,0.033 -0.05,0.067 -0.05,0.1 -0.133,0.5 -0.417,0.933 -0.85,1.3 -0.333,0.333 -0.667,0.55 -1,0.65 z M 9,33.5 c 0.333,-0.333 0.683,-0.684 1.05,-1.05 2.034,-1.934 3.667,-3.967 4.9,-6.1 0.667,-1.167 1.316,-2.65 1.95,-4.45 0.233,-0.6 0.633,-1.85 1.2,-3.75 0.533,-1.767 1,-3.066 1.4,-3.9 0.367,-0.933 0.833,-1.883 1.4,-2.85 0.233,-0.3 0.434,-0.483 0.6,-0.55 h 0.25 c 0,0.066 0.033,0.15 0.1,0.25 -0.1,0.233 -0.117,0.45 -0.05,0.65 l 0.1,0.35 0.4,0.05 c -0.066,0.1 -0.15,0.15 -0.25,0.15 -0.233,-0.033 -0.517,0.2 -0.85,0.7 -0.367,0.467 -0.583,0.883 -0.65,1.25 -0.033,0.3 0.017,0.717 0.15,1.25 0.1,0.2 0.183,0.4 0.25,0.6 -0.167,-0.233 -0.417,-0.333 -0.75,-0.3 -0.3,-0.033 -0.583,0.4 -0.85,1.3 -0.233,0.833 -0.3,1.5 -0.2,2 0.1,0.4 0,0.783 -0.3,1.15 l -1.1,1.25 c -0.333,0.4 -0.55,1.033 -0.65,1.9 -0.1,1 -0.267,1.7 -0.5,2.1 -0.9,1.733 -2.383,3.566 -4.45,5.5 -0.5,0.566 -1.233,1.184 -2.2,1.85 C 9.85,32.917 9.533,33.134 9,33.5 Z m 17.1,-23 0.051,-0.1 0.399,0.5 -0.1,0.35 c -0.134,0.367 -0.267,0.6 -0.4,0.7 -0.1,0.133 -0.3,0.216 -0.6,0.25 0.167,-0.067 0.333,-0.233 0.5,-0.5 0.234,-0.4 0.283,-0.8 0.15,-1.2 z m 1.4,1.45 c -0.233,-0.367 -0.5,-0.7 -0.8,-1 l 0.899,0.6 c 0.467,-0.167 0.817,-0.167 1.051,0 0.199,0.233 0.3,0.434 0.3,0.6 0,0.067 -0.05,0.184 -0.15,0.35 l 1.05,1.05 0.301,-0.1 c 0.033,0 0.066,-0.017 0.1,-0.05 0.667,-0.3 1.134,-0.35 1.4,-0.15 h 0.05 c -0.334,0.133 -0.7,0.283 -1.101,0.45 -0.267,0.167 -0.533,0.3 -0.8,0.4 -0.066,-0.1 -0.149,-0.217 -0.25,-0.35 -0.333,-0.4 -0.649,-0.733 -0.95,-1 L 28.25,12.5 c 0.233,-0.167 0.267,-0.333 0.1,-0.5 -0.066,-0.1 -0.183,-0.133 -0.35,-0.1 -0.134,0.033 -0.217,0.1 -0.25,0.2 z m -7.1,5.9 c -0.033,0.033 -0.066,0.05 -0.1,0.05 -0.433,0.133 -0.633,0.033 -0.6,-0.3 0.033,-0.367 0.2,-0.617 0.5,-0.75 0.066,-0.033 0.133,-0.05 0.2,-0.05 -0.033,0.367 -0.033,0.717 0,1.05 z m 2.55,-1 c 0.033,-0.434 0.133,-0.767 0.3,-1 0.467,-0.434 0.767,-0.317 0.9,0.35 0.067,0.233 0.017,0.483 -0.15,0.75 -0.167,0.267 -0.417,0.433 -0.75,0.5 -0.267,0.067 -0.367,-0.133 -0.3,-0.6 z m 2.35,1.2 c -0.066,-0.1 -0.267,-0.066 -0.6,0.1 -0.233,0.1 -0.383,0.267 -0.45,0.5 -0.033,0.267 0.05,0.4 0.25,0.4 0.2,-0.033 0.317,-0.1 0.35,-0.2 0.066,-0.2 0.15,-0.333 0.25,-0.4 0.2,-0.2 0.267,-0.333 0.2,-0.4 z m -1.7,-1.6 c -0.167,0.066 -0.283,0.167 -0.35,0.3 -0.067,0.167 0,0.233 0.2,0.2 0.167,-0.067 0.316,-0.2 0.45,-0.4 0.133,-0.2 0.033,-0.233 -0.3,-0.1 z m -1.2,8.2 c -0.5,0.1 -0.717,-0.117 -0.65,-0.65 0.1,-0.5 0.333,-0.867 0.7,-1.1 1.367,-0.767 2.017,-0.583 1.95,0.55 -0.1,0.533 -0.767,0.933 -2,1.2 z m 0.3,-3.85 c -0.2,0.267 -0.483,0.483 -0.85,0.65 l -0.2,0.1 C 21.483,21.584 21.4,21.383 21.4,20.95 21.334,20.416 21.417,20.1 21.65,20 L 22,19.75 c 0.467,-0.233 0.783,-0.15 0.95,0.25 0.067,0.267 -0.017,0.533 -0.25,0.8 z m 1.65,-1.2 c -0.434,0.1 -0.617,-0.117 -0.55,-0.65 0.1,-0.534 0.417,-0.983 0.95,-1.35 0.633,-0.5 1.033,-0.184 1.2,0.95 -0.3,0.567 -0.833,0.917 -1.6,1.05 z M 26.5,21 c -0.467,0.1 -0.633,0.3 -0.5,0.6 0.033,0.133 0.116,0.283 0.25,0.45 -0.1,-0.233 0.066,-0.45 0.5,-0.65 0.2,-0.066 0.417,-0.133 0.65,-0.2 0.067,-0.3 -0.233,-0.367 -0.9,-0.2 z m -4.1,2.7 c -0.066,0.267 0.033,0.4 0.3,0.4 0.233,0 0.367,-0.05 0.4,-0.15 0.033,-0.2 0.083,-0.317 0.15,-0.35 0.233,-0.133 0.35,-0.283 0.35,-0.45 -0.033,-0.167 -0.217,-0.167 -0.55,0 -0.333,0.133 -0.55,0.317 -0.65,0.55 z M 32,19.75 V 19.7 c 0.082,0.22 0.165,0.437 0.25,0.65 0.323,0.891 0.606,1.674 0.85,2.35 0.067,0.867 -0.216,1.583 -0.85,2.15 -0.366,0.4 -1.283,1.017 -2.75,1.85 -1.1,0.633 -2.616,1.183 -4.55,1.649 -2.833,0.733 -4.517,1.2 -5.05,1.4 -1.167,0.366 -2.433,1.1 -3.8,2.2 -0.467,0.333 -1.233,0.983 -2.3,1.95 -0.233,0.166 -0.45,0.366 -0.65,0.6 -0.066,0.033 -0.117,0.066 -0.15,0.1 h 0.05 c -0.4,0.334 -0.783,0.667 -1.15,1 C 9.867,37.533 8.683,38.633 8.35,38.9 7.916,39.299 7.617,39.549 7.45,39.65 7.083,39.816 6.717,39.8 6.35,39.6 5.75,39.333 5.033,39.234 4.2,39.3 H 3.75 l 1,0.25 c 0.733,0.267 1.183,0.667 1.35,1.2 0.097,0.517 0.097,1.017 0,1.5 V 42.3 H 6.05 L 5.9,42.5 H 5.85 c -0.6,0.467 -1.267,0.75 -2,0.85 C 4.483,43.184 4.933,42.9 5.2,42.5 5.533,41.967 5.583,41.417 5.35,40.85 5.017,40.05 4.433,39.55 3.6,39.35 L 3.5,39.4 C 3.233,39.233 3.017,39.133 2.85,39.099 H 2.6 C 2.967,38.9 3.4,38.7 3.9,38.5 c 0.333,-0.066 0.767,-0.05 1.3,0.05 0.533,0.134 0.95,0.15 1.25,0.05 0.333,-0.166 0.933,-0.699 1.8,-1.6 1.567,-1.467 2.433,-2.3 2.6,-2.5 0.967,-0.866 2.066,-1.8 3.3,-2.8 -0.367,0.066 -0.433,-0.134 -0.2,-0.601 0.133,-0.433 0.35,-0.733 0.65,-0.899 0.867,-0.334 1.217,-0.25 1.05,0.25 2.033,-1.767 3.55,-2.8 4.55,-3.1 0.267,-0.033 0.6,-0.117 1,-0.25 0.066,-0.067 0.183,-0.167 0.35,-0.3 0.434,-0.3 0.9,-0.433 1.4,-0.4 0.767,-0.4 1.417,-0.816 1.95,-1.25 l 0.95,-0.85 -0.1,1.1 0.3,-0.1 c -0.167,-0.3 -0.066,-0.583 0.3,-0.85 0.167,-0.133 0.584,-0.317 1.25,-0.55 0.767,-0.267 1.217,-0.117 1.351,0.45 0.733,-0.3 1.399,-0.817 2,-1.55 0.688,-0.886 1.038,-1.903 1.049,-3.05 z M 25.55,21 c 0.267,-0.3 0.584,-0.5 0.95,-0.6 0.934,-0.133 1.4,0.1 1.4,0.7 0.033,0.566 -0.267,0.95 -0.9,1.15 -0.934,0.3 -1.517,0.117 -1.75,-0.55 -0.1,-0.2 0,-0.433 0.3,-0.7 z m 3,3.55 c -0.033,-0.333 -0.233,-0.45 -0.6,-0.35 -0.367,0.066 -0.783,0.283 -1.25,0.65 -0.3,0.3 -0.3,0.55 0,0.75 0.1,0.033 0.267,0.066 0.5,0.1 -0.233,-0.233 -0.05,-0.383 0.55,-0.45 0.3,-0.067 0.6,-0.1 0.9,-0.1 z m 9.05,-7.2 c 0.067,0.267 0.117,0.483 0.15,0.65 l 0.05,0.05 c -0.015,0.022 -0.031,0.047 -0.05,0.075 -0.033,0.065 -0.05,0.123 -0.05,0.175 l -0.351,0.5 H 37.3 c -0.033,0.067 -0.066,0.117 -0.1,0.15 -0.334,0.133 -0.634,0.033 -0.9,-0.3 -0.166,-0.3 -0.583,-1.066 -1.25,-2.3 -0.366,-0.667 -0.684,-1.217 -0.95,-1.65 0.067,-0.133 0.167,-0.25 0.301,-0.35 0.199,0.3 0.399,0.617 0.6,0.95 0.533,-0.267 0.917,-0.3 1.15,-0.1 0.1,0.066 0.183,0.233 0.25,0.5 0.1,0.267 0.116,0.45 0.05,0.55 0.033,0.133 -0.05,0.333 -0.25,0.6 l -0.101,0.1 c 0.4,0.433 0.684,0.5 0.851,0.2 0.133,-0.333 0.083,-0.883 -0.15,-1.65 l 0.101,0.05 c 0.133,0.3 0.25,0.567 0.35,0.8 l 0.1,0.25 c 0.098,0.3 0.181,0.55 0.248,0.75 z M 36.25,15.9 c 0,-0.066 -0.017,-0.1 -0.05,-0.1 -0.033,-0.033 -0.101,-0.083 -0.2,-0.15 l -0.35,0.15 c -0.167,0.067 -0.267,0.167 -0.301,0.3 -0.033,0.2 0,0.367 0.101,0.5 0.467,-0.167 0.733,-0.283 0.8,-0.35 C 36.15,16.283 36.066,16.267 36,16.2 35.9,16.133 35.95,16.067 36.15,16 Z M 34.5,15.65 35.75,19 c 0.2,1 0,1.817 -0.6,2.45 v 0.05 c -0.434,0.4 -0.834,0.567 -1.2,0.5 -0.3,-0.167 -0.634,-0.567 -1,-1.2 L 31.6,17.75 c 0.101,-0.133 0.233,-0.267 0.4,-0.4 0.033,0.066 0.083,0.133 0.15,0.2 L 32.4,17.3 v -0.05 c 0.899,-0.3 1.416,-0.367 1.55,-0.2 l 0.15,0.45 c 0.101,0.333 0.017,0.633 -0.25,0.9 -0.233,0.2 -0.416,0.367 -0.55,0.5 -0.133,0.067 -0.233,0.117 -0.3,0.15 0.333,0.367 0.616,0.65 0.85,0.85 0.4,0.267 0.684,0.1 0.851,-0.5 0.3,-1.066 0.184,-2.35 -0.351,-3.85 z m -1.95,2 H 32.5 c -0.2,0.2 -0.233,0.417 -0.1,0.65 0.1,0.233 0.267,0.317 0.5,0.25 -0.067,-0.167 -0.084,-0.3 -0.051,-0.4 0.034,-0.066 0.067,-0.133 0.101,-0.2 0.133,-0.133 0.366,-0.167 0.7,-0.1 0.033,-0.367 -0.15,-0.517 -0.551,-0.45 -0.099,0 -0.283,0.083 -0.549,0.25 z M 15.95,12.7 15.9,12.5 c -0.015,-0.051 -0.031,-0.101 -0.05,-0.15 0.367,0 0.633,-0.233 0.8,-0.7 0.167,-0.5 0.1,-1.05 -0.2,-1.65 C 15.85,8.833 15.083,8.183 14.15,8.05 14.183,8.017 14.217,8 14.25,8 c 0.067,-0.033 0.167,-0.05 0.3,-0.05 0.9,0.433 1.667,1.066 2.3,1.9 0.6,0.733 0.95,1.267 1.05,1.6 0.067,0.333 -0.1,0.6 -0.5,0.8 -0.367,0.167 -0.833,0.317 -1.4,0.45 z m 1.65,10.6 c -0.333,-0.033 -0.4,-0.267 -0.2,-0.7 0.167,-0.4 0.4,-0.65 0.7,-0.75 0.433,-0.1 0.55,0.133 0.35,0.7 -0.233,0.533 -0.517,0.783 -0.85,0.75 z m 0.15,-0.25 c 0.433,-0.066 0.567,-0.3 0.4,-0.7 l -0.4,0.3 c -0.067,0.167 -0.067,0.3 0,0.4 z m 0.7,2.95 c -0.067,-0.1 -0.15,-0.133 -0.25,-0.1 -0.7,0.233 -0.917,0.483 -0.65,0.75 0.267,0.167 0.45,0.167 0.55,0 -0.033,-0.033 -0.05,-0.066 -0.05,-0.1 0.034,-0.066 0.117,-0.15 0.25,-0.25 0.167,-0.067 0.217,-0.167 0.15,-0.3 z m 0.45,-0.95 c 0.067,0.067 0.117,0.3 0.15,0.7 0.267,0.667 -0.267,1.133 -1.6,1.4 -0.7,0.167 -0.9,-0.066 -0.6,-0.7 0.233,-0.567 0.55,-0.967 0.95,-1.2 0.6,-0.333 0.967,-0.4 1.1,-0.2 z M 15,30.8 c 0.067,-0.133 -0.05,-0.149 -0.35,-0.05 -0.167,0.066 -0.3,0.233 -0.4,0.5 -0.067,0.267 0.033,0.3 0.3,0.1 0.067,-0.066 0.133,-0.1 0.2,-0.1 0.033,-0.066 0.067,-0.1 0.1,-0.1 0.067,-0.1 0.117,-0.216 0.15,-0.35 z m 8.15,-3.3 v -0.1 c 0.033,-0.533 -0.283,-0.683 -0.95,-0.45 -0.333,0.167 -0.583,0.383 -0.75,0.65 -0.167,0.333 -0.067,0.534 0.3,0.6 h 0.15 c 0.3,-0.033 0.483,-0.084 0.55,-0.15 0,-0.033 -0.017,-0.083 -0.05,-0.15 -0.033,-0.1 -0.017,-0.183 0.05,-0.25 0.2,-0.1 0.383,-0.15 0.55,-0.15 z"
   fill="#b4ac94"
   id="path20" />

	<path
   d="m 31.55,12.1 c 0.292,0.117 0.533,0.25 0.726,0.4 l 0.425,0.3 c -0.101,0.034 -0.167,0.083 -0.2,0.15 C 32.233,12.617 31.917,12.333 31.55,12.1 Z M 34.9,11.25 34.6,11.1 c -0.3,0.133 -0.383,0.267 -0.25,0.4 0.233,-0.033 0.417,-0.117 0.55,-0.25 z m -3.6,6.9 c -0.033,0.033 -0.066,0.067 -0.1,0.1 0,0.033 0.017,0.067 0.05,0.1 0.134,0.533 0.05,0.9 -0.25,1.1 -0.3,0.1 -0.5,0.167 -0.6,0.2 l -0.3,0.15 c -0.733,0.4 -1.483,0.2 -2.25,-0.6 -0.6,-0.5 -1,-1.2 -1.199,-2.1 0.199,0.6 0.583,1.167 1.149,1.7 l 0.101,0.05 0.05,0.05 c 0.333,0.167 0.649,0.184 0.95,0.05 0.566,-0.267 1.216,-0.817 1.949,-1.65 h 0.05 l 0.05,-0.1 c 0.066,-0.1 0.149,-0.184 0.25,-0.25 0.1,-0.133 0.217,-0.267 0.35,-0.4 0.434,-0.433 0.934,-0.966 1.5,-1.6 0,-0.034 0.017,-0.067 0.05,-0.1 0.067,-0.1 0.167,-0.184 0.301,-0.25 0.066,-0.1 0.149,-0.2 0.25,-0.3 0.033,-0.066 0.083,-0.133 0.149,-0.2 0.033,-0.1 0.101,-0.184 0.2,-0.25 0.267,-0.267 0.467,-0.517 0.6,-0.75 0.167,-0.233 0.284,-0.45 0.351,-0.65 v -0.1 c 0,-0.133 0.017,-0.233 0.05,-0.3 C 34.949,12.017 34.899,12 34.85,12 34.784,11.933 34.701,11.917 34.6,11.95 34.333,11.717 34.017,11.483 33.651,11.25 l 0.5,-0.2 c 0.166,0 0.517,0.017 1.05,0.05 l 1.825,0.55 c 0.036,0.028 0.078,0.062 0.125,0.1 0.3,0.233 0.566,0.467 0.8,0.7 0.366,0.3 0.583,0.533 0.649,0.7 0.134,0.133 0.4,0.017 0.801,-0.35 0.466,-0.433 0.733,-0.883 0.8,-1.35 -0.033,0.533 -0.351,1.316 -0.95,2.35 -0.023,0.047 -0.048,0.097 -0.075,0.15 -0.026,0.021 -0.052,0.046 -0.075,0.075 v 0.025 c -0.077,0.133 -0.16,0.266 -0.25,0.4 l -0.149,0.3 c -0.033,-0.2 -0.066,-0.383 -0.101,-0.55 l 0.051,0.95 c -0.134,0.533 -0.367,0.867 -0.7,1 -0.334,0.133 -0.584,0.05 -0.75,-0.25 -0.101,-0.2 -0.217,-0.367 -0.351,-0.5 l -1.399,-2.3 c -0.101,-0.1 -0.184,-0.217 -0.25,-0.35 -0.066,0.1 -0.101,0.217 -0.101,0.35 -0.033,0.066 -0.083,0.183 -0.149,0.35 -0.134,0.2 -0.316,0.5 -0.55,0.9 -0.134,0.1 -0.233,0.217 -0.301,0.35 0.267,0.433 0.584,0.983 0.95,1.65 0.667,1.233 1.084,2 1.25,2.3 0.267,0.333 0.566,0.434 0.9,0.3 0.033,-0.034 0.066,-0.083 0.1,-0.15 h 0.05 l 0.351,-0.5 c 0,-0.052 0.017,-0.11 0.05,-0.175 0.033,0.284 0.05,0.56 0.05,0.825 0,0.033 -0.017,0.083 -0.05,0.15 0,0.167 -0.05,0.35 -0.15,0.55 v 0.1 c -0.033,0.1 -0.083,0.167 -0.149,0.2 v 0.1 c -0.032,0.022 -0.066,0.039 -0.101,0.05 -0.454,0.237 -0.838,-0.096 -1.149,-1 -0.167,-0.4 -0.5,-1 -1,-1.8 -0.033,-0.1 -0.066,-0.183 -0.101,-0.25 -0.166,-0.5 -0.366,-0.966 -0.6,-1.4 -0.066,-0.1 -0.116,-0.217 -0.15,-0.35 L 34,14.8 c -0.033,0.067 -0.066,0.15 -0.1,0.25 -0.334,0.367 -0.684,0.767 -1.051,1.2 -0.1,0.1 -0.183,0.217 -0.25,0.35 -0.233,0.267 -0.433,0.517 -0.6,0.75 -0.167,0.133 -0.3,0.267 -0.4,0.4 l 1.351,3.05 c 0.366,0.633 0.7,1.034 1,1.2 0.366,0.067 0.767,-0.1 1.2,-0.5 v -0.05 c 0.6,-0.633 0.8,-1.45 0.6,-2.45 0.167,0.567 0.283,1.05 0.35,1.45 v 0.5 c 0,0.066 0.017,0.15 0.051,0.25 -0.101,0.833 -0.784,1.433 -2.051,1.8 -0.3,0.067 -0.55,-0.133 -0.75,-0.6 -0.366,-0.933 -0.699,-1.783 -1,-2.55 -0.233,-0.5 -0.55,-1.117 -0.949,-1.85 -0.034,0.033 -0.067,0.067 -0.101,0.1 z m 0.2,-6.55 c 0.267,-0.1 0.417,-0.133 0.45,-0.1 0.066,0 0.149,0.15 0.25,0.45 -0.066,0.1 -0.167,0.15 -0.3,0.15 H 31.75 L 31.7,12 31.6,11.9 Z m -5.4,-1.25 c 0.032,0.033 0.032,0.083 0,0.15 0.134,0.4 0.084,0.8 -0.149,1.2 -0.167,0.267 -0.333,0.433 -0.5,0.5 -0.367,0.133 -0.883,0.183 -1.55,0.15 l -0.55,-0.05 -0.2,-0.05 -0.85,-0.1 -0.4,-0.05 -0.1,-0.35 c -0.066,-0.2 -0.05,-0.417 0.05,-0.65 0.1,0.133 0.233,0.267 0.4,0.4 0.1,0.1 0.217,0.183 0.35,0.25 0.1,0.067 0.233,0.117 0.4,0.15 0.167,0.067 0.367,0.1 0.6,0.1 h 0.05 c -0.064,-0.032 -0.114,-0.049 -0.15,-0.05 h 0.2 c 0.333,-0.1 0.667,-0.317 1,-0.65 0.433,-0.367 0.716,-0.8 0.85,-1.3 0,-0.033 0.017,-0.067 0.05,-0.1 0.233,-1.1 0.233,-3.467 0,-7.1 -0.1,-1.466 -0.2,-2.3 -0.3,-2.5 h 0.1 c 0.133,0.067 0.267,0.267 0.4,0.6 V 0.95 C 26,1.483 26.15,2.933 26.25,5.3 26.384,7.633 26.4,8.984 26.3,9.35 v 0.3 c -0.033,0.3 -0.1,0.533 -0.2,0.7 z m 3.15,3.95 v -0.05 c -0.6,-0.867 -1.184,-1.633 -1.75,-2.3 l 0.25,0.15 c 0.033,-0.1 0.116,-0.167 0.25,-0.2 0.167,-0.033 0.283,0 0.35,0.1 0.167,0.167 0.134,0.333 -0.1,0.5 l 0.35,0.25 c 0.301,0.267 0.617,0.6 0.95,1 0.101,0.133 0.184,0.25 0.25,0.35 -0.2,0.067 -0.383,0.133 -0.55,0.2 z m -5.65,2.15 c 0.333,-0.133 0.433,-0.1 0.3,0.1 -0.133,0.2 -0.283,0.333 -0.45,0.4 -0.2,0.033 -0.267,-0.034 -0.2,-0.2 0.067,-0.133 0.183,-0.233 0.35,-0.3 z m 1.7,1.6 c 0.067,0.067 0,0.2 -0.2,0.4 -0.1,0.066 -0.184,0.2 -0.25,0.4 -0.033,0.1 -0.15,0.167 -0.35,0.2 -0.2,0 -0.283,-0.133 -0.25,-0.4 0.067,-0.233 0.217,-0.4 0.45,-0.5 0.333,-0.167 0.533,-0.2 0.6,-0.1 z m -2.9,5.65 c 0.1,-0.233 0.317,-0.417 0.65,-0.55 0.333,-0.167 0.517,-0.167 0.55,0 0,0.167 -0.117,0.317 -0.35,0.45 -0.067,0.033 -0.117,0.15 -0.15,0.35 -0.033,0.1 -0.167,0.15 -0.4,0.15 -0.267,0 -0.367,-0.133 -0.3,-0.4 z M 26.5,21 c 0.667,-0.167 0.967,-0.1 0.9,0.2 -0.233,0.066 -0.45,0.133 -0.65,0.2 -0.434,0.2 -0.6,0.417 -0.5,0.65 C 26.116,21.883 26.033,21.734 26,21.6 25.867,21.3 26.033,21.1 26.5,21 Z m 7.1,3.7 c -0.166,0.667 -0.5,1.233 -1,1.7 -0.466,0.434 -1.199,0.9 -2.199,1.4 -0.834,0.434 -2.601,0.95 -5.3,1.55 -3.033,0.801 -4.95,1.334 -5.75,1.601 -1.167,0.434 -3.017,1.633 -5.55,3.6 -0.133,0.066 -0.25,0.15 -0.35,0.25 -0.167,0.134 -0.333,0.25 -0.5,0.351 -0.1,0.1 -0.2,0.183 -0.3,0.25 v 0.05 c -2.133,1.934 -3.867,3.399 -5.2,4.399 -0.4,0.267 -0.667,0.45 -0.8,0.551 -0.2,0.199 -0.267,0.449 -0.2,0.75 0.066,0.333 0.033,0.649 -0.1,0.949 H 6.3 l -0.2,0.15 c 0.097,-0.483 0.097,-0.983 0,-1.5 -0.167,-0.533 -0.617,-0.934 -1.35,-1.2 l -1,-0.25 H 4.2 c 0.833,-0.066 1.55,0.033 2.15,0.3 0.367,0.2 0.733,0.217 1.1,0.051 0.167,-0.101 0.466,-0.351 0.9,-0.75 0.333,-0.267 1.517,-1.367 3.55,-3.301 0.367,-0.333 0.75,-0.666 1.15,-1 H 13 c 0.033,-0.033 0.083,-0.066 0.15,-0.1 0.2,-0.233 0.417,-0.434 0.65,-0.6 1.067,-0.967 1.833,-1.617 2.3,-1.95 1.367,-1.101 2.633,-1.834 3.8,-2.2 0.533,-0.2 2.217,-0.667 5.05,-1.4 1.934,-0.466 3.45,-1.016 4.55,-1.649 1.467,-0.833 2.384,-1.45 2.75,-1.85 0.634,-0.567 0.917,-1.283 0.85,-2.15 l 0.2,0.6 c 0.101,0.434 0.184,0.8 0.25,1.1 l 0.05,0.25 z m -5.05,-0.15 0.101,0.6 c -0.301,0 -0.601,0.033 -0.9,0.1 -0.6,0.067 -0.783,0.217 -0.55,0.45 -0.233,-0.034 -0.4,-0.067 -0.5,-0.1 -0.3,-0.2 -0.3,-0.45 0,-0.75 0.467,-0.367 0.883,-0.583 1.25,-0.65 0.365,-0.1 0.566,0.017 0.599,0.35 z m 7.7,-8.65 -0.1,0.1 c -0.2,0.067 -0.25,0.133 -0.15,0.2 0.066,0.066 0.15,0.083 0.25,0.05 -0.066,0.067 -0.333,0.183 -0.8,0.35 -0.101,-0.133 -0.134,-0.3 -0.101,-0.5 0.034,-0.133 0.134,-0.233 0.301,-0.3 L 36,15.65 c 0.1,0.067 0.167,0.117 0.2,0.15 0.033,0 0.05,0.033 0.05,0.1 z m -3.7,1.75 C 32.817,17.483 33,17.4 33.1,17.4 c 0.4,-0.066 0.584,0.083 0.551,0.45 -0.334,-0.067 -0.567,-0.033 -0.7,0.1 -0.033,0.066 -0.066,0.133 -0.101,0.2 -0.033,0.1 -0.017,0.233 0.051,0.4 -0.233,0.067 -0.4,-0.017 -0.5,-0.25 -0.134,-0.233 -0.101,-0.45 0.1,-0.65 z M 19.6,11.95 c -1.167,0.566 -2.35,0.867 -3.55,0.9 -0.033,-0.033 -0.066,-0.083 -0.1,-0.15 H 16 c 0.567,-0.133 1.033,-0.284 1.4,-0.45 0.4,-0.2 0.567,-0.467 0.5,-0.8 -0.1,-0.333 -0.45,-0.867 -1.05,-1.6 -0.633,-0.833 -1.4,-1.467 -2.3,-1.9 h 0.25 c 0.034,0.033 0.1,0.066 0.2,0.1 0.4,0.2 1.25,0.867 2.55,2 1.033,0.933 1.717,1.567 2.05,1.9 z m -1.85,11.1 c -0.067,-0.1 -0.067,-0.233 0,-0.4 l 0.4,-0.3 c 0.167,0.4 0.033,0.633 -0.4,0.7 z m 0.7,2.95 c 0.066,0.133 0.017,0.233 -0.15,0.3 -0.133,0.1 -0.216,0.184 -0.25,0.25 0,0.034 0.017,0.067 0.05,0.1 -0.1,0.167 -0.283,0.167 -0.55,0 -0.267,-0.267 -0.05,-0.517 0.65,-0.75 0.1,-0.033 0.183,0 0.25,0.1 z M 15,30.8 c -0.033,0.134 -0.083,0.25 -0.15,0.351 -0.033,0 -0.067,0.033 -0.1,0.1 -0.067,0 -0.133,0.033 -0.2,0.1 -0.267,0.2 -0.367,0.167 -0.3,-0.1 0.1,-0.267 0.233,-0.434 0.4,-0.5 0.3,-0.101 0.417,-0.084 0.35,0.049 z M 1.65,42.15 2.15,42.5 c -0.167,-0.9 0.317,-1.384 1.45,-1.45 0.233,0 0.433,0.017 0.6,0.05 L 3.9,40.8 c 0.167,0.101 0.3,0.233 0.4,0.4 V 42 L 4.2,42.1 C 4.133,42.2 4.067,42.316 4,42.45 3.708,42.644 3.258,42.727 2.65,42.7 2.626,42.692 2.6,42.684 2.575,42.675 L 2.6,42.7 C 2.167,42.6 1.85,42.417 1.65,42.15 Z M 23.15,27.5 H 23 c -0.167,0 -0.35,0.05 -0.55,0.15 -0.067,0.067 -0.083,0.15 -0.05,0.25 0.033,0.067 0.05,0.117 0.05,0.15 -0.067,0.066 -0.25,0.117 -0.55,0.15 h -0.15 c -0.367,-0.066 -0.467,-0.267 -0.3,-0.6 0.167,-0.267 0.417,-0.483 0.75,-0.65 0.667,-0.233 0.983,-0.083 0.95,0.45 z"
   fill="#8e8772"
   id="path22" />

		<linearGradient
   id="j"
   x1="-36.410999"
   x2="-30.934999"
   y1="25.749001"
   y2="25.749001"
   gradientTransform="matrix(-0.2511,-0.968,0.8727,-0.6182,2.3419e-4,-6.1643e-4)"
   gradientUnits="userSpaceOnUse">
		<stop
   stop-color="#988F7D"
   offset="0"
   id="stop24" />

		<stop
   stop-color="#C7C2B8"
   offset=".3569"
   id="stop26" />

		<stop
   stop-color="#DAD9D6"
   offset=".9922"
   id="stop28" />

	</linearGradient>

	<path
   d="m 32.95,12.7 c 0.3,-0.133 0.583,-0.267 0.85,-0.4 0.066,-0.066 0.134,-0.117 0.2,-0.15 h 0.05 c 0.101,0.167 0.134,0.35 0.101,0.55 -0.034,0.2 -0.184,0.466 -0.45,0.8 -0.066,0.067 -0.117,0.133 -0.15,0.2 -0.066,0.066 -0.116,0.133 -0.149,0.2 -0.067,0.033 -0.117,0.067 -0.15,0.1 -0.1,0.067 -0.167,0.133 -0.2,0.2 -0.1,0.033 -0.149,0.083 -0.149,0.15 -0.733,0.733 -1.267,1.25 -1.601,1.55 -0.2,0.133 -0.333,0.25 -0.399,0.35 l -0.15,0.15 c 0,0 -0.083,0.083 -0.15,0.15 -1.267,1.133 -2.1,1.684 -2.5,1.65 -0.333,0.033 -0.666,-0.284 -1,-0.95 -0.3,-0.533 -0.483,-1.1 -0.55,-1.7 -0.066,0.233 -0.083,0.483 -0.05,0.75 -0.033,-0.133 -0.05,-0.25 -0.05,-0.35 0,-0.6 0.2,-0.917 0.6,-0.95 0.334,-0.033 1.066,-0.267 2.2,-0.7 0.167,-0.066 0.35,-0.133 0.55,-0.2 0.267,-0.1 0.533,-0.233 0.8,-0.4 0.4,-0.167 0.767,-0.317 1.101,-0.45 0.066,-0.033 0.149,-0.067 0.25,-0.1 0.2,-0.066 0.383,-0.133 0.55,-0.2 0.033,-0.067 0.1,-0.117 0.2,-0.15 0.063,-0.033 0.146,-0.067 0.246,-0.1 z m -2.6,2.4 c 0.034,-0.033 0.067,-0.067 0.101,-0.1 0.666,-0.367 1.217,-0.733 1.649,-1.1 0.134,-0.066 0.25,-0.133 0.351,-0.2 0,-0.034 0.017,-0.067 0.05,-0.1 0.1,-0.1 0.233,-0.2 0.4,-0.3 0.033,-0.066 0.1,-0.133 0.199,-0.2 0.034,-0.033 0.067,-0.083 0.101,-0.15 l 0.25,-0.45 c -0.2,0.1 -0.367,0.167 -0.5,0.2 -0.066,0.033 -0.117,0.083 -0.15,0.15 -0.1,0.033 -0.2,0.066 -0.3,0.1 -0.167,0.1 -0.35,0.183 -0.55,0.25 -0.101,0.033 -0.184,0.066 -0.25,0.1 -0.634,0.3 -1.25,0.567 -1.851,0.8 -0.199,0.066 -0.383,0.15 -0.55,0.25 -0.566,0.2 -1.083,0.367 -1.55,0.5 -0.2,0.267 -0.333,0.5 -0.4,0.7 -0.066,0.3 0.067,0.467 0.4,0.5 0.333,0.133 1.066,-0.117 2.2,-0.75 0.133,-0.067 0.267,-0.133 0.4,-0.2 z"
   fill="url(#j)"
   id="path31" />

		<linearGradient
   id="k"
   x1="-28.115"
   x2="-23.996"
   y1="32.756001"
   y2="32.756001"
   gradientTransform="matrix(-0.3217,-0.9468,0.9357,-0.3545,1.2475e-4,5.4181e-4)"
   gradientUnits="userSpaceOnUse">
		<stop
   stop-color="#988F7D"
   offset="0"
   id="stop33" />

		<stop
   stop-color="#C7C2B8"
   offset=".3569"
   id="stop35" />

		<stop
   stop-color="#DAD9D6"
   offset=".9922"
   id="stop37" />

	</linearGradient>

	<path
   d="m 36.5,11.25 0.05,-0.05 0.05,0.1 c -0.067,0 -0.1,-0.017 -0.1,-0.05 z m 3.1,-0.7 c 0.067,-0.033 0.134,-0.066 0.2,-0.1 0.101,0 0.167,0.017 0.2,0.05 -0.033,0.4 -0.25,0.833 -0.65,1.3 -0.3,0.4 -0.55,0.617 -0.75,0.65 -0.166,0.033 -0.466,-0.15 -0.899,-0.55 -0.5,-0.433 -0.884,-0.667 -1.15,-0.7 0.434,-0.1 0.95,-0.217 1.55,-0.35 -0.399,0.167 -0.649,0.35 -0.75,0.55 -0.1,0.2 0.017,0.283 0.351,0.25 0.434,-0.033 0.833,-0.133 1.2,-0.3 0.366,-0.2 0.6,-0.417 0.699,-0.65 v -0.15 z m 0.7,0.6 c 0.033,0.467 -0.267,1.283 -0.899,2.45 -0.07,0.111 -0.146,0.228 -0.226,0.35 L 39.25,13.8 c 0.6,-1.033 0.917,-1.816 0.95,-2.35 z"
   fill="url(#k)"
   id="path40" />

		<linearGradient
   id="l"
   x1="-31.792"
   x2="-25.597"
   y1="27.781"
   y2="27.781"
   gradientTransform="matrix(-0.4277,-0.9039,0.8961,-0.4442,-2.4736e-5,-2.9564e-4)"
   gradientUnits="userSpaceOnUse">
		<stop
   stop-color="#988F7D"
   offset="0"
   id="stop42" />

		<stop
   stop-color="#C7C2B8"
   offset=".3569"
   id="stop44" />

		<stop
   stop-color="#DAD9D6"
   offset=".9922"
   id="stop46" />

	</linearGradient>

	<path
   d="m 34.7,10.8 c 0.6,-0.033 1.2,0.117 1.8,0.45 0,0.033 0.033,0.05 0.1,0.05 0.095,0.075 0.194,0.159 0.301,0.25 -0.72,-0.5 -1.454,-0.75 -2.201,-0.75 z m 3.75,5.45 c 0.1,-0.3 0.166,-0.667 0.2,-1.1 L 38.6,14.2 c 0.034,0.167 0.067,0.35 0.101,0.55 -10e-4,0.567 -0.085,1.067 -0.251,1.5 z"
   fill="url(#l)"
   id="path49" />

		<linearGradient
   id="m"
   x1="-28.747"
   x2="-23.667999"
   y1="0.9307"
   y2="0.9307"
   gradientTransform="matrix(-0.9598,-0.2806,0.2624,-0.9652,1.5771e-4,-7.9572e-4)"
   gradientUnits="userSpaceOnUse">
		<stop
   stop-color="#988F7D"
   offset="0"
   id="stop51" />

		<stop
   stop-color="#C7C2B8"
   offset=".3569"
   id="stop53" />

		<stop
   stop-color="#DAD9D6"
   offset=".9922"
   id="stop55" />

	</linearGradient>

	<path
   d="m 25.3,0.3 c -0.167,0 -0.333,0.167 -0.5,0.5 0.233,1 0.35,2.367 0.35,4.1 0.033,1.633 -0.15,3.05 -0.55,4.25 -0.067,0.333 -0.167,0.633 -0.3,0.9 -0.133,0.167 -0.216,0.317 -0.25,0.45 -0.3,0.4 -0.6,0.633 -0.9,0.7 -0.167,0.066 -0.333,0.083 -0.5,0.05 -0.033,-0.033 -0.083,-0.05 -0.15,-0.05 -0.033,-0.1 -0.067,-0.184 -0.1,-0.25 -0.066,0 -0.1,-0.017 -0.1,-0.05 -0.1,-0.167 -0.167,-0.35 -0.2,-0.55 -0.067,-0.2 -0.1,-0.4 -0.1,-0.6 -0.032,-0.035 -0.016,-0.102 0.05,-0.2 0.3,-0.7 0.733,-2 1.3,-3.9 0.633,-2.1 1.05,-3.533 1.25,-4.3 0.133,-0.633 0.3,-0.983 0.5,-1.05 0.1,-0.033 0.2,-0.033 0.3,0 z m -3.45,10.8 c -0.067,-0.1 -0.1,-0.184 -0.1,-0.25 0.033,0.1 0.1,0.217 0.2,0.35 0.2,0.233 0.433,0.4 0.7,0.5 0.067,0.066 0.184,0.117 0.35,0.15 0.167,0.066 0.333,0.1 0.5,0.1 0.036,0.001 0.085,0.018 0.15,0.05 H 23.6 C 23.367,12 23.166,11.967 23,11.9 22.833,11.867 22.7,11.817 22.6,11.75 22.467,11.683 22.35,11.6 22.25,11.5 c -0.167,-0.133 -0.3,-0.267 -0.4,-0.4 z m 1.3,-1.55 C 24.783,4.683 25.167,2.6 24.3,3.3 l -1.75,6.1 c 0.034,0.2 0.117,0.317 0.25,0.35 0.133,0.067 0.25,0 0.35,-0.2 z"
   fill="url(#m)"
   id="path58" />

	<path
   d="m 3.6,39.35 c 0.267,0.134 0.566,0.334 0.9,0.601 L 2.9,39.9 C 2.267,39.866 1.767,39.983 1.4,40.25 1,40.583 0.85,41.017 0.95,41.55 1.05,42.017 1.4,42.517 2,43.05 1.8,42.984 1.633,42.917 1.5,42.85 1.333,42.75 1.2,42.667 1.1,42.6 0.533,42.134 0.416,41.5 0.75,40.701 c 0,-0.066 0.367,-0.717 1.1,-1.95 0.167,-0.333 0.967,-1.033 2.4,-2.1 l 0.3,-0.2 c 0.1,-0.066 0.2,-0.15 0.3,-0.25 0.4,-0.233 0.767,-0.467 1.1,-0.7 0.633,-0.6 1.316,-1.2 2.05,-1.8 2.5,-2.233 4.25,-4.384 5.25,-6.45 0.833,-1.733 1.817,-4.1 2.95,-7.1 1.033,-2.967 1.833,-4.983 2.4,-6.05 0.267,-0.5 0.55,-1 0.85,-1.5 l 0.6,-0.9 c 0.633,-0.867 1.267,-1.55 1.9,-2.05 0,-0.033 0.033,-0.066 0.1,-0.1 C 21.985,9.65 21.968,9.717 22,9.751 21.967,9.717 21.95,9.684 21.95,9.651 l -0.1,0.25 c -0.267,0.4 -0.517,0.8 -0.75,1.2 -0.1,0.1 -0.167,0.2 -0.2,0.3 -0.566,0.967 -1.033,1.917 -1.4,2.85 -0.4,0.833 -0.867,2.133 -1.4,3.9 -0.567,1.9 -0.967,3.15 -1.2,3.75 -0.633,1.8 -1.283,3.283 -1.95,4.45 -1.233,2.133 -2.867,4.167 -4.9,6.1 C 9.683,32.816 9.333,33.167 9,33.5 8.8,33.634 8.633,33.767 8.5,33.9 8.533,34.033 8.417,34.316 8.15,34.75 7.75,35.25 7.217,35.767 6.55,36.3 5.517,37.033 4.1,37.967 2.3,39.1 h 0.55 c 0.167,0.034 0.383,0.134 0.65,0.301 z M 23.15,9.55 C 23.05,9.75 22.933,9.817 22.8,9.75 22.667,9.717 22.584,9.6 22.55,9.4 L 24.3,3.3 c 0.867,-0.7 0.483,1.383 -1.15,6.25 z m 7.2,5.55 c -0.133,0.066 -0.267,0.133 -0.399,0.2 -1.134,0.633 -1.867,0.883 -2.2,0.75 -0.333,-0.033 -0.467,-0.2 -0.4,-0.5 0.067,-0.2 0.2,-0.433 0.4,-0.7 0.467,-0.133 0.983,-0.3 1.55,-0.5 0.167,-0.1 0.351,-0.184 0.55,-0.25 0.601,-0.233 1.217,-0.5 1.851,-0.8 0.066,-0.033 0.149,-0.066 0.25,-0.1 0.2,-0.067 0.383,-0.15 0.55,-0.25 0.1,-0.034 0.2,-0.067 0.3,-0.1 0.033,-0.067 0.084,-0.117 0.15,-0.15 0.133,-0.034 0.3,-0.1 0.5,-0.2 l -0.25,0.45 c -0.033,0.066 -0.066,0.117 -0.101,0.15 -0.1,0.066 -0.166,0.133 -0.199,0.2 -0.167,0.1 -0.301,0.2 -0.4,0.3 -0.033,0.033 -0.05,0.066 -0.05,0.1 -0.101,0.066 -0.217,0.133 -0.351,0.2 -0.433,0.367 -0.983,0.733 -1.649,1.1 -0.035,0.033 -0.068,0.067 -0.102,0.1 z M 14.9,9.95 c -0.4,-0.934 -0.5,-1.333 -0.3,-1.2 0.6,0.4 1.066,1.083 1.4,2.05 0.067,0.133 0.083,0.284 0.05,0.45 -0.033,0.2 -0.117,0.267 -0.25,0.2 -0.133,-0.067 -0.433,-0.567 -0.9,-1.5 z M 4.3,41.2 c 0.534,0.3 0.567,0.7 0.1,1.2 C 3.993,42.869 3.41,42.968 2.65,42.7 3.258,42.727 3.708,42.644 4,42.45 4.067,42.316 4.133,42.2 4.2,42.099 l 0.1,-0.1 z"
   fill="#e6e6e1"
   id="path60" />

	<path
   d="m 21.1,11.1 c 0.2,-0.133 0.383,-0.267 0.55,-0.4 0,0.066 0.033,0.117 0.1,0.15 H 21.5 c -0.167,0.066 -0.367,0.25 -0.6,0.55 0.033,-0.1 0.1,-0.2 0.2,-0.3 z M 5.95,35.5 C 5.617,35.733 5.25,35.967 4.85,36.2 4.85,34.3 4.633,32.45 4.2,30.65 3,27.616 2.217,25.383 1.85,23.95 1.25,21.45 1.8,18.933 3.5,16.4 5.133,14 7.233,12.717 9.8,12.55 c 1.434,-0.066 3.517,0.034 6.25,0.3 1.2,-0.033 2.383,-0.333 3.55,-0.9 0.167,-0.067 0.316,-0.15 0.45,-0.25 l -0.6,0.9 c -0.934,0.4 -1.883,0.633 -2.85,0.7 -2.6,-0.333 -4.583,-0.45 -5.95,-0.35 -2.467,0.167 -4.483,1.433 -6.05,3.8 -1.6,2.4 -2.117,4.8 -1.55,7.2 0.367,1.433 1.117,3.617 2.25,6.55 0.4,1.6 0.617,3.267 0.65,5 z"
   fill="#dadad6"
   id="path62" />

	<path
   d="m 25.55,21 c -0.3,0.267 -0.4,0.5 -0.3,0.7 0.233,0.667 0.816,0.85 1.75,0.55 0.634,-0.2 0.934,-0.583 0.9,-1.15 0,-0.6 -0.467,-0.833 -1.4,-0.7 -0.366,0.1 -0.683,0.3 -0.95,0.6 z M 32,19.75 c -0.011,1.147 -0.361,2.164 -1.05,3.05 -0.601,0.733 -1.267,1.25 -2,1.55 -0.134,-0.567 -0.584,-0.717 -1.351,-0.45 -0.666,0.233 -1.083,0.417 -1.25,0.55 -0.366,0.267 -0.466,0.55 -0.3,0.85 l -0.3,0.1 0.1,-1.1 -0.95,0.85 c -0.533,0.434 -1.183,0.85 -1.95,1.25 -0.5,-0.033 -0.967,0.1 -1.4,0.4 -0.167,0.133 -0.283,0.233 -0.35,0.3 -0.4,0.133 -0.733,0.217 -1,0.25 -1,0.3 -2.517,1.333 -4.55,3.1 0.167,-0.5 -0.183,-0.584 -1.05,-0.25 -0.3,0.166 -0.517,0.467 -0.65,0.899 -0.233,0.467 -0.167,0.667 0.2,0.601 -1.233,1 -2.333,1.934 -3.3,2.8 -0.167,0.2 -1.033,1.033 -2.6,2.5 -0.867,0.9 -1.467,1.434 -1.8,1.6 -0.3,0.101 -0.717,0.084 -1.25,-0.05 -0.534,-0.1 -0.967,-0.116 -1.3,-0.05 -0.5,0.2 -0.933,0.4 -1.3,0.6 H 2.3 c 1.8,-1.133 3.217,-2.066 4.25,-2.8 0.667,-0.533 1.2,-1.05 1.6,-1.55 0.267,-0.434 0.383,-0.717 0.35,-0.85 0.133,-0.134 0.3,-0.267 0.5,-0.4 0.533,-0.366 0.85,-0.583 0.95,-0.65 0.966,-0.666 1.7,-1.283 2.2,-1.85 2.067,-1.934 3.55,-3.767 4.45,-5.5 0.233,-0.4 0.4,-1.1 0.5,-2.1 0.1,-0.867 0.316,-1.5 0.65,-1.9 l 1.1,-1.25 c 0.3,-0.367 0.4,-0.75 0.3,-1.15 -0.1,-0.5 -0.033,-1.167 0.2,-2 0.267,-0.9 0.55,-1.333 0.85,-1.3 0.333,-0.033 0.583,0.067 0.75,0.3 -0.067,-0.2 -0.15,-0.4 -0.25,-0.6 -0.133,-0.533 -0.184,-0.95 -0.15,-1.25 0.067,-0.367 0.284,-0.783 0.65,-1.25 0.333,-0.5 0.617,-0.733 0.85,-0.7 0.1,0 0.184,-0.05 0.25,-0.15 l 0.85,0.1 c -0.033,0.1 -0.033,0.183 0,0.25 l 0.2,-0.2 0.55,0.05 c 0.667,0.033 1.184,-0.017 1.55,-0.15 0.3,-0.034 0.5,-0.117 0.6,-0.25 0.134,-0.1 0.267,-0.333 0.4,-0.7 l 0.1,-0.35 -0.399,-0.5 -0.051,0.1 c 0.032,-0.066 0.032,-0.117 0,-0.15 0.018,0.017 0.034,0.034 0.051,0.05 0.152,0.153 0.319,0.32 0.5,0.5 l 0.05,0.05 c 0.3,0.3 0.566,0.633 0.8,1 0.566,0.667 1.15,1.433 1.75,2.3 v 0.05 c -1.134,0.434 -1.866,0.667 -2.2,0.7 -0.399,0.033 -0.6,0.35 -0.6,0.95 -0.033,0.133 -0.033,0.3 0,0.5 0.066,0.6 0.25,1.216 0.55,1.85 1.167,2.1 2.366,2.8 3.6,2.1 0.567,-0.3 0.983,-0.633 1.25,-1 l -0.55,-1.25 V 18.1 c 0.134,0.233 0.233,0.467 0.3,0.7 0.088,0.203 0.171,0.402 0.25,0.6 0.049,0.119 0.099,0.236 0.149,0.35 z m -5.25,-7.8 c -0.533,0.633 -0.967,0.933 -1.3,0.9 -0.633,-0.333 -1.233,-0.383 -1.8,-0.15 -0.566,0.267 -0.95,0.483 -1.15,0.65 -0.267,0.2 -0.4,0.517 -0.4,0.95 0.066,0.867 0.167,1.467 0.3,1.8 l 0.4,-0.65 c 0.3,-0.434 0.633,-0.617 1,-0.55 0.233,0.067 0.467,0.217 0.7,0.45 0.167,0.133 0.317,0.15 0.45,0.05 0.2,-0.1 0.4,-0.25 0.6,-0.45 0.167,-0.2 0.4,-0.417 0.7,-0.65 0.566,-0.433 1.05,-0.633 1.45,-0.6 H 28 c -0.3,-0.967 -0.566,-1.483 -0.8,-1.55 z m -0.5,6 0.45,0.3 C 26.566,18.117 26.45,17.917 26.349,17.65 26.116,17.217 26,16.833 26,16.5 l 0.15,-1.25 -0.8,0.75 -0.65,0.4 c -0.034,0.2 -0.083,0.367 -0.15,0.5 -0.133,0.233 -0.35,0.4 -0.65,0.5 -0.767,0.267 -1.167,0.617 -1.2,1.05 0.033,0.2 0.15,0.583 0.35,1.15 l 0.2,-0.6 c 0.133,-0.467 0.283,-0.767 0.45,-0.9 0.167,-0.1 0.5,-0.333 1,-0.7 0.466,-0.3 0.767,-0.417 0.9,-0.35 0.167,0.1 0.283,0.267 0.35,0.5 0.1,0.2 0.2,0.333 0.3,0.4 z m -5.85,-0.1 c -0.033,-0.333 -0.033,-0.684 0,-1.05 -0.066,0 -0.133,0.017 -0.2,0.05 -0.3,0.133 -0.467,0.383 -0.5,0.75 -0.034,0.333 0.167,0.433 0.6,0.3 0.033,0 0.067,-0.017 0.1,-0.05 z m 2.55,-1 c -0.067,0.467 0.033,0.667 0.3,0.6 0.333,-0.067 0.583,-0.233 0.75,-0.5 0.167,-0.267 0.217,-0.517 0.15,-0.75 -0.133,-0.667 -0.433,-0.784 -0.9,-0.35 -0.167,0.233 -0.267,0.567 -0.3,1 z m 0.05,4.6 c -0.3,0.033 -0.45,0.083 -0.45,0.15 l -0.4,0.65 0.6,-0.2 c 0.533,-0.1 0.917,-0.117 1.15,-0.05 l 0.6,0.1 0.15,-0.75 c 0.2,-0.567 0.533,-0.934 1,-1.1 0.7,-0.233 1.35,-0.317 1.95,-0.25 -0.133,-0.2 -0.383,-0.35 -0.75,-0.45 -0.733,-0.2 -1.5,-0.017 -2.3,0.55 -0.167,0.133 -0.3,0.333 -0.4,0.6 -0.066,0.2 -0.2,0.35 -0.4,0.45 -0.233,0.1 -0.483,0.2 -0.75,0.3 z m 1.35,-1.85 c 0.767,-0.133 1.3,-0.483 1.6,-1.05 -0.167,-1.133 -0.567,-1.45 -1.2,-0.95 -0.533,0.367 -0.85,0.816 -0.95,1.35 -0.067,0.533 0.117,0.75 0.55,0.65 z M 22.7,20.8 C 22.933,20.533 23.016,20.267 22.95,20 22.783,19.6 22.467,19.517 22,19.75 L 21.65,20 c -0.233,0.1 -0.316,0.417 -0.25,0.95 0,0.433 0.083,0.633 0.25,0.6 l 0.2,-0.1 c 0.367,-0.167 0.65,-0.383 0.85,-0.65 z m -0.3,3.85 c 1.233,-0.267 1.9,-0.667 2,-1.2 0.067,-1.133 -0.583,-1.317 -1.95,-0.55 -0.367,0.233 -0.6,0.6 -0.7,1.1 -0.067,0.533 0.15,0.75 0.65,0.65 z M 5.85,42.5 c -0.7,0.634 -1.483,0.934 -2.35,0.9 -0.733,0 -1.4,-0.184 -2,-0.551 0.133,0.067 0.3,0.134 0.5,0.2 -0.6,-0.533 -0.95,-1.033 -1.05,-1.5 -0.1,-0.533 0.05,-0.967 0.45,-1.3 0.367,-0.267 0.867,-0.384 1.5,-0.35 l 1.6,0.05 C 4.167,39.682 3.867,39.482 3.6,39.348 c 0.833,0.2 1.417,0.7 1.75,1.5 0.233,0.567 0.183,1.117 -0.15,1.65 -0.267,0.4 -0.717,0.684 -1.35,0.85 0.733,-0.098 1.4,-0.381 2,-0.848 z m 26.4,-22.15 c 0.426,1.075 0.775,2.058 1.05,2.95 L 33.1,22.7 C 32.856,22.024 32.573,21.241 32.25,20.35 Z M 25.8,23.6 c -0.267,0.267 -0.383,0.467 -0.35,0.6 0.033,0.1 0.033,0.216 0,0.35 L 25.5,24.5 c 0.167,-0.167 0.417,-0.35 0.75,-0.55 0.467,-0.333 0.884,-0.534 1.25,-0.6 l 0.95,-0.25 c -0.634,-0.333 -1.217,-0.383 -1.75,-0.15 -0.367,0.133 -0.667,0.35 -0.9,0.65 z m -8.2,-0.3 c 0.333,0.034 0.617,-0.216 0.85,-0.75 0.2,-0.566 0.083,-0.8 -0.35,-0.7 -0.3,0.1 -0.533,0.35 -0.7,0.75 -0.2,0.433 -0.133,0.667 0.2,0.7 z m 1.3,1.75 c -0.133,-0.2 -0.5,-0.133 -1.1,0.2 -0.4,0.233 -0.716,0.633 -0.95,1.2 -0.3,0.633 -0.1,0.867 0.6,0.7 1.333,-0.267 1.867,-0.733 1.6,-1.4 -0.033,-0.4 -0.083,-0.633 -0.15,-0.7 z m -6,5.7 c -0.1,0.333 -0.1,0.6 0,0.8 0.2,0.3 0.35,0.5 0.45,0.601 -0.067,-0.267 -0.083,-0.534 -0.05,-0.801 0.067,-0.5 0.317,-0.866 0.75,-1.1 l 1.2,-0.55 c -0.367,-0.233 -0.933,-0.134 -1.7,0.3 -0.267,0.134 -0.483,0.384 -0.65,0.75 z M 3.9,40.8 C 3.567,40.467 3.05,40.384 2.35,40.55 l -0.3,0.101 C 1.783,40.75 1.6,40.967 1.5,41.3 c -0.133,0.367 -0.083,0.65 0.15,0.851 0.2,0.267 0.517,0.449 0.95,0.55 L 2.575,42.676 c 0.025,0.01 0.05,0.018 0.075,0.025 0.76,0.269 1.343,0.169 1.75,-0.3 0.467,-0.5 0.434,-0.9 -0.1,-1.2 C 4.2,41.033 4.067,40.9 3.9,40.8 Z M 24.1,25.65 c 0.1,-0.167 0.083,-0.35 -0.05,-0.55 -0.233,-0.167 -0.5,-0.2 -0.8,-0.1 -0.367,0.133 -0.567,0.2 -0.6,0.2 -0.233,0.1 -0.4,0.25 -0.5,0.45 -0.133,0.167 -0.283,0.333 -0.45,0.5 -0.067,0.067 -0.05,0.083 0.05,0.05 l 2.1,-0.4 c 0.133,0 0.217,-0.05 0.25,-0.15 z"
   fill="#d3cfc6"
   id="path64" />

		<radialGradient
   id="n"
   cx="-32.624001"
   cy="-10.265"
   r="18.622"
   gradientTransform="matrix(-0.778,-0.6283,-0.5806,0.7706,-12.14,16.113)"
   gradientUnits="userSpaceOnUse">
		<stop
   stop-color="#DCCCBD"
   offset="0"
   id="stop66" />

		<stop
   stop-color="#D8C3B4"
   offset=".1804"
   id="stop68" />

		<stop
   stop-color="#CDAA9D"
   offset=".4784"
   id="stop70" />

		<stop
   stop-color="#BD8377"
   offset=".8549"
   id="stop72" />

		<stop
   stop-color="#B67367"
   offset="1"
   id="stop74" />

	</radialGradient>

	<path
   d="m 23.35,12.3 -0.2,0.2 c -0.033,-0.067 -0.033,-0.15 0,-0.25 z m -3.9,0.3 c -0.3,0.5 -0.583,1 -0.85,1.5 -0.567,1.066 -1.367,3.083 -2.4,6.05 -1.133,3 -2.117,5.367 -2.95,7.1 C 12.25,29.316 10.5,31.467 8,33.7 7.267,34.3 6.583,34.9 5.95,35.5 5.916,33.767 5.7,32.1 5.3,30.5 4.167,27.567 3.417,25.383 3.05,23.95 2.484,21.55 3,19.15 4.6,16.75 c 1.566,-2.367 3.583,-3.633 6.05,-3.8 1.367,-0.1 3.35,0.017 5.95,0.35 0.967,-0.067 1.917,-0.3 2.85,-0.7 z"
   fill="url(#n)"
   id="path77" />

		<linearGradient
   id="o"
   x1="-37.234001"
   x2="-24.728001"
   y1="20.034"
   y2="20.034"
   gradientTransform="matrix(-0.4938,-0.8696,0.861,-0.5089,-1.9258e-4,2.3949e-4)"
   gradientUnits="userSpaceOnUse">
		<stop
   stop-color="#988F7D"
   offset="0"
   id="stop79" />

		<stop
   stop-color="#C7C2B8"
   offset=".3569"
   id="stop81" />

		<stop
   stop-color="#DAD9D6"
   offset=".9922"
   id="stop83" />

	</linearGradient>

	<path
   d="m 31.95,13.15 c -0.101,0.033 -0.184,0.067 -0.25,0.1 h -0.05 c -0.267,-0.2 -0.733,-0.15 -1.4,0.15 -0.033,0.033 -0.066,0.05 -0.1,0.05 L 29.849,13.55 28.8,12.5 c 0.101,-0.167 0.15,-0.283 0.15,-0.35 0,-0.167 -0.101,-0.367 -0.3,-0.6 -0.233,-0.167 -0.584,-0.167 -1.051,0 L 26.7,10.95 26.65,10.9 c 0.3,-0.133 0.649,-0.267 1.05,-0.4 l -0.6,0.25 0.2,0.15 0.65,-0.1 c 0.399,0 0.717,0.117 0.95,0.35 0.066,0.033 0.116,0.083 0.149,0.15 0.066,0.167 0.134,0.317 0.2,0.45 -0.033,0.067 -0.033,0.1 0,0.1 0.033,0.133 0.05,0.283 0.05,0.45 l 0.3,0.65 c 0.067,0.167 0.2,0.216 0.4,0.15 h 0.05 c 0.066,-0.033 0.233,-0.167 0.5,-0.4 0.367,-0.1 0.7,-0.05 1,0.15 z m 3.25,4.15 c 0.233,0.6 0.416,1.167 0.55,1.7 L 34.5,15.65 c 0.233,0.434 0.434,0.9 0.6,1.4 0.034,0.067 0.067,0.15 0.1,0.25 z m -0.9,-1.8 0.05,0.05 c 0.534,1.5 0.65,2.784 0.351,3.85 -0.167,0.6 -0.45,0.767 -0.851,0.5 -0.233,-0.2 -0.517,-0.483 -0.85,-0.85 0.066,-0.033 0.167,-0.083 0.3,-0.15 0.134,-0.133 0.316,-0.3 0.55,-0.5 0.267,-0.267 0.351,-0.566 0.25,-0.9 l -0.149,-0.45 c -0.134,-0.167 -0.65,-0.1 -1.55,0.2 v 0.05 l -0.25,0.25 c -0.067,-0.066 -0.117,-0.133 -0.15,-0.2 0.167,-0.233 0.366,-0.483 0.6,-0.75 l 0.551,-0.3 c 0.466,-0.233 0.767,-0.283 0.899,-0.15 0.167,0.1 0.3,0.2 0.4,0.3 0.066,0.033 0.05,-0.2 -0.05,-0.7 z"
   fill="url(#o)"
   id="path86" />

	<path
   d="m 31.55,12.85 c -0.3,-0.2 -0.633,-0.25 -1,-0.15 -0.267,0.233 -0.434,0.367 -0.5,0.4 H 30 c -0.2,0.066 -0.333,0.017 -0.4,-0.15 L 29.3,12.3 c 0,-0.167 -0.017,-0.316 -0.05,-0.45 -0.033,0 -0.033,-0.033 0,-0.1 -0.066,-0.133 -0.134,-0.283 -0.2,-0.45 -0.033,-0.066 -0.083,-0.117 -0.149,-0.15 -0.233,-0.233 -0.551,-0.35 -0.95,-0.35 l -0.65,0.1 -0.2,-0.15 c 0.667,-0.167 1.351,-0.05 2.051,0.35 0.133,0.066 0.25,0.133 0.35,0.2 0.498,0.3 1.182,0.817 2.048,1.55 z m -4.8,-0.9 0.45,0.2 c 0.233,0.067 0.5,0.583 0.8,1.55 h -0.3 c -0.4,-0.034 -0.884,0.167 -1.45,0.6 -0.3,0.233 -0.533,0.45 -0.7,0.65 -0.2,0.2 -0.4,0.35 -0.6,0.45 -0.133,0.1 -0.284,0.083 -0.45,-0.05 -0.233,-0.233 -0.467,-0.383 -0.7,-0.45 -0.367,-0.066 -0.7,0.117 -1,0.55 l -0.4,0.65 c -0.133,-0.333 -0.233,-0.934 -0.3,-1.8 0,-0.433 0.133,-0.75 0.4,-0.95 0.2,-0.167 0.583,-0.383 1.15,-0.65 0.567,-0.233 1.167,-0.184 1.8,0.15 0.333,0.033 0.767,-0.267 1.3,-0.9 z m -0.5,6 c -0.1,-0.067 -0.2,-0.2 -0.3,-0.4 -0.067,-0.233 -0.184,-0.4 -0.35,-0.5 -0.133,-0.066 -0.434,0.05 -0.9,0.35 -0.5,0.367 -0.833,0.6 -1,0.7 -0.167,0.133 -0.317,0.433 -0.45,0.9 l -0.2,0.6 c -0.2,-0.567 -0.316,-0.95 -0.35,-1.15 0.033,-0.434 0.433,-0.784 1.2,-1.05 0.3,-0.1 0.517,-0.267 0.65,-0.5 0.067,-0.133 0.117,-0.3 0.15,-0.5 L 25.35,16 26.15,15.25 26,16.5 c 0,0.333 0.116,0.717 0.35,1.15 0.101,0.267 0.217,0.467 0.351,0.6 z m -2.3,-4.95 -0.1,0.05 c -0.6,0.3 -0.833,0.583 -0.7,0.85 0.1,0.233 0.417,0.333 0.95,0.3 0.133,0 0.283,0.017 0.45,0.05 0.1,0 0.2,-0.083 0.3,-0.25 0.167,-0.233 0.233,-0.45 0.2,-0.65 -0.067,-0.367 -0.433,-0.483 -1.1,-0.35 z m 1.15,3.45 c -0.067,0.1 -0.1,0.216 -0.1,0.35 0,0.1 0.083,0.133 0.25,0.1 0.2,-0.066 0.283,-0.2 0.25,-0.4 -0.033,-0.233 -0.167,-0.25 -0.4,-0.05 z m -2.1,5 c 0.267,-0.1 0.517,-0.2 0.75,-0.3 0.2,-0.1 0.333,-0.25 0.4,-0.45 0.1,-0.267 0.233,-0.467 0.4,-0.6 0.8,-0.567 1.566,-0.75 2.3,-0.55 0.367,0.1 0.617,0.25 0.75,0.45 -0.6,-0.067 -1.25,0.017 -1.95,0.25 -0.467,0.167 -0.8,0.533 -1,1.1 L 24.5,22.1 23.9,22 c -0.233,-0.067 -0.617,-0.05 -1.15,0.05 l -0.6,0.2 0.4,-0.65 c 0,-0.067 0.15,-0.117 0.45,-0.15 z m 1.8,-1.25 c -0.133,0.133 -0.216,0.3 -0.25,0.5 -0.066,0.167 0,0.183 0.2,0.05 0.367,-0.367 0.633,-0.567 0.8,-0.6 0,-0.4 -0.25,-0.383 -0.75,0.05 z m 1,3.4 c 0.233,-0.3 0.533,-0.517 0.9,-0.65 0.533,-0.233 1.116,-0.184 1.75,0.15 l -0.95,0.25 c -0.366,0.066 -0.783,0.267 -1.25,0.6 -0.333,0.2 -0.583,0.383 -0.75,0.55 l -0.05,0.05 c 0.033,-0.133 0.033,-0.25 0,-0.35 -0.033,-0.133 0.083,-0.333 0.35,-0.6 z m 8.1,-8.55 0.4,0.45 0.101,0.25 c 0.1,0.5 0.116,0.733 0.05,0.7 -0.101,-0.1 -0.233,-0.2 -0.4,-0.3 -0.133,-0.133 -0.434,-0.083 -0.899,0.15 L 32.6,16.6 c 0.067,-0.133 0.15,-0.25 0.25,-0.35 0.367,-0.433 0.716,-0.833 1.05,-1.2 z m -21,15.7 c 0.167,-0.366 0.383,-0.616 0.65,-0.75 0.767,-0.434 1.333,-0.533 1.7,-0.3 l -1.2,0.55 c -0.433,0.233 -0.683,0.6 -0.75,1.1 -0.033,0.267 -0.017,0.534 0.05,0.801 -0.1,-0.101 -0.25,-0.301 -0.45,-0.601 -0.1,-0.2 -0.1,-0.467 0,-0.8 z m 11.2,-5.1 c -0.033,0.1 -0.117,0.15 -0.25,0.15 l -2.1,0.4 c -0.1,0.033 -0.117,0.017 -0.05,-0.05 0.167,-0.167 0.316,-0.333 0.45,-0.5 0.1,-0.2 0.267,-0.35 0.5,-0.45 0.033,0 0.233,-0.067 0.6,-0.2 0.3,-0.1 0.567,-0.067 0.8,0.1 0.133,0.2 0.15,0.383 0.05,0.55 z"
   fill="#e7e5e0"
   id="path88" />

	<path
   d="m 35.75,19 c -0.134,-0.533 -0.316,-1.1 -0.55,-1.7 0.5,0.8 0.833,1.4 1,1.8 0.312,0.904 0.695,1.237 1.149,1 -0.153,0.236 -0.354,0.436 -0.6,0.6 -0.167,0.167 -0.333,0.3 -0.5,0.4 v 0.4 c 0,0.3 -0.05,0.567 -0.15,0.8 -0.133,0.2 -0.333,0.45 -0.6,0.75 l -0.15,0.2 c -0.1,0.067 -0.166,0.133 -0.199,0.2 -0.5,0.433 -1.034,0.75 -1.601,0.95 -0.066,-0.3 -0.149,-0.667 -0.25,-1.1 -0.274,-0.892 -0.624,-1.875 -1.05,-2.95 -0.085,-0.213 -0.168,-0.43 -0.25,-0.65 v 0.05 c -0.05,-0.114 -0.1,-0.231 -0.15,-0.35 -0.079,-0.198 -0.162,-0.397 -0.25,-0.6 -0.066,-0.233 -0.166,-0.466 -0.3,-0.7 0.033,-0.033 0.066,-0.067 0.101,-0.1 0.399,0.733 0.716,1.35 0.949,1.85 0.301,0.767 0.634,1.617 1,2.55 0.2,0.467 0.45,0.667 0.75,0.6 1.267,-0.367 1.95,-0.967 2.051,-1.8 -0.034,-0.1 -0.051,-0.184 -0.051,-0.25 v -0.5 C 36.033,20.05 35.917,19.567 35.75,19 Z m 1.15,-3.45 c -0.034,-0.066 -0.051,-0.117 -0.051,-0.15 0.134,0.133 0.25,0.3 0.351,0.5 0.166,0.3 0.416,0.383 0.75,0.25 0.333,-0.133 0.566,-0.467 0.7,-1 -0.034,0.434 -0.101,0.8 -0.2,1.1 -0.167,0.467 -0.45,0.833 -0.851,1.1 -0.066,-0.2 -0.149,-0.45 -0.25,-0.75 l -0.1,-0.25 C 37.15,16.117 37.033,15.85 36.9,15.55 Z M 6.35,42.1 c 0.133,-0.3 0.167,-0.616 0.1,-0.949 -0.067,-0.301 0,-0.551 0.2,-0.75 0.133,-0.101 0.4,-0.284 0.8,-0.551 1.333,-1 3.066,-2.466 5.2,-4.399 V 35.4 c 0.1,-0.067 0.2,-0.15 0.3,-0.25 0.167,-0.101 0.333,-0.217 0.5,-0.351 0.1,-0.1 0.216,-0.184 0.35,-0.25 2.534,-1.967 4.383,-3.166 5.55,-3.6 0.8,-0.267 2.717,-0.8 5.75,-1.601 2.7,-0.6 4.466,-1.116 5.3,-1.55 1,-0.5 1.733,-0.966 2.199,-1.4 0.5,-0.467 0.834,-1.033 1,-1.7 0.065,0.511 0.065,0.944 0,1.3 l -0.05,0.2 c -0.033,0.033 -0.066,0.083 -0.1,0.15 -0.033,0.2 -0.117,0.383 -0.25,0.55 -0.2,0.333 -0.566,0.633 -1.101,0.9 l -1.85,0.7 c -2.866,0.667 -4.983,1.167 -6.35,1.5 -2.367,0.6 -4.117,1.283 -5.25,2.05 -2.833,1.934 -4.483,3.101 -4.95,3.5 -0.662,0.441 -1.146,0.809 -1.45,1.101 -0.018,0.016 -0.034,0.032 -0.05,0.05 -1.439,1.303 -2.389,2.086 -2.85,2.35 L 8.9,39.4 c -0.533,0.366 -0.983,0.783 -1.35,1.25 -0.667,0.8 -1.067,1.284 -1.2,1.45 z M 3.9,40.8 4.2,41.1 C 4.033,41.067 3.833,41.05 3.6,41.05 2.467,41.116 1.983,41.6 2.15,42.5 L 1.65,42.15 C 1.417,41.95 1.367,41.667 1.5,41.299 1.6,40.966 1.783,40.749 2.05,40.65 l 0.3,-0.101 C 3.05,40.384 3.567,40.467 3.9,40.8 Z"
   fill="#6c6756"
   id="path90" />

		<linearGradient
   id="p"
   x1="-10.765"
   x2="-6.4926"
   y1="-13.993"
   y2="-13.993"
   gradientTransform="matrix(-0.9597,0.2809,-0.5538,-0.8799,-3.4642e-4,-1.5849e-4)"
   gradientUnits="userSpaceOnUse">
		<stop
   stop-color="#988F7D"
   offset="0"
   id="stop92" />

		<stop
   stop-color="#C7C2B8"
   offset=".3569"
   id="stop94" />

		<stop
   stop-color="#DAD9D6"
   offset=".9922"
   id="stop96" />

	</linearGradient>

	<path
   d="m 14.55,7.95 c -0.133,0 -0.233,0.017 -0.3,0.05 0.1,-0.1 0.283,-0.117 0.55,-0.05 z m 0.35,2 c 0.467,0.933 0.767,1.433 0.9,1.5 0.133,0.066 0.217,0 0.25,-0.2 C 16.084,11.083 16.067,10.933 16,10.8 15.667,9.834 15.2,9.15 14.6,8.75 14.4,8.617 14.5,9.017 14.9,9.95 Z m 0.95,2.4 c -0.063,-0.177 -0.146,-0.344 -0.25,-0.5 -0.533,-1.333 -0.967,-2.333 -1.3,-3 -0.2,-0.333 -0.25,-0.6 -0.15,-0.8 0.934,0.133 1.7,0.784 2.3,1.95 0.3,0.6 0.367,1.15 0.2,1.65 -0.167,0.467 -0.433,0.7 -0.8,0.7 z"
   fill="url(#p)"
   id="path99" />

</g>
  </g>
</svg>
